<svg version="1.1" xmlns="http://www.w3.org/2000/svg" viewBox="0 0 3307.153487949924 1174.1609394279124" width="3307.153487949924" height="1174.1609394279124">
  <!-- svg-source:excalidraw -->
  
  <defs>
    <style class="style-fonts">
      @font-face {
        font-family: "Virgil";
        src: url("https://excalidraw.com/Virgil.woff2");
      }
      @font-face {
        font-family: "Cascadia";
        src: url("https://excalidraw.com/Cascadia.woff2");
      }
      @font-face {
        font-family: "Assistant";
        src: url("https://excalidraw.com/Assistant-Regular.woff2");
      }
    </style>
    
  </defs>
  <rect x="0" y="0" width="3307.153487949924" height="1174.1609394279124" fill="#ffffff"></rect><g stroke-linecap="round" transform="translate(9.999999999999886 10) rotate(0 1643.576743974962 577.0804697139562)"><path d="M7.86 8.16 C7.86 8.16, 7.86 8.16, 7.86 8.16 M7.86 8.16 C7.86 8.16, 7.86 8.16, 7.86 8.16 M0.26 41.3 C10.83 29.13, 21.4 16.97, 36.34 -0.21 M0.26 41.3 C14.25 25.2, 28.24 9.1, 36.34 -0.21 M0.52 65.38 C17.4 45.96, 34.28 26.54, 57.6 -0.28 M0.52 65.38 C15.44 48.21, 30.36 31.05, 57.6 -0.28 M0.13 90.22 C16.69 71.16, 33.25 52.11, 78.2 0.41 M0.13 90.22 C24.06 62.69, 47.98 35.17, 78.2 0.41 M0.4 114.3 C21.24 90.32, 42.09 66.34, 99.46 0.34 M0.4 114.3 C25.04 85.95, 49.69 57.59, 99.46 0.34 M0.01 139.13 C47.22 84.82, 94.43 30.51, 120.72 0.27 M0.01 139.13 C38.19 95.21, 76.38 51.28, 120.72 0.27 M0.27 163.22 C52.44 103.21, 104.6 43.2, 141.98 0.2 M0.27 163.22 C51 104.87, 101.72 46.52, 141.98 0.2 M0.54 187.3 C41.24 140.48, 81.93 93.67, 163.24 0.13 M0.54 187.3 C59.46 119.52, 118.37 51.75, 163.24 0.13 M0.15 212.13 C41.04 165.1, 81.92 118.06, 184.5 0.06 M0.15 212.13 C69.42 132.45, 138.68 52.77, 184.5 0.06 M0.42 236.22 C67.15 159.45, 133.88 82.68, 205.76 -0.01 M0.42 236.22 C46.18 183.58, 91.93 130.94, 205.76 -0.01 M0.03 261.05 C54.52 198.37, 109.01 135.68, 227.02 -0.08 M0.03 261.05 C50.74 202.72, 101.44 144.39, 227.02 -0.08 M0.29 285.13 C66.53 208.94, 132.76 132.75, 248.28 -0.15 M0.29 285.13 C77.66 196.14, 155.02 107.14, 248.28 -0.15 M-0.1 309.97 C82.72 214.7, 165.54 119.43, 269.54 -0.22 M-0.1 309.97 C96.04 199.37, 192.18 88.78, 269.54 -0.22 M0.17 334.05 C70.94 252.65, 141.7 171.24, 290.8 -0.28 M0.17 334.05 C80.76 241.35, 161.34 148.64, 290.8 -0.28 M0.44 358.13 C100.85 242.62, 201.26 127.11, 311.41 0.4 M0.44 358.13 C114 227.49, 227.56 96.85, 311.41 0.4 M0.05 382.97 C112.09 254.08, 224.13 125.19, 332.67 0.33 M0.05 382.97 C66.89 306.07, 133.74 229.18, 332.67 0.33 M0.31 407.05 C72.03 324.55, 143.74 242.06, 353.93 0.26 M0.31 407.05 C132.45 255.04, 264.59 103.03, 353.93 0.26 M-0.08 431.89 C129.56 282.76, 259.2 133.63, 375.19 0.19 M-0.08 431.89 C149.87 259.39, 299.82 86.9, 375.19 0.19 M0.19 455.97 C110.34 329.26, 220.48 202.55, 396.45 0.12 M0.19 455.97 C95.6 346.22, 191 236.46, 396.45 0.12 M0.46 480.05 C160.36 296.1, 320.27 112.15, 417.71 0.06 M0.46 480.05 C93.94 372.51, 187.42 264.98, 417.71 0.06 M0.07 504.89 C129.59 355.88, 259.12 206.88, 438.97 -0.01 M0.07 504.89 C157.88 323.35, 315.69 141.81, 438.97 -0.01 M0.33 528.97 C128.97 380.98, 257.61 233, 460.23 -0.08 M0.33 528.97 C119.75 391.6, 239.16 254.23, 460.23 -0.08 M-0.06 553.81 C104.25 433.82, 208.55 313.83, 481.49 -0.15 M-0.06 553.81 C123.96 411.14, 247.98 268.47, 481.49 -0.15 M0.21 577.89 C191.21 358.16, 382.22 138.44, 502.75 -0.22 M0.21 577.89 C164.09 389.37, 327.96 200.85, 502.75 -0.22 M0.48 601.97 C115.72 469.39, 230.97 336.82, 523.35 0.47 M0.48 601.97 C207.84 363.42, 415.21 124.87, 523.35 0.47 M0.09 626.81 C188 410.63, 375.92 194.46, 544.61 0.4 M0.09 626.81 C151.15 453.02, 302.22 279.24, 544.61 0.4 M0.35 650.89 C170.08 455.64, 339.81 260.39, 565.87 0.33 M0.35 650.89 C211.25 408.27, 422.16 165.66, 565.87 0.33 M-0.04 675.72 C206.18 438.5, 412.39 201.28, 587.14 0.26 M-0.04 675.72 C118.61 539.23, 237.26 402.74, 587.14 0.26 M0.23 699.81 C161.39 514.41, 322.55 329.01, 608.4 0.19 M0.23 699.81 C193.14 477.89, 386.04 255.98, 608.4 0.19 M0.49 723.89 C183.22 513.69, 365.94 303.49, 629.66 0.12 M0.49 723.89 C140.69 562.62, 280.88 401.34, 629.66 0.12 M0.11 748.72 C221.29 494.27, 442.48 239.82, 650.92 0.05 M0.11 748.72 C191.68 528.34, 383.25 307.96, 650.92 0.05 M0.37 772.81 C249.23 486.52, 498.09 200.24, 672.18 -0.02 M0.37 772.81 C199.81 543.38, 399.25 313.95, 672.18 -0.02 M-0.02 797.64 C253.24 506.3, 506.51 214.95, 693.44 -0.09 M-0.02 797.64 C210.65 555.29, 421.33 312.94, 693.44 -0.09 M0.25 821.72 C224.96 563.22, 449.67 304.72, 714.7 -0.16 M0.25 821.72 C154.4 644.39, 308.55 467.06, 714.7 -0.16 M0.51 845.81 C292.6 509.8, 584.68 173.8, 735.96 -0.22 M0.51 845.81 C205.89 609.55, 411.26 373.29, 735.96 -0.22 M0.12 870.64 C273.66 555.97, 547.2 241.31, 756.56 0.46 M0.12 870.64 C155.52 691.88, 310.91 513.12, 756.56 0.46 M0.39 894.72 C239.37 619.81, 478.35 344.89, 777.82 0.39 M0.39 894.72 C224.94 636.41, 449.49 378.1, 777.82 0.39 M0 919.56 C212.74 674.83, 425.48 430.1, 799.08 0.32 M0 919.56 C260.64 619.73, 521.27 319.91, 799.08 0.32 M0.27 943.64 C314.61 582.03, 628.95 220.42, 820.34 0.25 M0.27 943.64 C275.02 627.58, 549.76 311.52, 820.34 0.25 M0.53 967.72 C251.64 678.86, 502.74 390, 841.6 0.19 M0.53 967.72 C229.86 703.91, 459.19 440.1, 841.6 0.19 M0.14 992.56 C283 667.17, 565.85 341.78, 862.86 0.12 M0.14 992.56 C306.16 640.53, 612.17 288.51, 862.86 0.12 M0.41 1016.64 C216.36 768.22, 432.31 519.79, 884.12 0.05 M0.41 1016.64 C330.88 636.48, 661.36 256.31, 884.12 0.05 M0.02 1041.48 C235.11 771.03, 470.21 500.59, 905.38 -0.02 M0.02 1041.48 C198.39 813.28, 396.77 585.07, 905.38 -0.02 M0.29 1065.56 C190.28 847, 380.26 628.45, 926.64 -0.09 M0.29 1065.56 C364.8 646.23, 729.31 226.91, 926.64 -0.09 M-0.1 1090.4 C296.57 749.11, 593.25 407.82, 947.9 -0.16 M-0.1 1090.4 C316.39 726.32, 632.88 362.24, 947.9 -0.16 M0.16 1114.48 C385.6 671.09, 771.03 227.69, 969.16 -0.23 M0.16 1114.48 C319.02 747.67, 637.88 380.86, 969.16 -0.23 M2.4 1136.3 C236.95 866.47, 471.51 596.65, 989.77 0.46 M2.4 1136.3 C238.3 864.93, 474.19 593.56, 989.77 0.46 M12.5 1149.06 C367.03 741.22, 721.56 333.38, 1011.03 0.39 M12.5 1149.06 C225.03 904.57, 437.56 660.08, 1011.03 0.39 M29.17 1154.27 C429.39 693.88, 829.6 233.48, 1032.29 0.32 M29.17 1154.27 C238.5 913.47, 447.83 672.67, 1032.29 0.32 M49.78 1154.96 C376.25 779.39, 702.73 403.82, 1053.55 0.25 M49.78 1154.96 C362.34 795.39, 674.91 435.82, 1053.55 0.25 M71.04 1154.89 C450.76 718.06, 830.49 281.24, 1074.81 0.18 M71.04 1154.89 C323.86 864.05, 576.68 573.21, 1074.81 0.18 M92.3 1154.82 C365.59 840.43, 638.88 526.04, 1096.07 0.11 M92.3 1154.82 C419.16 778.8, 746.03 402.79, 1096.07 0.11 M113.56 1154.75 C487.23 724.89, 860.9 295.03, 1117.33 0.04 M113.56 1154.75 C426.35 794.93, 739.14 435.1, 1117.33 0.04 M134.82 1154.68 C411.5 836.39, 688.19 518.09, 1138.59 -0.03 M134.82 1154.68 C527.17 703.33, 919.52 251.98, 1138.59 -0.03 M156.08 1154.61 C550.79 700.55, 945.5 246.48, 1159.85 -0.09 M156.08 1154.61 C422.48 848.16, 688.87 541.7, 1159.85 -0.09 M177.34 1154.54 C509.14 772.84, 840.95 391.14, 1181.11 -0.16 M177.34 1154.54 C455.17 834.93, 733.01 515.31, 1181.11 -0.16 M198.6 1154.47 C468.78 843.67, 738.95 532.86, 1202.37 -0.23 M198.6 1154.47 C524.91 779.1, 851.22 403.72, 1202.37 -0.23 M219.86 1154.4 C568.73 753.07, 917.61 351.74, 1222.97 0.45 M219.86 1154.4 C608.5 707.32, 997.15 260.24, 1222.97 0.45 M240.46 1155.09 C485.05 873.72, 729.64 592.35, 1244.23 0.38 M240.46 1155.09 C478.27 881.52, 716.08 607.95, 1244.23 0.38 M261.72 1155.02 C616.82 746.53, 971.91 338.04, 1265.49 0.32 M261.72 1155.02 C624.32 737.9, 986.92 320.78, 1265.49 0.32 M282.98 1154.95 C660.39 720.8, 1037.79 286.65, 1286.75 0.25 M282.98 1154.95 C565.55 829.89, 848.12 504.83, 1286.75 0.25 M304.24 1154.88 C595.84 819.43, 887.45 483.98, 1308.01 0.18 M304.24 1154.88 C576.26 841.97, 848.27 529.05, 1308.01 0.18 M325.5 1154.81 C667.75 761.11, 1009.99 367.4, 1329.27 0.11 M325.5 1154.81 C600.38 838.6, 875.27 522.38, 1329.27 0.11 M346.76 1154.74 C563.27 905.68, 779.78 656.61, 1350.53 0.04 M346.76 1154.74 C571.49 896.22, 796.22 637.7, 1350.53 0.04 M368.02 1154.68 C597.95 890.17, 827.88 625.67, 1371.79 -0.03 M368.02 1154.68 C732.7 735.16, 1097.38 315.65, 1371.79 -0.03 M389.28 1154.61 C693.05 805.17, 996.81 455.73, 1393.05 -0.1 M389.28 1154.61 C752.11 737.22, 1114.94 319.83, 1393.05 -0.1 M410.54 1154.54 C758.26 754.54, 1105.98 354.53, 1414.31 -0.17 M410.54 1154.54 C645.04 884.78, 879.54 615.02, 1414.31 -0.17 M431.8 1154.47 C672.91 877.11, 914.01 599.75, 1435.57 -0.24 M431.8 1154.47 C692.45 854.63, 953.09 554.8, 1435.57 -0.24 M453.06 1154.4 C668.46 906.62, 883.85 658.83, 1456.18 0.45 M453.06 1154.4 C756.91 804.87, 1060.75 455.33, 1456.18 0.45 M473.67 1155.09 C707.51 886.08, 941.35 617.07, 1477.44 0.38 M473.67 1155.09 C803.69 775.44, 1133.71 395.8, 1477.44 0.38 M494.93 1155.02 C867.69 726.2, 1240.45 297.39, 1498.7 0.31 M494.93 1155.02 C819.8 781.3, 1144.66 407.58, 1498.7 0.31 M516.19 1154.95 C718.04 922.75, 919.88 690.55, 1519.96 0.24 M516.19 1154.95 C730.49 908.42, 944.79 661.9, 1519.96 0.24 M537.45 1154.88 C908.14 728.45, 1278.83 302.02, 1541.22 0.17 M537.45 1154.88 C921.61 712.95, 1305.77 271.03, 1541.22 0.17 M558.71 1154.81 C940.51 715.6, 1322.31 276.39, 1562.48 0.1 M558.71 1154.81 C953.05 701.18, 1347.39 247.54, 1562.48 0.1 M579.97 1154.74 C958.53 719.26, 1337.09 283.77, 1583.74 0.04 M579.97 1154.74 C882.46 806.77, 1184.95 458.79, 1583.74 0.04 M601.23 1154.67 C924.65 782.62, 1248.07 410.57, 1605 -0.03 M601.23 1154.67 C982.96 715.54, 1364.69 276.41, 1605 -0.03 M622.49 1154.6 C1003.03 716.84, 1383.57 279.08, 1626.26 -0.1 M622.49 1154.6 C858.55 883.05, 1094.61 611.49, 1626.26 -0.1 M643.75 1154.53 C938.5 815.46, 1233.26 476.38, 1647.52 -0.17 M643.75 1154.53 C968.59 780.85, 1293.42 407.17, 1647.52 -0.17 M665.01 1154.46 C1041.49 721.37, 1417.98 288.27, 1668.78 -0.24 M665.01 1154.46 C940.21 837.89, 1215.4 521.31, 1668.78 -0.24 M685.61 1155.15 C964.02 834.88, 1242.43 514.6, 1689.38 0.44 M685.61 1155.15 C891.38 918.44, 1097.15 681.73, 1689.38 0.44 M706.87 1155.08 C1088.8 715.72, 1470.73 276.37, 1710.64 0.38 M706.87 1155.08 C950.48 874.84, 1194.09 594.61, 1710.64 0.38 M728.13 1155.01 C1101.18 725.87, 1474.23 296.73, 1731.9 0.31 M728.13 1155.01 C970.03 876.75, 1211.92 598.48, 1731.9 0.31 M749.39 1154.94 C976.73 893.42, 1204.07 631.9, 1753.16 0.24 M749.39 1154.94 C1050.02 809.11, 1350.65 463.28, 1753.16 0.24 M770.65 1154.87 C1162.53 704.07, 1554.4 253.27, 1774.42 0.17 M770.65 1154.87 C1054.23 828.66, 1337.8 502.44, 1774.42 0.17 M791.91 1154.81 C1153.04 739.38, 1514.17 323.95, 1795.68 0.1 M791.91 1154.81 C1130.88 764.87, 1469.85 374.93, 1795.68 0.1 M813.17 1154.74 C1077.35 850.84, 1341.52 546.94, 1816.95 0.03 M813.17 1154.74 C1028.86 906.62, 1244.55 658.5, 1816.95 0.03 M834.44 1154.67 C1078.06 874.41, 1321.68 594.16, 1838.21 -0.04 M834.44 1154.67 C1220.66 710.36, 1606.89 266.06, 1838.21 -0.04 M855.7 1154.6 C1091.73 883.07, 1327.76 611.55, 1859.47 -0.11 M855.7 1154.6 C1214.81 741.49, 1573.92 328.38, 1859.47 -0.11 M876.96 1154.53 C1231.56 746.6, 1586.16 338.68, 1880.73 -0.18 M876.96 1154.53 C1080.33 920.58, 1283.69 686.63, 1880.73 -0.18 M898.22 1154.46 C1166.31 846.05, 1434.4 537.65, 1901.99 -0.25 M898.22 1154.46 C1164.44 848.21, 1430.66 541.96, 1901.99 -0.25 M918.82 1155.15 C1305.34 710.5, 1691.86 265.86, 1922.59 0.44 M918.82 1155.15 C1207.33 823.26, 1495.83 491.37, 1922.59 0.44 M940.08 1155.08 C1176.39 883.23, 1412.7 611.39, 1943.85 0.37 M940.08 1155.08 C1266.98 779.02, 1593.89 402.95, 1943.85 0.37 M961.34 1155.01 C1209.6 869.42, 1457.86 583.83, 1965.11 0.3 M961.34 1155.01 C1232.2 843.42, 1503.06 531.83, 1965.11 0.3 M982.6 1154.94 C1316.04 771.36, 1649.49 387.78, 1986.37 0.23 M982.6 1154.94 C1345.9 737.01, 1709.2 319.08, 1986.37 0.23 M1003.86 1154.87 C1269.76 848.99, 1535.65 543.11, 2007.63 0.16 M1003.86 1154.87 C1319.91 791.3, 1635.95 427.73, 2007.63 0.16 M1025.12 1154.8 C1291.18 848.74, 1557.24 542.67, 2028.89 0.1 M1025.12 1154.8 C1257.17 887.86, 1489.21 620.93, 2028.89 0.1 M1046.38 1154.73 C1426.07 717.95, 1805.75 281.17, 2050.15 0.03 M1046.38 1154.73 C1369.43 783.11, 1692.47 411.49, 2050.15 0.03 M1067.64 1154.66 C1325.93 857.54, 1584.22 560.41, 2071.41 -0.04 M1067.64 1154.66 C1293.43 894.92, 1519.22 635.18, 2071.41 -0.04 M1088.9 1154.59 C1433.72 757.93, 1778.53 361.27, 2092.67 -0.11 M1088.9 1154.59 C1414.63 779.88, 1740.36 405.17, 2092.67 -0.11 M1110.16 1154.53 C1358.98 868.29, 1607.8 582.06, 2113.93 -0.18 M1110.16 1154.53 C1380.35 843.71, 1650.54 532.89, 2113.93 -0.18 M1131.42 1154.46 C1465.08 770.63, 1798.74 386.8, 2135.19 -0.25 M1131.42 1154.46 C1423.51 818.44, 1715.61 482.43, 2135.19 -0.25 M1152.03 1155.14 C1444.42 818.78, 1736.82 482.41, 2155.8 0.44 M1152.03 1155.14 C1477.41 780.82, 1802.8 406.51, 2155.8 0.44 M1173.29 1155.07 C1506.8 771.4, 1840.32 387.74, 2177.06 0.37 M1173.29 1155.07 C1498.29 781.19, 1823.3 407.31, 2177.06 0.37 M1194.55 1155 C1553.62 741.93, 1912.7 328.87, 2198.32 0.3 M1194.55 1155 C1580.6 710.9, 1966.65 266.8, 2198.32 0.3 M1215.81 1154.94 C1563.19 755.31, 1910.58 355.69, 2219.58 0.23 M1215.81 1154.94 C1476.54 855, 1737.27 555.07, 2219.58 0.23 M1237.07 1154.87 C1571.28 770.39, 1905.5 385.92, 2240.84 0.16 M1237.07 1154.87 C1517.65 832.09, 1798.23 509.32, 2240.84 0.16 M1258.33 1154.8 C1652.27 701.62, 2046.21 248.44, 2262.1 0.09 M1258.33 1154.8 C1529.47 842.88, 1800.61 530.97, 2262.1 0.09 M1279.59 1154.73 C1498.83 902.52, 1718.06 650.32, 2283.36 0.02 M1279.59 1154.73 C1552.99 840.21, 1826.39 525.7, 2283.36 0.02 M1300.85 1154.66 C1607.63 801.75, 1914.41 448.84, 2304.62 -0.05 M1300.85 1154.66 C1562.35 853.83, 1823.85 553.01, 2304.62 -0.05 M1322.11 1154.59 C1654.49 772.23, 1986.87 389.87, 2325.88 -0.12 M1322.11 1154.59 C1584.04 853.27, 1845.97 551.96, 2325.88 -0.12 M1343.37 1154.52 C1680.07 767.19, 2016.77 379.86, 2347.14 -0.18 M1343.37 1154.52 C1615.32 841.67, 1887.28 528.82, 2347.14 -0.18 M1364.63 1154.45 C1669.55 803.68, 1974.47 452.91, 2368.4 -0.25 M1364.63 1154.45 C1743.47 718.64, 2122.31 282.83, 2368.4 -0.25 M1385.23 1155.14 C1733.91 754.03, 2082.58 352.93, 2389 0.43 M1385.23 1155.14 C1662 836.75, 1938.77 518.36, 2389 0.43 M1406.49 1155.07 C1692.21 826.39, 1977.92 497.72, 2410.26 0.36 M1406.49 1155.07 C1796.3 706.64, 2186.11 258.22, 2410.26 0.36 M1427.75 1155 C1651.11 898.06, 1874.47 641.11, 2431.52 0.29 M1427.75 1155 C1812.85 712, 2197.94 269, 2431.52 0.29 M1449.01 1154.93 C1787.93 765.06, 2126.84 375.18, 2452.78 0.23 M1449.01 1154.93 C1744.78 814.69, 2040.55 474.45, 2452.78 0.23 M1470.27 1154.86 C1728.87 857.38, 1987.46 559.9, 2474.04 0.16 M1470.27 1154.86 C1708.97 880.27, 1947.67 605.68, 2474.04 0.16 M1491.53 1154.79 C1734.76 874.99, 1977.99 595.19, 2495.3 0.09 M1491.53 1154.79 C1824.43 771.83, 2157.33 388.88, 2495.3 0.09 M1512.79 1154.72 C1879.21 733.21, 2245.62 311.7, 2516.56 0.02 M1512.79 1154.72 C1729.29 905.68, 1945.78 656.63, 2516.56 0.02 M1534.05 1154.65 C1828.99 815.36, 2123.94 476.07, 2537.82 -0.05 M1534.05 1154.65 C1904.45 728.56, 2274.85 302.47, 2537.82 -0.05 M1555.31 1154.59 C1829.07 839.66, 2102.83 524.73, 2559.08 -0.12 M1555.31 1154.59 C1785.33 889.98, 2015.34 625.38, 2559.08 -0.12 M1576.57 1154.52 C1880.7 804.66, 2184.83 454.8, 2580.34 -0.19 M1576.57 1154.52 C1888.52 795.66, 2200.47 436.8, 2580.34 -0.19 M1597.83 1154.45 C1923.37 779.96, 2248.91 405.47, 2601.6 -0.26 M1597.83 1154.45 C1923.51 779.8, 2249.19 405.15, 2601.6 -0.26 M1618.44 1155.13 C2016.12 697.66, 2413.79 240.18, 2622.21 0.43 M1618.44 1155.13 C1914.94 814.04, 2211.45 472.95, 2622.21 0.43 M1639.7 1155.06 C1919.77 832.88, 2199.84 510.7, 2643.47 0.36 M1639.7 1155.06 C1922.97 829.2, 2206.23 503.34, 2643.47 0.36 M1660.96 1155 C1877.25 906.19, 2093.53 657.38, 2664.73 0.29 M1660.96 1155 C1957.72 813.6, 2254.49 472.21, 2664.73 0.29 M1682.22 1154.93 C1995.08 795.02, 2307.95 435.11, 2685.99 0.22 M1682.22 1154.93 C1900.43 903.9, 2118.64 652.88, 2685.99 0.22 M1703.48 1154.86 C2023.2 787.06, 2342.92 419.26, 2707.25 0.15 M1703.48 1154.86 C2023.41 786.81, 2343.35 418.77, 2707.25 0.15 M1724.74 1154.79 C1938.35 909.06, 2151.96 663.33, 2728.51 0.08 M1724.74 1154.79 C2105.55 716.71, 2486.37 278.63, 2728.51 0.08 M1746 1154.72 C2126.04 717.53, 2506.08 280.34, 2749.77 0.01 M1746 1154.72 C1952.97 916.63, 2159.94 678.53, 2749.77 0.01 M1767.26 1154.65 C2157.2 706.07, 2547.15 257.49, 2771.03 -0.05 M1767.26 1154.65 C2120.5 748.29, 2473.75 341.93, 2771.03 -0.05 M1788.52 1154.58 C2174.64 710.4, 2560.76 266.21, 2792.29 -0.12 M1788.52 1154.58 C2023.36 884.43, 2258.2 614.28, 2792.29 -0.12 M1809.78 1154.51 C2071.19 853.79, 2332.61 553.06, 2813.55 -0.19 M1809.78 1154.51 C2063.84 862.24, 2317.91 569.98, 2813.55 -0.19 M1831.04 1154.44 C2073.18 875.89, 2315.33 597.34, 2834.81 -0.26 M1831.04 1154.44 C2144.54 793.8, 2458.05 433.15, 2834.81 -0.26 M1851.64 1155.13 C2118.67 847.95, 2385.69 540.78, 2855.41 0.42 M1851.64 1155.13 C2188.36 767.78, 2525.08 380.43, 2855.41 0.42 M1872.9 1155.06 C2242.76 729.59, 2612.61 304.12, 2876.67 0.35 M1872.9 1155.06 C2260.34 709.37, 2647.78 263.67, 2876.67 0.35 M1894.16 1154.99 C2153.36 856.82, 2412.55 558.66, 2897.93 0.29 M1894.16 1154.99 C2281.43 709.5, 2668.69 264.01, 2897.93 0.29 M1915.42 1154.92 C2218.72 806.02, 2522.02 457.11, 2919.19 0.22 M1915.42 1154.92 C2150.28 884.75, 2385.13 614.59, 2919.19 0.22 M1936.68 1154.85 C2243.47 801.93, 2550.26 449.02, 2940.45 0.15 M1936.68 1154.85 C2263.33 779.09, 2589.97 403.34, 2940.45 0.15 M1957.94 1154.78 C2252.78 815.61, 2547.62 476.44, 2961.71 0.08 M1957.94 1154.78 C2228.69 843.33, 2499.43 531.87, 2961.71 0.08 M1979.2 1154.72 C2272.8 816.97, 2566.4 479.22, 2982.97 0.01 M1979.2 1154.72 C2189.89 912.35, 2400.57 669.99, 2982.97 0.01 M2000.46 1154.65 C2311.85 796.44, 2623.24 438.23, 3004.23 -0.06 M2000.46 1154.65 C2342.8 760.83, 2685.14 367.02, 3004.23 -0.06 M2021.72 1154.58 C2341.58 786.63, 2661.44 418.67, 3025.5 -0.13 M2021.72 1154.58 C2251.82 889.88, 2481.92 625.19, 3025.5 -0.13 M2042.98 1154.51 C2278.16 883.97, 2513.33 613.43, 3046.76 -0.2 M2042.98 1154.51 C2374.35 773.32, 2705.71 392.13, 3046.76 -0.2 M2064.25 1154.44 C2364.96 808.5, 2665.68 462.56, 3068.02 -0.27 M2064.25 1154.44 C2373.2 799.03, 2682.15 443.62, 3068.02 -0.27 M2084.85 1155.13 C2350.09 850.01, 2615.32 544.89, 3088.62 0.42 M2084.85 1155.13 C2439.67 746.95, 2794.48 338.78, 3088.62 0.42 M2106.11 1155.06 C2473.9 731.97, 2841.68 308.87, 3109.88 0.35 M2106.11 1155.06 C2411.58 803.66, 2717.04 452.26, 3109.88 0.35 M2127.37 1154.99 C2442.53 792.43, 2757.7 429.88, 3131.14 0.28 M2127.37 1154.99 C2490.81 736.9, 2854.25 318.8, 3131.14 0.28 M2148.63 1154.92 C2415.46 847.96, 2682.29 541.01, 3152.4 0.21 M2148.63 1154.92 C2361.36 910.2, 2574.08 665.49, 3152.4 0.21 M2169.89 1154.85 C2383.75 908.84, 2597.6 662.82, 3173.66 0.14 M2169.89 1154.85 C2512.37 760.87, 2854.86 366.89, 3173.66 0.14 M2191.15 1154.78 C2552.73 738.84, 2914.3 322.89, 3194.92 0.07 M2191.15 1154.78 C2550.61 741.27, 2910.06 327.77, 3194.92 0.07 M2212.41 1154.71 C2520.19 800.65, 2827.97 446.59, 3216.18 0.01 M2212.41 1154.71 C2524.1 796.15, 2835.8 437.59, 3216.18 0.01 M2233.67 1154.64 C2462.07 891.9, 2690.48 629.15, 3237.44 -0.06 M2233.67 1154.64 C2439.16 918.25, 2644.65 681.86, 3237.44 -0.06 M2254.93 1154.57 C2511.21 859.76, 2767.49 564.94, 3258.04 0.62 M2254.93 1154.57 C2580.05 780.57, 2905.17 406.56, 3258.04 0.62 M2276.19 1154.5 C2537.39 854.03, 2798.59 553.55, 3275.37 5.08 M2276.19 1154.5 C2623.91 754.5, 2971.63 354.49, 3275.37 5.08 M2297.45 1154.44 C2530.67 886.14, 2763.9 617.85, 3285.48 17.84 M2297.45 1154.44 C2564.59 847.12, 2831.74 539.81, 3285.48 17.84 M2318.06 1155.12 C2580.89 852.76, 2843.73 550.4, 3287.71 39.66 M2318.06 1155.12 C2626.98 799.75, 2935.9 444.38, 3287.71 39.66 M2339.32 1155.05 C2661.98 783.87, 2984.64 412.69, 3287.32 64.5 M2339.32 1155.05 C2597.31 858.27, 2855.3 561.48, 3287.32 64.5 M2360.58 1154.98 C2621.37 854.97, 2882.17 554.95, 3287.59 88.58 M2360.58 1154.98 C2714.18 748.2, 3067.79 341.42, 3287.59 88.58 M2381.84 1154.91 C2722.33 763.22, 3062.82 371.53, 3287.2 113.42 M2381.84 1154.91 C2641.29 856.45, 2900.73 557.99, 3287.2 113.42 M2403.1 1154.85 C2697.33 816.36, 2991.57 477.88, 3287.46 137.5 M2403.1 1154.85 C2700.21 813.06, 2997.32 471.27, 3287.46 137.5 M2424.36 1154.78 C2654.46 890.07, 2884.56 625.37, 3287.73 161.58 M2424.36 1154.78 C2687.87 851.63, 2951.39 548.49, 3287.73 161.58 M2445.62 1154.71 C2682.39 882.33, 2919.16 609.96, 3287.34 186.41 M2445.62 1154.71 C2711.48 848.87, 2977.34 543.03, 3287.34 186.41 M2466.88 1154.64 C2672.52 918.07, 2878.16 681.51, 3287.61 210.5 M2466.88 1154.64 C2757.43 820.4, 3047.98 486.16, 3287.61 210.5 M2488.14 1154.57 C2806.82 787.96, 3125.51 421.36, 3287.22 235.33 M2488.14 1154.57 C2799.18 796.76, 3110.22 438.94, 3287.22 235.33 M2509.4 1154.5 C2729.42 901.4, 2949.44 648.29, 3287.48 259.41 M2509.4 1154.5 C2737.58 892.01, 2965.76 629.51, 3287.48 259.41 M2530.66 1154.43 C2812.77 829.9, 3094.88 505.36, 3287.75 283.5 M2530.66 1154.43 C2802.18 842.08, 3073.7 529.73, 3287.75 283.5 M2551.26 1155.12 C2723 957.56, 2894.73 760, 3287.36 308.33 M2551.26 1155.12 C2711.46 970.83, 2871.66 786.54, 3287.36 308.33 M2572.52 1155.05 C2791.13 903.56, 3009.75 652.08, 3287.63 332.41 M2572.52 1155.05 C2830.59 858.17, 3088.66 561.29, 3287.63 332.41 M2593.78 1154.98 C2793.47 925.27, 2993.15 695.55, 3287.24 357.25 M2593.78 1154.98 C2771.44 950.61, 2949.09 746.24, 3287.24 357.25 M2615.04 1154.91 C2827.98 909.95, 3040.93 664.99, 3287.5 381.33 M2615.04 1154.91 C2794.74 948.19, 2974.45 741.46, 3287.5 381.33 M2636.3 1154.84 C2863.11 893.93, 3089.91 633.02, 3287.77 405.41 M2636.3 1154.84 C2878.88 875.79, 3121.45 596.74, 3287.77 405.41 M2657.56 1154.77 C2871.52 908.64, 3085.48 662.51, 3287.38 430.25 M2657.56 1154.77 C2835.98 949.52, 3014.4 744.27, 3287.38 430.25 M2678.82 1154.7 C2819.4 992.98, 2959.98 831.26, 3287.64 454.33 M2678.82 1154.7 C2900.39 899.82, 3121.96 644.94, 3287.64 454.33 M2700.08 1154.63 C2890.75 935.29, 3081.42 715.95, 3287.26 479.17 M2700.08 1154.63 C2905.03 918.86, 3109.99 683.09, 3287.26 479.17 M2721.34 1154.57 C2873.59 979.42, 3025.84 804.28, 3287.52 503.25 M2721.34 1154.57 C2870.3 983.21, 3019.25 811.86, 3287.52 503.25 M2742.6 1154.5 C2871.9 1005.75, 3001.2 857.01, 3287.79 527.33 M2742.6 1154.5 C2927.35 941.96, 3112.11 729.43, 3287.79 527.33 M2763.86 1154.43 C2926.39 967.46, 3088.92 780.5, 3287.4 552.17 M2763.86 1154.43 C2939.98 951.83, 3116.09 749.23, 3287.4 552.17 M2784.47 1155.11 C2914.36 1005.68, 3044.26 856.25, 3287.66 576.25 M2784.47 1155.11 C2916.06 1003.73, 3047.66 852.35, 3287.66 576.25 M2805.73 1155.04 C2959.54 978.1, 3113.36 801.15, 3287.27 601.09 M2805.73 1155.04 C2942.86 997.29, 3079.99 839.54, 3287.27 601.09 M2826.99 1154.97 C3004.02 951.32, 3181.05 747.67, 3287.54 625.17 M2826.99 1154.97 C2946.77 1017.18, 3066.55 879.39, 3287.54 625.17 M2848.25 1154.91 C3013.25 965.09, 3178.26 775.27, 3287.81 649.25 M2848.25 1154.91 C2955.29 1031.77, 3062.33 908.63, 3287.81 649.25 M2869.51 1154.84 C2964.9 1045.11, 3060.28 935.38, 3287.42 674.09 M2869.51 1154.84 C2958.13 1052.89, 3046.75 950.95, 3287.42 674.09 M2890.77 1154.77 C2999.33 1029.88, 3107.89 905, 3287.68 698.17 M2890.77 1154.77 C3042.51 980.2, 3194.26 805.64, 3287.68 698.17 M2912.03 1154.7 C2993.73 1060.72, 3075.43 966.73, 3287.29 723.01 M2912.03 1154.7 C3035.61 1012.54, 3159.19 870.38, 3287.29 723.01 M2933.29 1154.63 C3048.28 1022.35, 3163.27 890.07, 3287.56 747.09 M2933.29 1154.63 C3041.42 1030.24, 3149.54 905.86, 3287.56 747.09 M2954.55 1154.56 C3086.39 1002.9, 3218.23 851.23, 3287.17 771.92 M2954.55 1154.56 C3073.66 1017.54, 3192.76 880.53, 3287.17 771.92 M2975.81 1154.49 C3086.44 1027.22, 3197.07 899.96, 3287.44 796 M2975.81 1154.49 C3053.92 1064.64, 3132.02 974.79, 3287.44 796 M2997.07 1154.42 C3062.01 1079.71, 3126.96 1005, 3287.7 820.09 M2997.07 1154.42 C3107.22 1027.71, 3217.37 901, 3287.7 820.09 M3017.67 1155.11 C3100.41 1059.93, 3183.15 964.75, 3287.31 844.92 M3017.67 1155.11 C3096.25 1064.72, 3174.82 974.33, 3287.31 844.92 M3038.93 1155.04 C3131.88 1048.11, 3224.84 941.18, 3287.58 869 M3038.93 1155.04 C3090.41 1095.82, 3141.89 1036.6, 3287.58 869 M3060.19 1154.97 C3114.16 1092.89, 3168.13 1030.8, 3287.19 893.84 M3060.19 1154.97 C3136.16 1067.58, 3212.14 980.18, 3287.19 893.84 M3081.45 1154.9 C3151.07 1074.81, 3220.69 994.72, 3287.46 917.92 M3081.45 1154.9 C3162.11 1062.11, 3242.78 969.32, 3287.46 917.92 M3102.71 1154.83 C3162.1 1086.51, 3221.49 1018.19, 3287.72 942 M3102.71 1154.83 C3162.29 1086.3, 3221.87 1017.76, 3287.72 942 M3123.97 1154.76 C3160.23 1113.05, 3196.49 1071.34, 3287.33 966.84 M3123.97 1154.76 C3159.31 1114.11, 3194.65 1073.46, 3287.33 966.84 M3145.23 1154.69 C3180.19 1114.48, 3215.15 1074.27, 3287.6 990.92 M3145.23 1154.69 C3177.88 1117.13, 3210.54 1079.57, 3287.6 990.92 M3166.49 1154.63 C3208.45 1106.36, 3250.4 1058.1, 3287.21 1015.76 M3166.49 1154.63 C3202.64 1113.05, 3238.78 1071.47, 3287.21 1015.76 M3187.75 1154.56 C3209.29 1129.79, 3230.82 1105.02, 3287.48 1039.84 M3187.75 1154.56 C3214.38 1123.93, 3241 1093.31, 3287.48 1039.84 M3209.01 1154.49 C3228.86 1131.66, 3248.71 1108.83, 3287.74 1063.92 M3209.01 1154.49 C3239.98 1118.86, 3270.95 1083.24, 3287.74 1063.92 M3230.27 1154.42 C3250.38 1131.29, 3270.49 1108.16, 3287.35 1088.76 M3230.27 1154.42 C3246.23 1136.06, 3262.19 1117.71, 3287.35 1088.76 M3250.88 1155.1 C3261.48 1142.91, 3272.08 1130.71, 3287.62 1112.84 M3250.88 1155.1 C3265.02 1138.83, 3279.17 1122.56, 3287.62 1112.84" stroke="#ffffff" stroke-width="2" fill="none"></path><path d="M32 0 C1230.13 0, 2428.26 0, 3255.15 0 M32 0 C955.19 0, 1878.39 0, 3255.15 0 M3255.15 0 C3276.49 0, 3287.15 10.67, 3287.15 32 M3255.15 0 C3276.49 0, 3287.15 10.67, 3287.15 32 M3287.15 32 C3287.15 255.94, 3287.15 479.88, 3287.15 1122.16 M3287.15 32 C3287.15 280.33, 3287.15 528.67, 3287.15 1122.16 M3287.15 1122.16 C3287.15 1143.49, 3276.49 1154.16, 3255.15 1154.16 M3287.15 1122.16 C3287.15 1143.49, 3276.49 1154.16, 3255.15 1154.16 M3255.15 1154.16 C2388.17 1154.16, 1521.2 1154.16, 32 1154.16 M3255.15 1154.16 C2205.12 1154.16, 1155.08 1154.16, 32 1154.16 M32 1154.16 C10.67 1154.16, 0 1143.49, 0 1122.16 M32 1154.16 C10.67 1154.16, 0 1143.49, 0 1122.16 M0 1122.16 C0 898.25, 0 674.34, 0 32 M0 1122.16 C0 762.96, 0 403.76, 0 32 M0 32 C0 10.67, 10.67 0, 32 0 M0 32 C0 10.67, 10.67 0, 32 0" stroke="#9c36b5" stroke-width="4" fill="none"></path></g><g stroke-linecap="round" transform="translate(1956.9807237903474 204.88904464617877) rotate(0 604.56839616308 397.51850358020283)"><path d="M7.86 8.16 C7.86 8.16, 7.86 8.16, 7.86 8.16 M7.86 8.16 C7.86 8.16, 7.86 8.16, 7.86 8.16 M6.68 21.71 C10.54 15.23, 15.03 11.88, 21.12 5.11 M6.68 21.71 C12.08 16.31, 15.31 10.59, 21.12 5.11 M4.85 36.01 C13.66 26.02, 17.59 19.18, 34.37 2.05 M4.85 36.01 C16.55 22.18, 27.02 9.64, 34.37 2.05 M4.98 48.06 C19.94 34.82, 32.03 18.24, 45 2.02 M4.98 48.06 C12.32 38.19, 20.3 28.66, 45 2.02 M4.46 60.85 C22.77 40.49, 40.39 18.09, 55.63 1.98 M4.46 60.85 C16.45 47.82, 27.48 33.54, 55.63 1.98 M4.59 72.89 C19.04 55.78, 33.46 39.26, 66.26 1.95 M4.59 72.89 C24.31 50.8, 42.54 29.45, 66.26 1.95 M4.72 84.93 C28.56 56.97, 53.73 30.47, 76.89 1.91 M4.72 84.93 C25.15 60.37, 45.66 36.2, 76.89 1.91 M4.86 96.97 C23.31 76.6, 39.96 53.62, 87.52 1.88 M4.86 96.97 C24.36 74.45, 43.99 53.12, 87.52 1.88 M4.99 109.01 C41.66 67.07, 77.96 22.45, 98.15 1.85 M4.99 109.01 C30.48 79.41, 56.53 48.62, 98.15 1.85 M4.47 121.81 C38.16 83.28, 70.04 47.26, 108.78 1.81 M4.47 121.81 C45 73.36, 86.02 27.02, 108.78 1.81 M4.6 133.85 C37.86 98.2, 64.39 64.71, 119.41 1.78 M4.6 133.85 C32.03 100.48, 62.55 67.92, 119.41 1.78 M4.73 145.89 C39.51 104.79, 78.73 59.88, 130.04 1.74 M4.73 145.89 C34.35 113.97, 61.93 81.43, 130.04 1.74 M4.87 157.93 C36.55 122.78, 66.29 86.47, 140.67 1.71 M4.87 157.93 C32.29 124.07, 61.25 90.64, 140.67 1.71 M5 169.97 C41.95 132.14, 73.1 92.37, 150.65 2.43 M5 169.97 C35.96 132.69, 68.6 94.68, 150.65 2.43 M4.48 182.77 C36.83 144.22, 67.87 108.77, 161.28 2.39 M4.48 182.77 C45.28 134.34, 87.66 85.86, 161.28 2.39 M4.61 194.81 C61.21 128.42, 116.47 64.43, 171.91 2.36 M4.61 194.81 C54.36 138.79, 103.53 82.08, 171.91 2.36 M4.74 206.85 C60.56 141.32, 117.39 75.84, 182.54 2.32 M4.74 206.85 C53.91 147.43, 105.5 88.52, 182.54 2.32 M4.88 218.89 C64.69 150.85, 124.15 83.6, 193.17 2.29 M4.88 218.89 C78.35 132.92, 153.44 47.67, 193.17 2.29 M5.01 230.93 C69.98 157.52, 135.95 83.76, 203.8 2.26 M5.01 230.93 C58.38 170.38, 111.58 110.22, 203.8 2.26 M4.49 243.73 C87.38 147.67, 172.85 52.36, 214.43 2.22 M4.49 243.73 C71.92 166.52, 138 89.75, 214.43 2.22 M4.62 255.77 C89.13 156.9, 172.6 60.29, 225.06 2.19 M4.62 255.77 C75.23 173.6, 146.03 91.67, 225.06 2.19 M4.75 267.81 C80.87 179.64, 155.89 91.4, 235.69 2.15 M4.75 267.81 C68.28 196.28, 129.69 123.71, 235.69 2.15 M4.89 279.85 C70.36 205.64, 134.86 131.57, 246.32 2.12 M4.89 279.85 C81.46 190.62, 159.23 100.72, 246.32 2.12 M5.02 291.89 C97.92 182.55, 194.11 72.35, 256.95 2.08 M5.02 291.89 C82.75 202.37, 161.02 112.82, 256.95 2.08 M4.5 304.69 C101.81 189.37, 202.37 76.21, 267.58 2.05 M4.5 304.69 C73.31 225.74, 141.74 145.8, 267.58 2.05 M4.63 316.73 C89.55 217.84, 176.38 120.2, 278.21 2.01 M4.63 316.73 C92.79 214.43, 181.73 111.23, 278.21 2.01 M4.76 328.77 C96.99 224.54, 187.18 121.42, 288.84 1.98 M4.76 328.77 C82.5 238.29, 160.77 148.4, 288.84 1.98 M4.9 340.81 C69.2 264.45, 136.85 187.56, 299.47 1.94 M4.9 340.81 C74.65 258.05, 146.8 175.69, 299.47 1.94 M5.03 352.85 C101.26 241.66, 198.48 131, 310.1 1.91 M5.03 352.85 C73.14 273.03, 141.44 193.91, 310.1 1.91 M4.51 365.65 C106.85 247.07, 210.24 126.62, 320.73 1.88 M4.51 365.65 C72.55 287.33, 139.63 209.74, 320.73 1.88 M4.64 377.69 C73.68 297.39, 143.2 216.57, 331.36 1.84 M4.64 377.69 C106.99 260.51, 207.16 144.55, 331.36 1.84 M4.77 389.73 C118.13 259.8, 232.85 127.47, 341.99 1.81 M4.77 389.73 C82.55 300.09, 161.42 209.28, 341.99 1.81 M4.91 401.77 C96.14 296.54, 188.25 193.22, 352.62 1.77 M4.91 401.77 C97.12 298.08, 188.06 193.35, 352.62 1.77 M5.04 413.81 C111.78 291.54, 219.87 167.05, 363.25 1.74 M5.04 413.81 C122.01 279.31, 238.92 144.55, 363.25 1.74 M4.52 426.6 C127.31 282.33, 250.41 141.32, 373.88 1.7 M4.52 426.6 C133.96 275.9, 264.17 126.75, 373.88 1.7 M4.65 438.65 C144.9 279.62, 284.37 117.88, 383.85 2.42 M4.65 438.65 C139.42 283.32, 274.79 128.11, 383.85 2.42 M4.78 450.69 C129.88 305.18, 255.14 160.76, 394.48 2.39 M4.78 450.69 C153.42 278.66, 303.03 106.91, 394.48 2.39 M4.92 462.73 C90.5 368.22, 173.73 271.24, 405.11 2.35 M4.92 462.73 C91.04 364.34, 176.98 266.12, 405.11 2.35 M5.05 474.77 C139.24 322.58, 272.25 170.01, 415.74 2.32 M5.05 474.77 C125.01 338.8, 243.72 201.32, 415.74 2.32 M4.53 487.56 C93.76 385.4, 182.11 283.28, 426.37 2.29 M4.53 487.56 C101.8 375.95, 197.64 264.45, 426.37 2.29 M4.66 499.6 C115.25 370.78, 228.35 241.49, 437 2.25 M4.66 499.6 C153.46 329.32, 301.73 158.54, 437 2.25 M4.79 511.65 C125.55 371.09, 248.02 230.78, 447.63 2.22 M4.79 511.65 C164.66 324.65, 326.09 139.27, 447.63 2.22 M4.93 523.69 C126.06 384.38, 244.82 247.51, 458.26 2.18 M4.93 523.69 C162.99 338.97, 322.34 155.22, 458.26 2.18 M5.06 535.73 C107.24 419.77, 207.76 304.82, 468.89 2.15 M5.06 535.73 C106.71 416.71, 209.08 298.79, 468.89 2.15 M4.54 548.52 C141.65 391.28, 276.74 236.36, 479.52 2.11 M4.54 548.52 C123.98 411.85, 244.73 273.24, 479.52 2.11 M4.67 560.56 C185.87 355.92, 365.23 149.3, 490.15 2.08 M4.67 560.56 C113.79 435.72, 224.05 308.8, 490.15 2.08 M4.8 572.6 C151.52 405.97, 295.82 240.55, 500.78 2.04 M4.8 572.6 C165.43 387.33, 325.41 202.17, 500.78 2.04 M4.93 584.65 C197.62 360.64, 392.09 137.23, 511.41 2.01 M4.93 584.65 C134.65 438.73, 262.33 292.06, 511.41 2.01 M5.07 596.69 C141.88 439.94, 278.64 283.82, 522.04 1.98 M5.07 596.69 C196.35 377.7, 387.53 158.52, 522.04 1.98 M4.54 609.48 C123.28 475.68, 239.75 341.72, 532.67 1.94 M4.54 609.48 C215.25 370.11, 424.26 129.83, 532.67 1.94 M4.68 621.52 C216.72 377.31, 430.01 131.62, 543.3 1.91 M4.68 621.52 C185.82 413.19, 366.13 205.22, 543.3 1.91 M4.81 633.56 C202.23 403.97, 401.45 176.59, 553.93 1.87 M4.81 633.56 C219.76 383.59, 435.02 135.88, 553.93 1.87 M4.94 645.6 C174.79 452.99, 344.15 258.75, 564.56 1.84 M4.94 645.6 C170.55 452.94, 337.15 260.83, 564.56 1.84 M4.42 658.4 C118.33 527.41, 233.86 396.02, 575.19 1.8 M4.42 658.4 C126.11 515.25, 248.38 374.7, 575.19 1.8 M4.55 670.44 C126.15 530.53, 248.13 390.16, 585.82 1.77 M4.55 670.44 C161.83 488.23, 318.4 307.71, 585.82 1.77 M4.69 682.48 C149.95 512.16, 297.03 343.02, 596.45 1.73 M4.69 682.48 C158.83 502.25, 314.8 322.83, 596.45 1.73 M4.82 694.52 C222.14 443.44, 442.35 190.84, 607.08 1.7 M4.82 694.52 C245.42 422.09, 483.76 147.03, 607.08 1.7 M4.95 706.56 C210.28 471.83, 413.94 237.99, 617.06 2.42 M4.95 706.56 C238 440.82, 470.91 172.96, 617.06 2.42 M4.43 719.36 C141.97 559.09, 281.59 398.72, 627.69 2.38 M4.43 719.36 C231.44 462.73, 455.27 204.59, 627.69 2.38 M4.56 731.4 C251.77 446.4, 500.55 160.28, 638.32 2.35 M4.56 731.4 C155.09 562.54, 304.18 391.41, 638.32 2.35 M4.7 743.44 C171.38 550.41, 339.89 357.85, 648.95 2.32 M4.7 743.44 C243.23 465.77, 484.26 189.04, 648.95 2.32 M4.83 755.48 C191.96 539.67, 382.14 321.3, 659.58 2.28 M4.83 755.48 C226.13 504.1, 445.92 251.74, 659.58 2.28 M4.96 767.52 C251.19 484.32, 496.66 201.98, 670.21 2.25 M4.96 767.52 C261.9 470.96, 520 174.47, 670.21 2.25 M5.1 779.56 C269.02 475.12, 536.32 168.09, 680.84 2.21 M5.1 779.56 C153.56 602.33, 305.4 428.48, 680.84 2.21 M9.17 787.08 C179.51 587.34, 351.11 387.35, 691.47 2.18 M9.17 787.08 C204.52 562.89, 399.25 339.03, 691.47 2.18 M15.2 792.32 C288.66 478.17, 562.64 162.81, 702.1 2.14 M15.2 792.32 C204.69 572.1, 395.35 353.6, 702.1 2.14 M23.21 795.31 C185.22 610.49, 346.16 423.26, 712.73 2.11 M23.21 795.31 C218.65 570.18, 415.88 343.51, 712.73 2.11 M33.18 796.03 C243.83 555.52, 453.22 313.96, 723.36 2.07 M33.18 796.03 C242.64 556.31, 452.09 315.24, 723.36 2.07 M43.81 795.99 C220.85 596.37, 394.15 396.22, 733.99 2.04 M43.81 795.99 C278.5 526.12, 513.8 255.38, 733.99 2.04 M54.44 795.96 C209.97 616.39, 368 432.95, 744.62 2.01 M54.44 795.96 C297.2 519.89, 537.99 242.96, 744.62 2.01 M65.07 795.93 C241.55 588.58, 419.44 384.67, 755.25 1.97 M65.07 795.93 C298.21 528.61, 530.95 261.33, 755.25 1.97 M75.7 795.89 C226.61 623.82, 374.67 453.31, 765.88 1.94 M75.7 795.89 C279.66 561.72, 480.97 330.11, 765.88 1.94 M86.33 795.86 C237.77 623.49, 388.75 448.12, 776.51 1.9 M86.33 795.86 C289.94 562.63, 494.19 327.33, 776.51 1.9 M96.96 795.82 C241.26 628.14, 385.37 462.01, 787.14 1.87 M96.96 795.82 C264.98 602.45, 435.5 406.36, 787.14 1.87 M107.59 795.79 C331.78 541.21, 554.86 284.51, 797.77 1.83 M107.59 795.79 C363.82 500.73, 621.25 204.85, 797.77 1.83 M118.22 795.75 C313.77 574.13, 508.38 351.02, 808.4 1.8 M118.22 795.75 C368.86 509.78, 616.93 224.73, 808.4 1.8 M128.85 795.72 C382.14 505.39, 635.95 214.78, 819.03 1.76 M128.85 795.72 C307.77 592.62, 486.71 387.84, 819.03 1.76 M139.48 795.68 C281.49 628.94, 427.63 461.29, 829.66 1.73 M139.48 795.68 C286.86 626.13, 434.43 456.06, 829.66 1.73 M149.46 796.4 C400.54 502.64, 654.8 210.65, 840.29 1.69 M149.46 796.4 C411.35 497.92, 671.89 197.97, 840.29 1.69 M160.09 796.37 C366.33 559.39, 573.06 323.26, 850.26 2.42 M160.09 796.37 C317.85 615.99, 474.42 436.01, 850.26 2.42 M170.72 796.34 C416.81 515.61, 661.36 234.12, 860.89 2.38 M170.72 796.34 C365.24 571.41, 562.81 344.11, 860.89 2.38 M181.35 796.3 C426.91 511.23, 673 226.84, 871.52 2.35 M181.35 796.3 C349.64 598.16, 520.63 401.6, 871.52 2.35 M191.98 796.27 C451.91 499.43, 711.31 200.04, 882.15 2.31 M191.98 796.27 C385.52 574.72, 578.78 351.98, 882.15 2.31 M202.61 796.23 C419.44 541.86, 638.82 290.61, 892.78 2.28 M202.61 796.23 C452.44 509.55, 702.15 222.31, 892.78 2.28 M213.24 796.2 C418.34 560.02, 621.27 325.53, 903.41 2.24 M213.24 796.2 C478.35 490.57, 745.32 184.06, 903.41 2.24 M223.87 796.16 C379.85 621.41, 532.56 445.29, 914.04 2.21 M223.87 796.16 C426.04 562.8, 626.54 332.42, 914.04 2.21 M234.5 796.13 C502.91 488.87, 771.67 180.6, 924.67 2.17 M234.5 796.13 C487.43 506.39, 740.41 215.3, 924.67 2.17 M245.13 796.09 C405.51 607.35, 567.96 419.52, 935.3 2.14 M245.13 796.09 C513.21 489.32, 780.13 182.51, 935.3 2.14 M255.76 796.06 C498.66 521.07, 738.64 243.65, 945.93 2.1 M255.76 796.06 C476.87 542.08, 695.17 290.5, 945.93 2.1 M266.39 796.02 C426.92 613.37, 586.76 429.54, 956.56 2.07 M266.39 796.02 C430.25 608.25, 594.78 419.18, 956.56 2.07 M277.02 795.99 C477.45 570.41, 676.01 342.59, 967.19 2.04 M277.02 795.99 C461.48 585.82, 645.79 372.81, 967.19 2.04 M287.65 795.96 C428.15 635.08, 568.11 472.94, 977.82 2 M287.65 795.96 C471.26 579.83, 657.22 365.66, 977.82 2 M298.28 795.92 C523.57 536.84, 750.39 276.68, 988.45 1.97 M298.28 795.92 C566.26 489.48, 831.73 184.37, 988.45 1.97 M308.91 795.89 C483.37 589.32, 661.84 385.49, 999.08 1.93 M308.91 795.89 C542.7 529.49, 775.77 261.46, 999.08 1.93 M319.54 795.85 C467.06 629.51, 612.86 461.94, 1009.71 1.9 M319.54 795.85 C569.37 504.22, 821.51 213.52, 1009.71 1.9 M330.17 795.82 C482.34 625.57, 631.54 452.61, 1020.34 1.86 M330.17 795.82 C560.85 531.31, 790.27 267.03, 1020.34 1.86 M340.8 795.78 C545.37 562.54, 749.21 329.82, 1030.97 1.83 M340.8 795.78 C510.7 599.44, 680.51 404.16, 1030.97 1.83 M351.43 795.75 C504.86 620.26, 659.03 443.29, 1041.6 1.79 M351.43 795.75 C615.2 494.91, 877.54 192.72, 1041.6 1.79 M362.06 795.71 C598.98 523.58, 837.74 248.43, 1052.23 1.76 M362.06 795.71 C635.47 482.68, 906.63 170.04, 1052.23 1.76 M372.69 795.68 C600.29 531.53, 827.06 271.2, 1062.86 1.73 M372.69 795.68 C541.67 603.29, 709.68 410.5, 1062.86 1.73 M382.66 796.4 C630.98 515.47, 877.2 232.03, 1073.49 1.69 M382.66 796.4 C594.94 550.36, 809.38 303.62, 1073.49 1.69 M393.29 796.37 C604.31 554.02, 814.07 311.48, 1083.47 2.41 M393.29 796.37 C609.74 547.12, 826.61 297.55, 1083.47 2.41 M403.92 796.33 C632.47 535.44, 858.63 275.52, 1094.1 2.38 M403.92 796.33 C564.23 609.38, 725.38 423.74, 1094.1 2.38 M414.56 796.3 C576.39 608.63, 739.29 422.16, 1104.73 2.34 M414.56 796.3 C569.97 619.08, 723.66 442.18, 1104.73 2.34 M425.19 796.26 C617.46 573.72, 808.91 353.59, 1115.36 2.31 M425.19 796.26 C655.68 529.44, 886.37 263.9, 1115.36 2.31 M435.82 796.23 C657.76 541.45, 881.15 284.27, 1125.99 2.27 M435.82 796.23 C594.03 612.44, 754.75 427.58, 1125.99 2.27 M446.45 796.19 C613.59 606.28, 780.85 414.55, 1136.62 2.24 M446.45 796.19 C668.03 544.17, 887.15 291.8, 1136.62 2.24 M457.08 796.16 C656.79 570.24, 853.26 343.85, 1147.25 2.2 M457.08 796.16 C622.93 606.41, 789.55 415.16, 1147.25 2.2 M467.71 796.12 C651.55 581.43, 838.92 367.15, 1157.88 2.17 M467.71 796.12 C623.03 620.29, 778.47 441.26, 1157.88 2.17 M478.34 796.09 C725.76 511.74, 971.46 230.94, 1168.51 2.14 M478.34 796.09 C743.09 491.35, 1006.17 189.44, 1168.51 2.14 M488.97 796.06 C644.31 614.47, 800.19 434.35, 1179.14 2.1 M488.97 796.06 C648.62 615.79, 807.24 434.33, 1179.14 2.1 M499.6 796.02 C692.61 576.86, 885.35 355.57, 1188.46 3.58 M499.6 796.02 C653.04 623.93, 802.87 451.04, 1188.46 3.58 M510.23 795.99 C782.66 484.92, 1052.59 173.71, 1197.78 5.05 M510.23 795.99 C674.47 607.01, 839.32 417.02, 1197.78 5.05 M520.86 795.95 C742.39 542.02, 962.06 289.11, 1203.16 11.05 M520.86 795.95 C765.48 515.85, 1006.41 238.23, 1203.16 11.05 M531.49 795.92 C708.45 586.22, 890.05 378.34, 1207.23 18.57 M531.49 795.92 C733.05 562.87, 936.32 330.1, 1207.23 18.57 M542.12 795.88 C715.8 594.22, 892.59 392.12, 1208.67 29.1 M542.12 795.88 C690.09 625.01, 838.98 453.39, 1208.67 29.1 M552.75 795.85 C792.87 521.08, 1029.76 248.3, 1213.4 35.86 M552.75 795.85 C808.77 502.35, 1064.23 208.06, 1213.4 35.86 M563.38 795.81 C825.46 495.32, 1085.28 196.94, 1213.53 47.9 M563.38 795.81 C753.09 572.28, 945.66 350.68, 1213.53 47.9 M574.01 795.78 C703.51 650.66, 832.94 502.6, 1213.66 59.94 M574.01 795.78 C711.86 639.32, 847.39 483.19, 1213.66 59.94 M584.64 795.74 C797.33 547.6, 1012.34 302.57, 1213.8 71.98 M584.64 795.74 C758.14 595.47, 932.33 395.89, 1213.8 71.98 M595.27 795.71 C801.24 560.31, 1005.42 324.69, 1213.27 84.77 M595.27 795.71 C733.77 634.72, 872.02 476.11, 1213.27 84.77 M605.9 795.68 C736.28 649.77, 863.86 501.91, 1213.41 96.81 M605.9 795.68 C788.44 585.5, 971.82 373.69, 1213.41 96.81 M615.87 796.4 C804.93 580.45, 991.53 365.98, 1213.54 108.86 M615.87 796.4 C856.52 522.77, 1095.17 248.16, 1213.54 108.86 M626.5 796.36 C774.18 625.57, 923.96 453.36, 1213.67 120.9 M626.5 796.36 C831.5 559.53, 1035.83 324.16, 1213.67 120.9 M637.13 796.33 C820.45 588.25, 1004.33 377.79, 1213.15 133.69 M637.13 796.33 C786.43 627.76, 933.85 457.72, 1213.15 133.69 M647.76 796.29 C774.73 649.93, 904.23 500.9, 1213.28 145.73 M647.76 796.29 C770.51 652, 894.46 509.42, 1213.28 145.73 M658.39 796.26 C848.67 579.65, 1037.02 362.49, 1213.42 157.77 M658.39 796.26 C790.94 640.59, 925.23 484.85, 1213.42 157.77 M669.02 796.22 C780.58 667.17, 894.27 537.8, 1213.55 169.81 M669.02 796.22 C861.56 573.59, 1056.68 348.83, 1213.55 169.81 M679.65 796.19 C884.23 563.83, 1087.28 330.07, 1213.68 181.86 M679.65 796.19 C865.14 585.28, 1047.9 374.54, 1213.68 181.86 M690.28 796.15 C885.7 569.09, 1084.46 340.85, 1213.16 194.65 M690.28 796.15 C817.33 651.24, 942.42 507.07, 1213.16 194.65 M700.91 796.12 C837.25 640.6, 974.01 483.37, 1213.29 206.69 M700.91 796.12 C843.14 635.99, 984.21 473.45, 1213.29 206.69 M711.54 796.09 C836.91 651.49, 960.02 509.25, 1213.43 218.73 M711.54 796.09 C897.98 579.67, 1087.07 362.08, 1213.43 218.73 M722.17 796.05 C834.69 666.91, 949 534.83, 1213.56 230.77 M722.17 796.05 C866.5 631.06, 1009.94 466.47, 1213.56 230.77 M732.8 796.02 C843.84 665.71, 956.13 536.56, 1213.69 242.81 M732.8 796.02 C880.88 622.76, 1030.05 451.36, 1213.69 242.81 M743.43 795.98 C900.42 616.31, 1057.22 436.53, 1213.17 255.61 M743.43 795.98 C919.35 590.97, 1097.48 385.52, 1213.17 255.61 M754.06 795.95 C877.27 653.83, 1002.21 509.57, 1213.3 267.65 M754.06 795.95 C854.27 678.11, 956.12 560.43, 1213.3 267.65 M764.69 795.91 C870.57 676.73, 975.76 555.27, 1213.44 279.69 M764.69 795.91 C881.82 660.39, 997.58 526.78, 1213.44 279.69 M775.32 795.88 C868.75 686.58, 963 577.1, 1213.57 291.73 M775.32 795.88 C918.38 633.09, 1061.23 470.08, 1213.57 291.73 M785.95 795.84 C878.48 686.3, 973.59 577.57, 1213.7 303.77 M785.95 795.84 C952.17 606.06, 1118.12 415.64, 1213.7 303.77 M796.58 795.81 C893.93 683.83, 990.11 572.73, 1213.18 316.57 M796.58 795.81 C908.87 668.58, 1019.32 540.8, 1213.18 316.57 M807.21 795.77 C968.01 611.54, 1128.87 426.65, 1213.31 328.61 M807.21 795.77 C952.05 629.27, 1095.52 464.75, 1213.31 328.61 M817.84 795.74 C897.16 704.84, 978.55 612.06, 1213.45 340.65 M817.84 795.74 C946.19 646.55, 1076.73 497.75, 1213.45 340.65 M828.47 795.71 C933.65 674.72, 1038.21 553.41, 1213.58 352.69 M828.47 795.71 C936.01 669.83, 1044.05 544.91, 1213.58 352.69 M838.45 796.43 C960.35 655.63, 1081.62 514.31, 1213.71 364.73 M838.45 796.43 C923.74 698.84, 1009.04 600.06, 1213.71 364.73 M849.08 796.39 C987.38 636.72, 1124.97 478.07, 1213.19 377.53 M849.08 796.39 C933.1 699.43, 1016.88 602.81, 1213.19 377.53 M859.71 796.36 C971.72 668.63, 1083.87 539.76, 1213.32 389.57 M859.71 796.36 C970.44 668.2, 1081.85 540.34, 1213.32 389.57 M870.34 796.32 C963.33 689.73, 1054.88 584.62, 1213.46 401.61 M870.34 796.32 C1004.37 639.31, 1140.22 484.31, 1213.46 401.61 M880.97 796.29 C947.29 720.12, 1014.35 641.78, 1213.59 413.65 M880.97 796.29 C1008.09 652.43, 1133.35 507.93, 1213.59 413.65 M891.6 796.25 C988.12 684.86, 1084.53 573.95, 1213.72 425.69 M891.6 796.25 C987.04 686.4, 1082.98 575, 1213.72 425.69 M902.23 796.22 C1006.39 677.04, 1109.04 559.48, 1213.2 438.49 M902.23 796.22 C973.46 713.07, 1045.95 629.72, 1213.2 438.49 M912.86 796.18 C988.09 711.03, 1062.86 624.75, 1213.33 450.53 M912.86 796.18 C975.58 724.02, 1038.11 652.31, 1213.33 450.53 M923.49 796.15 C1028.36 675.78, 1132.88 554.96, 1213.47 462.57 M923.49 796.15 C1019.7 685.22, 1116.24 573.25, 1213.47 462.57 M934.12 796.12 C1020.47 697.97, 1107.63 596.53, 1213.6 474.61 M934.12 796.12 C1020.83 695.94, 1109.61 593.83, 1213.6 474.61 M944.75 796.08 C1016.05 714.13, 1088.03 629.37, 1213.73 486.65 M944.75 796.08 C1043.6 681.12, 1144.82 565.24, 1213.73 486.65 M955.38 796.05 C1032.04 707.24, 1109.01 619.57, 1213.21 499.45 M955.38 796.05 C1048.71 689.3, 1139.83 583.82, 1213.21 499.45 M966.01 796.01 C1049.95 697.02, 1135.53 596.59, 1213.34 511.49 M966.01 796.01 C1032.7 719.9, 1099.84 642.78, 1213.34 511.49 M976.64 795.98 C1030.99 732.38, 1085.45 670.32, 1213.47 523.53 M976.64 795.98 C1069.5 689.77, 1161.21 584.37, 1213.47 523.53 M987.27 795.94 C1032.17 743.16, 1077.91 689.3, 1213.61 535.57 M987.27 795.94 C1072.8 694.55, 1158.76 596.27, 1213.61 535.57 M997.9 795.91 C1073.37 706.49, 1148.14 619.54, 1213.74 547.61 M997.9 795.91 C1043.77 742.43, 1091.7 687.81, 1213.74 547.61 M1008.53 795.87 C1082.64 710.26, 1157.07 624.12, 1213.22 560.4 M1008.53 795.87 C1069.88 724.84, 1131.02 654.67, 1213.22 560.4 M1019.16 795.84 C1079.67 724.93, 1140.14 656.4, 1213.35 572.45 M1019.16 795.84 C1092.49 711.89, 1166 627.88, 1213.35 572.45 M1029.79 795.81 C1075.97 743.08, 1125.48 685.07, 1213.48 584.49 M1029.79 795.81 C1077.45 740.59, 1123.85 687.8, 1213.48 584.49 M1040.42 795.77 C1108.02 717.14, 1177.63 636.95, 1213.62 596.53 M1040.42 795.77 C1096.44 729.7, 1153.87 663.06, 1213.62 596.53 M1051.05 795.74 C1091.54 748.11, 1134.39 697.41, 1213.75 608.57 M1051.05 795.74 C1100.19 738.17, 1149.5 682.48, 1213.75 608.57 M1061.68 795.7 C1105.94 748.31, 1148.42 699.13, 1213.23 621.36 M1061.68 795.7 C1103.21 744.2, 1145.83 696.03, 1213.23 621.36 M1071.65 796.42 C1101.44 761.22, 1134.16 724.67, 1213.36 633.4 M1071.65 796.42 C1118.93 741.46, 1167.24 686.18, 1213.36 633.4 M1082.28 796.39 C1120.47 753.9, 1155.66 713.32, 1213.49 645.45 M1082.28 796.39 C1131.76 739.37, 1179.86 682.96, 1213.49 645.45 M1092.91 796.35 C1133.67 749.33, 1171.44 706.95, 1213.63 657.49 M1092.91 796.35 C1128.84 757.82, 1164.42 717.62, 1213.63 657.49 M1103.54 796.32 C1133.11 758.89, 1167.19 723.19, 1213.76 669.53 M1103.54 796.32 C1131.24 761.69, 1161.27 726.75, 1213.76 669.53 M1114.17 796.28 C1144.78 764.23, 1174 732.53, 1213.24 682.32 M1114.17 796.28 C1145.69 759.07, 1176.97 722.15, 1213.24 682.32 M1124.8 796.25 C1149.56 769.2, 1169.85 741.09, 1213.37 694.36 M1124.8 796.25 C1158.8 758.78, 1192.25 719.97, 1213.37 694.36 M1135.43 796.21 C1159.76 768.92, 1187.31 738.57, 1213.5 706.4 M1135.43 796.21 C1152.09 774.53, 1171.09 753.36, 1213.5 706.4 M1146.06 796.18 C1169.25 769.31, 1190.51 740.58, 1213.64 718.45 M1146.06 796.18 C1162.21 777.77, 1179.82 757.78, 1213.64 718.45 M1156.69 796.15 C1176.25 772.86, 1195.96 751.28, 1213.77 730.49 M1156.69 796.15 C1172.18 778.55, 1186.67 761.48, 1213.77 730.49 M1167.32 796.11 C1181.48 778.77, 1196.69 764.22, 1213.25 743.28 M1167.32 796.11 C1183.48 778.98, 1197.8 761.86, 1213.25 743.28 M1177.95 796.08 C1186.31 785.42, 1195.66 775.79, 1213.38 755.32 M1177.95 796.08 C1186.77 785.26, 1196.65 775.08, 1213.38 755.32 M1191.21 793.02 C1194.89 786.73, 1202.34 780.73, 1209.58 771.89 M1191.21 793.02 C1196.45 787.11, 1200.05 781.46, 1209.58 771.89" stroke="#eebefa" stroke-width="1" fill="none"></path><path d="M32 0 C463.09 -4.01, 893.4 -4.9, 1177.14 0 M32 0 C315.22 0.77, 597.58 1.15, 1177.14 0 M1177.14 0 C1197.52 -1.7, 1210.89 11.41, 1209.14 32 M1177.14 0 C1200.34 -0.03, 1210.76 9.22, 1209.14 32 M1209.14 32 C1211.59 178.25, 1211.2 325.17, 1209.14 763.04 M1209.14 32 C1211.17 323.51, 1211.3 614.98, 1209.14 763.04 M1209.14 763.04 C1210.08 785.43, 1197.49 793.81, 1177.14 795.04 M1209.14 763.04 C1209.99 783.86, 1199.69 797.33, 1177.14 795.04 M1177.14 795.04 C720.95 793.37, 263.95 793.59, 32 795.04 M1177.14 795.04 C762.09 792.77, 346.7 792.8, 32 795.04 M32 795.04 C11.93 796.99, -1.5 785.18, 0 763.04 M32 795.04 C11.15 796.34, -0.19 786.35, 0 763.04 M0 763.04 C-2.56 491, -1.83 217.99, 0 32 M0 763.04 C-0.88 568.52, -0.82 374.3, 0 32 M0 32 C-0.64 12.41, 11.9 1.51, 32 0 M0 32 C1.48 12.23, 10.43 0.81, 32 0" stroke="#9c36b5" stroke-width="2" fill="none"></path></g><g stroke-linecap="round" transform="translate(1129.007528447239 340.25975848079975) rotate(0 331.5546875 254.689453125)"><path d="M7.86 8.16 C7.86 8.16, 7.86 8.16, 7.86 8.16 M7.86 8.16 C7.86 8.16, 7.86 8.16, 7.86 8.16 M1.43 27.75 C6.39 21.34, 14.27 15.33, 24.4 1.33 M1.43 27.75 C8.57 19.97, 16.56 10.44, 24.4 1.33 M0.26 41.3 C7.25 31.05, 18.17 22.22, 36.34 -0.21 M0.26 41.3 C7.56 32.92, 16.13 23.25, 36.34 -0.21 M0.39 53.34 C19.37 31.14, 35.88 11.01, 46.97 -0.25 M0.39 53.34 C14 38.96, 26.28 23.89, 46.97 -0.25 M0.52 65.38 C13.85 50.95, 25.26 36.65, 57.6 -0.28 M0.52 65.38 C23.35 39.55, 45.9 14.54, 57.6 -0.28 M0 78.17 C25.72 48.87, 52.59 19.45, 67.57 0.44 M0 78.17 C16.93 59.82, 31.87 41.08, 67.57 0.44 M0.13 90.22 C30.13 56.66, 61.4 19.91, 78.2 0.41 M0.13 90.22 C15.16 70.21, 31.3 51.97, 78.2 0.41 M0.26 102.26 C35.37 61.25, 70.93 23.28, 88.83 0.37 M0.26 102.26 C19.93 77.85, 41.11 54.86, 88.83 0.37 M0.4 114.3 C37.36 72.61, 75.49 30.15, 99.46 0.34 M0.4 114.3 C35.29 75.29, 69.3 35.64, 99.46 0.34 M0.53 126.34 C26.5 97.5, 54.28 66.86, 110.09 0.3 M0.53 126.34 C31.74 90.28, 63.12 52.57, 110.09 0.3 M0.01 139.13 C41.37 91.2, 79.79 45.71, 120.72 0.27 M0.01 139.13 C29.64 105.09, 58.01 72.3, 120.72 0.27 M0.14 151.17 C47.43 97.51, 97.66 41.41, 131.35 0.23 M0.14 151.17 C34.44 113.08, 66.14 75.76, 131.35 0.23 M0.27 163.22 C48.88 107.96, 100.65 50.18, 141.98 0.2 M0.27 163.22 C56.5 99.15, 112.69 34.94, 141.98 0.2 M0.41 175.26 C40.48 127.97, 83.35 80.41, 152.61 0.16 M0.41 175.26 C55.84 109.4, 114.32 44.79, 152.61 0.16 M0.54 187.3 C42.85 139.51, 85.12 89.96, 163.24 0.13 M0.54 187.3 C44.14 136.56, 88.53 86.03, 163.24 0.13 M0.02 200.09 C46.44 147.87, 92.02 91.61, 173.87 0.09 M0.02 200.09 C62.05 128.78, 122.31 60.01, 173.87 0.09 M0.15 212.13 C42.78 165.3, 83.81 118.23, 184.5 0.06 M0.15 212.13 C41.63 165.39, 83.83 118.08, 184.5 0.06 M0.28 224.17 C62.6 153.09, 123.87 82.49, 195.13 0.03 M0.28 224.17 C50.08 166.06, 101.2 107.29, 195.13 0.03 M0.42 236.22 C71.17 156.75, 138.04 78.86, 205.76 -0.01 M0.42 236.22 C68.78 158.02, 138.56 78.23, 205.76 -0.01 M-0.11 249.01 C82.98 150.31, 168.84 54.79, 216.39 -0.04 M-0.11 249.01 C47.64 194.68, 97.25 137.74, 216.39 -0.04 M0.03 261.05 C52.77 204.51, 102.33 145.26, 227.02 -0.08 M0.03 261.05 C89.85 158.45, 179.24 54.85, 227.02 -0.08 M0.16 273.09 C74.24 186.07, 153.33 97.19, 237.65 -0.11 M0.16 273.09 C86.24 173.77, 172.55 74.45, 237.65 -0.11 M0.29 285.13 C63.61 213.32, 125.33 139.14, 248.28 -0.15 M0.29 285.13 C76.67 197.36, 152.2 111.44, 248.28 -0.15 M0.43 297.17 C97.32 186.8, 194.95 77.32, 258.91 -0.18 M0.43 297.17 C57.17 234.68, 113.49 170.58, 258.91 -0.18 M-0.1 309.97 C88.12 205.72, 177.05 103.06, 269.54 -0.22 M-0.1 309.97 C81.28 218.22, 160.03 126.55, 269.54 -0.22 M0.04 322.01 C62.02 250.64, 125.01 177.6, 280.17 -0.25 M0.04 322.01 C95.48 213.02, 189.95 104.6, 280.17 -0.25 M0.17 334.05 C83.52 239.2, 165.83 144.14, 290.8 -0.28 M0.17 334.05 C87.36 231.81, 175.22 130.7, 290.8 -0.28 M0.3 346.09 C63.33 272.89, 126.99 199.55, 300.78 0.44 M0.3 346.09 C90.58 242.85, 181.41 138.2, 300.78 0.44 M0.44 358.13 C89.71 256.73, 176.96 154.6, 311.41 0.4 M0.44 358.13 C118 222.08, 236.08 85.24, 311.41 0.4 M-0.09 370.93 C91.27 264.89, 184.8 159.13, 322.04 0.37 M-0.09 370.93 C97 261.83, 192.17 152.17, 322.04 0.37 M0.05 382.97 C76.9 294.57, 152.93 206.98, 332.67 0.33 M0.05 382.97 C99.34 268.12, 199.41 152.73, 332.67 0.33 M0.18 395.01 C88 296.09, 173.29 196.95, 343.3 0.3 M0.18 395.01 C111.77 267.03, 223.31 138.77, 343.3 0.3 M0.31 407.05 C127.1 260.84, 254.34 115.77, 353.93 0.26 M0.31 407.05 C125.63 264.24, 249.13 122.03, 353.93 0.26 M0.45 419.09 C122.68 279.7, 244.47 140.71, 364.56 0.23 M0.45 419.09 C74.09 335, 148.25 249.63, 364.56 0.23 M-0.08 431.89 C91.51 327.85, 183.47 220.53, 375.19 0.19 M-0.08 431.89 C124.11 290.24, 246.53 148.62, 375.19 0.19 M0.06 443.93 C150.39 272.2, 301.2 98.42, 385.82 0.16 M0.06 443.93 C140.26 282.55, 282.3 119.27, 385.82 0.16 M0.19 455.97 C156.73 275.99, 313.36 97.66, 396.45 0.12 M0.19 455.97 C139.92 294.65, 278.44 135.19, 396.45 0.12 M0.32 468.01 C133.75 314.54, 267.55 161.48, 407.08 0.09 M0.32 468.01 C108 341.29, 216.87 217.07, 407.08 0.09 M0.46 480.05 C102.34 365.92, 203.05 250.39, 417.71 0.06 M0.46 480.05 C103.73 357.5, 209.52 236.72, 417.71 0.06 M1.9 490.58 C117.37 358.13, 234.44 225.1, 428.34 0.02 M1.9 490.58 C158.02 310.8, 314.06 131.18, 428.34 0.02 M5.97 498.1 C165.04 317.74, 322.27 136.47, 438.97 -0.01 M5.97 498.1 C170.4 307.09, 335.5 117.24, 438.97 -0.01 M12.01 503.34 C183.01 306.77, 354.06 109.2, 449.6 -0.05 M12.01 503.34 C165.33 325.78, 318.04 149.19, 449.6 -0.05 M18.7 507.84 C140.36 367.84, 260.44 230.17, 460.23 -0.08 M18.7 507.84 C104.93 405.02, 194.22 303.7, 460.23 -0.08 M28.02 509.31 C157.48 362.74, 285.14 215.46, 470.86 -0.12 M28.02 509.31 C166.98 350.93, 305.05 192.72, 470.86 -0.12 M37.99 510.03 C131.77 403.1, 224.12 296.99, 481.49 -0.15 M37.99 510.03 C169.26 360.18, 297.51 211.98, 481.49 -0.15 M48.62 510 C226.79 304.86, 405.02 99.96, 492.12 -0.19 M48.62 510 C209.29 326.58, 370.79 140.83, 492.12 -0.19 M59.25 509.96 C214.46 330.36, 370.69 151.63, 502.75 -0.22 M59.25 509.96 C212.52 334.77, 366.03 157.98, 502.75 -0.22 M69.88 509.93 C242.5 310.42, 416.55 111.07, 513.38 -0.25 M69.88 509.93 C175.91 391.96, 279.82 271.86, 513.38 -0.25 M80.51 509.89 C171.45 404.26, 262.71 299.06, 523.35 0.47 M80.51 509.89 C249.68 317.18, 417.54 124.62, 523.35 0.47 M91.14 509.86 C254.62 323.84, 417.5 137.55, 533.98 0.43 M91.14 509.86 C212.22 374.37, 330.4 237.81, 533.98 0.43 M101.77 509.83 C204.32 392.41, 305.97 276.71, 544.61 0.4 M101.77 509.83 C240.12 350.15, 378.42 190.6, 544.61 0.4 M112.4 509.79 C232.22 372.43, 350.98 235.67, 555.24 0.36 M112.4 509.79 C213.42 395, 312.22 281.08, 555.24 0.36 M123.04 509.76 C298.38 310.01, 472.6 110.07, 565.87 0.33 M123.04 509.76 C298.44 309.1, 472.11 109.32, 565.87 0.33 M133.67 509.72 C250.06 373.87, 368.09 239.11, 576.5 0.29 M133.67 509.72 C257.42 369.15, 380.15 228.1, 576.5 0.29 M144.3 509.69 C241.87 397.46, 337.3 287.57, 587.14 0.26 M144.3 509.69 C311.78 318.54, 478.31 127.73, 587.14 0.26 M154.93 509.65 C316.51 323.56, 479.59 136.19, 597.77 0.22 M154.93 509.65 C252.71 401.11, 348.36 291.1, 597.77 0.22 M164.9 510.37 C316.55 332.37, 471.65 155.94, 608.4 0.19 M164.9 510.37 C312.11 340.46, 460.35 170.49, 608.4 0.19 M175.53 510.34 C272.05 402.35, 367.41 292.37, 619.03 0.16 M175.53 510.34 C284.68 383.95, 395.78 256.39, 619.03 0.16 M186.16 510.3 C350.46 320.04, 515.36 130.78, 629.66 0.12 M186.16 510.3 C300.1 379.39, 413.38 248.93, 629.66 0.12 M196.79 510.27 C321.56 367.65, 445.83 223.06, 638.97 1.6 M196.79 510.27 C371.04 308.55, 546.66 106.67, 638.97 1.6 M207.42 510.24 C297.13 407.68, 387.15 305.05, 647.64 3.83 M207.42 510.24 C318.13 385.34, 426.66 259, 647.64 3.83 M218.05 510.2 C341.32 367.19, 465.37 224.95, 654.99 7.56 M218.05 510.2 C348.41 359.65, 478.62 209.6, 654.99 7.56 M228.68 510.17 C356.73 360.27, 485.6 212.86, 659.05 15.08 M228.68 510.17 C372.74 347.96, 514.47 185.26, 659.05 15.08 M239.31 510.13 C392.9 335.59, 544.93 158.69, 662.47 23.34 M239.31 510.13 C325.77 409.41, 411.48 310.11, 662.47 23.34 M249.94 510.1 C352.86 394.06, 454.08 278.42, 663.91 33.88 M249.94 510.1 C347.45 398.37, 444.59 285.74, 663.91 33.88 M260.57 510.06 C379.16 374.49, 497.68 238.21, 664.05 45.92 M260.57 510.06 C414.57 331.17, 569.63 153.23, 664.05 45.92 M271.2 510.03 C413.32 349.24, 553.02 188.06, 663.52 58.71 M271.2 510.03 C356.84 411.24, 442.93 312.7, 663.52 58.71 M281.83 509.99 C394.07 378.25, 508.35 249.14, 663.66 70.75 M281.83 509.99 C403.02 368.98, 525.97 227.63, 663.66 70.75 M292.46 509.96 C403.54 381.16, 514.53 253.26, 663.79 82.79 M292.46 509.96 C384.47 403.65, 476.42 297.84, 663.79 82.79 M303.09 509.92 C381.43 421.05, 459.13 331.84, 663.92 94.83 M303.09 509.92 C418.33 378.79, 532.5 247.11, 663.92 94.83 M313.72 509.89 C403.16 406.51, 492.03 302.69, 664.06 106.88 M313.72 509.89 C454.17 348.14, 594.01 186.76, 664.06 106.88 M324.35 509.86 C438.95 378.64, 550.9 249.18, 663.53 119.67 M324.35 509.86 C422.05 396.66, 519.62 285.09, 663.53 119.67 M334.98 509.82 C451.58 375.56, 568.28 241.08, 663.67 131.71 M334.98 509.82 C426.48 404.5, 517.7 299.41, 663.67 131.71 M345.61 509.79 C463.09 374.6, 579.24 241.63, 663.8 143.75 M345.61 509.79 C460.89 377.96, 575.95 245.76, 663.8 143.75 M356.24 509.75 C432.36 419.47, 511.51 329.5, 663.93 155.79 M356.24 509.75 C477.1 370.89, 598.37 231.18, 663.93 155.79 M366.87 509.72 C446.21 418.66, 524.73 327.75, 664.07 167.83 M366.87 509.72 C453.05 412.41, 538.5 314.48, 664.07 167.83 M377.5 509.68 C475.21 398.34, 571.12 286.4, 663.54 180.63 M377.5 509.68 C485.09 384.85, 592.65 259.86, 663.54 180.63 M388.13 509.65 C447.71 439.27, 506.03 369.8, 663.68 192.67 M388.13 509.65 C450.42 438.8, 512.86 368.07, 663.68 192.67 M398.11 510.37 C490.46 402.75, 582.58 294.03, 663.81 204.71 M398.11 510.37 C497.64 394.65, 597.19 279.79, 663.81 204.71 M408.74 510.33 C470.52 440.39, 531.56 369.13, 663.94 216.75 M408.74 510.33 C501.13 404.6, 592.21 299.55, 663.94 216.75 M419.37 510.3 C501.23 413.45, 585.43 317.57, 663.42 229.55 M419.37 510.3 C480.32 439.88, 541.27 369.87, 663.42 229.55 M430 510.27 C521.86 405.67, 611.65 299.28, 663.55 241.59 M430 510.27 C492.3 436.19, 556.51 362.66, 663.55 241.59 M440.63 510.23 C509.39 429.47, 579.57 352.17, 663.69 253.63 M440.63 510.23 C523.33 415.13, 606.34 320.15, 663.69 253.63 M451.26 510.2 C525.21 426.16, 599.79 340.89, 663.82 265.67 M451.26 510.2 C533.44 416.77, 615.45 322.52, 663.82 265.67 M461.89 510.16 C541.52 419.71, 619.39 329.71, 663.95 277.71 M461.89 510.16 C510.57 453.88, 557.9 399.83, 663.95 277.71 M472.52 510.13 C518.25 457.57, 566.07 402.49, 663.43 290.51 M472.52 510.13 C532.81 440.64, 591.97 370.64, 663.43 290.51 M483.15 510.09 C526.74 462.02, 568.39 412.81, 663.56 302.55 M483.15 510.09 C526.28 458.75, 571.25 406.25, 663.56 302.55 M493.78 510.06 C535.98 461.52, 574.88 415.06, 663.7 314.59 M493.78 510.06 C544.35 450.06, 595.96 390.89, 663.7 314.59 M504.41 510.02 C546.13 461.04, 587.23 413.42, 663.83 326.63 M504.41 510.02 C558.43 449.45, 613.62 387.21, 663.83 326.63 M515.04 509.99 C564.09 456.97, 610.91 400.82, 663.96 338.67 M515.04 509.99 C545.58 474.38, 577.52 438.92, 663.96 338.67 M525.67 509.96 C580.8 449.17, 632.43 386.18, 663.44 351.47 M525.67 509.96 C572.7 457.59, 618.11 403.92, 663.44 351.47 M536.3 509.92 C578.6 464.75, 617.66 418.69, 663.57 363.51 M536.3 509.92 C575.39 464.62, 613.71 420.67, 663.57 363.51 M546.93 509.89 C582.6 470.24, 614.91 430.73, 663.7 375.55 M546.93 509.89 C571.1 482.85, 596.8 455.74, 663.7 375.55 M557.56 509.85 C587.87 475.39, 616.02 443.07, 663.84 387.59 M557.56 509.85 C586.89 476.32, 615.64 443.13, 663.84 387.59 M568.19 509.82 C606.25 469.19, 641.83 426.34, 663.97 399.63 M568.19 509.82 C588.21 486.84, 608.78 462.6, 663.97 399.63 M578.82 509.78 C605.54 480.32, 630.99 449.75, 663.45 412.43 M578.82 509.78 C597.58 488.67, 615.52 467.76, 663.45 412.43 M589.45 509.75 C619.28 479.59, 646.44 446.65, 663.58 424.47 M589.45 509.75 C614.3 481.24, 640.94 452.16, 663.58 424.47 M600.08 509.71 C619.18 486.42, 641.87 460.63, 663.71 436.51 M600.08 509.71 C616.38 490.59, 632.73 470.87, 663.71 436.51 M610.71 509.68 C628 486.83, 647.87 464.25, 663.85 448.55 M610.71 509.68 C626.1 491.73, 642.39 474.46, 663.85 448.55 M621.34 509.64 C633.03 493.82, 645.53 480.91, 663.98 460.59 M621.34 509.64 C636.09 493.95, 651.21 475.82, 663.98 460.59 M631.97 509.61 C643.61 498.78, 651.07 486.66, 663.46 473.38 M631.97 509.61 C640.6 499.19, 650.54 488.56, 663.46 473.38 M643.91 508.07 C648.98 504.03, 653.71 499.52, 662.28 486.93 M643.91 508.07 C650.84 500.01, 657.98 490.86, 662.28 486.93" stroke="#eebefa" stroke-width="1" fill="none"></path><path d="M32 0 C225.23 0.24, 418.36 0.1, 631.11 0 M32 0 C160.93 -1.2, 289.68 -1.38, 631.11 0 M631.11 0 C651.89 -0.76, 661.5 12.43, 663.11 32 M631.11 0 C654.73 -0.15, 661.24 10.26, 663.11 32 M663.11 32 C661.91 200.32, 661.73 370.15, 663.11 477.38 M663.11 32 C661.85 132.03, 661.39 231.33, 663.11 477.38 M663.11 477.38 C661.98 499, 651.32 510.17, 631.11 509.38 M663.11 477.38 C660.94 500.4, 651.5 510.38, 631.11 509.38 M631.11 509.38 C460.35 509.36, 290.51 508.32, 32 509.38 M631.11 509.38 C424.94 510.29, 219.21 510.2, 32 509.38 M32 509.38 C12.07 507.5, -0.04 500.14, 0 477.38 M32 509.38 C12.16 508.02, -1.3 497.5, 0 477.38 M0 477.38 C0.95 383.53, 1 288.04, 0 32 M0 477.38 C0.63 377.13, -0.13 276.78, 0 32 M0 32 C-0.46 9.43, 12.27 1.65, 32 0 M0 32 C-0.99 10.34, 11.57 1.56, 32 0" stroke="#9c36b5" stroke-width="2" fill="none"></path></g><g stroke-linecap="round" transform="translate(138.1642239786148 441.8165647396171) rotate(0 240.72656249999994 171.83203125)"><path d="M7.86 8.16 C7.86 8.16, 7.86 8.16, 7.86 8.16 M7.86 8.16 C7.86 8.16, 7.86 8.16, 7.86 8.16 M6.68 21.71 C13.55 14.99, 18.37 9.87, 21.12 5.11 M6.68 21.71 C11.56 14.33, 18.77 8.35, 21.12 5.11 M4.85 36.01 C11.47 27.97, 18.56 17.6, 34.37 2.05 M4.85 36.01 C14.88 25.63, 24.51 13.67, 34.37 2.05 M4.98 48.06 C16.43 37.05, 25.28 23.28, 45 2.02 M4.98 48.06 C14.79 35.14, 26.21 23.75, 45 2.02 M4.46 60.85 C19.46 42.07, 38.55 22.28, 55.63 1.98 M4.46 60.85 C23.33 40.23, 40.03 20.6, 55.63 1.98 M4.59 72.89 C27.78 45.3, 52.03 17.19, 66.26 1.95 M4.59 72.89 C20.49 55.31, 34.54 37.62, 66.26 1.95 M4.72 84.93 C22.29 65.77, 37.31 43.4, 76.89 1.91 M4.72 84.93 C29.1 55.77, 55.32 26.13, 76.89 1.91 M4.86 96.97 C34.96 62.52, 65.82 30.15, 87.52 1.88 M4.86 96.97 C37.72 62.04, 67.7 25.67, 87.52 1.88 M4.99 109.01 C29.8 77.69, 58.78 48.43, 98.15 1.85 M4.99 109.01 C32.29 77.08, 59.31 46.38, 98.15 1.85 M4.47 121.81 C32.41 91.27, 60.48 58.95, 108.78 1.81 M4.47 121.81 C39.29 80.25, 76.32 39.75, 108.78 1.81 M4.6 133.85 C34.63 99.06, 66.12 63.47, 119.41 1.78 M4.6 133.85 C29.24 105.29, 54.38 75.34, 119.41 1.78 M4.73 145.89 C32.52 113.8, 59.42 78.96, 130.04 1.74 M4.73 145.89 C33.22 112.24, 60.84 78.94, 130.04 1.74 M4.87 157.93 C51.61 99.03, 103.53 42.92, 140.67 1.71 M4.87 157.93 C47.05 111.77, 86.96 64.99, 140.67 1.71 M5 169.97 C56.85 108.18, 108 50.29, 150.65 2.43 M5 169.97 C54.53 110.31, 105.39 53.44, 150.65 2.43 M4.48 182.77 C42.16 139.64, 77.45 97.3, 161.28 2.39 M4.48 182.77 C41.38 140.45, 79.48 97.18, 161.28 2.39 M4.61 194.81 C47.68 144.33, 91.21 94.83, 171.91 2.36 M4.61 194.81 C41.69 152.92, 77.88 111.9, 171.91 2.36 M4.74 206.85 C58.52 144.9, 112.08 84.56, 182.54 2.32 M4.74 206.85 C47.48 159.6, 87.86 111.65, 182.54 2.32 M4.88 218.89 C64.01 147.83, 126.29 76.1, 193.17 2.29 M4.88 218.89 C76.32 138.02, 146 58.2, 193.17 2.29 M5.01 230.93 C68.14 157.57, 133.7 85.07, 203.8 2.26 M5.01 230.93 C46.9 184.07, 85.99 138.61, 203.8 2.26 M4.49 243.73 C48.13 190.79, 94.01 141.1, 214.43 2.22 M4.49 243.73 C83.8 153.86, 160.43 64.48, 214.43 2.22 M4.62 255.77 C89.57 157.47, 172.37 60.53, 225.06 2.19 M4.62 255.77 C88.05 157.86, 171.61 61.37, 225.06 2.19 M4.75 267.81 C96.67 165.49, 186.91 61.2, 235.69 2.15 M4.75 267.81 C91.65 168.34, 179.19 67.61, 235.69 2.15 M4.89 279.85 C78.95 196.06, 150.89 111.59, 246.32 2.12 M4.89 279.85 C82.67 189.83, 160.92 100.87, 246.32 2.12 M5.02 291.89 C101.44 181.16, 197.13 70.34, 256.95 2.08 M5.02 291.89 C100.37 182.01, 195.73 72.23, 256.95 2.08 M4.5 304.69 C67.26 235.29, 130.16 163.14, 267.58 2.05 M4.5 304.69 C82.05 216.32, 158.75 127.42, 267.58 2.05 M5.29 315.97 C92.28 212.76, 182.38 111.55, 278.21 2.01 M5.29 315.97 C108.83 198.34, 211.81 79.91, 278.21 2.01 M5.42 328.01 C82.92 237.73, 159.68 148.9, 288.84 1.98 M5.42 328.01 C84.74 237.65, 163.39 147.64, 288.84 1.98 M9.49 335.53 C68.91 268.65, 128.23 200.63, 299.47 1.94 M9.49 335.53 C118.81 207.63, 228.67 80.72, 299.47 1.94 M14.87 341.53 C84.22 259.25, 156.25 176.65, 310.1 1.91 M14.87 341.53 C125.42 216.66, 235.44 90.44, 310.1 1.91 M23.53 343.76 C94.76 261.59, 167.02 179.39, 320.73 1.88 M23.53 343.76 C89.69 265.52, 156.36 188.09, 320.73 1.88 M33.51 344.48 C124.52 242.48, 212.21 140, 331.36 1.84 M33.51 344.48 C148.99 212.1, 265.45 77.87, 331.36 1.84 M44.14 344.44 C128.87 246.73, 214.02 149.54, 341.99 1.81 M44.14 344.44 C151.97 220.51, 258.28 97.11, 341.99 1.81 M54.77 344.41 C155.4 228.02, 255.67 112.07, 352.62 1.77 M54.77 344.41 C134.26 255.55, 212.65 165.6, 352.62 1.77 M64.74 345.13 C127.78 269.34, 192.94 196.7, 363.25 1.74 M64.74 345.13 C136.54 261.36, 209.41 177.66, 363.25 1.74 M75.37 345.1 C188.97 213.4, 303.57 81.1, 373.88 1.7 M75.37 345.1 C145.55 265.04, 215.39 184.22, 373.88 1.7 M86 345.06 C191.1 221.55, 297.46 99.71, 383.85 2.42 M86 345.06 C189.48 223.39, 295.12 102.17, 383.85 2.42 M96.63 345.03 C154.92 277.02, 216.34 206.24, 394.48 2.39 M96.63 345.03 C174.63 252.89, 254.57 161.24, 394.48 2.39 M107.26 344.99 C186.18 256.05, 266.36 164.22, 405.11 2.35 M107.26 344.99 C222.25 214.45, 337.62 81.99, 405.11 2.35 M117.89 344.96 C205.35 246.01, 290.39 148.66, 415.74 2.32 M117.89 344.96 C188.87 262.81, 259.17 182.93, 415.74 2.32 M128.52 344.92 C224.49 232.24, 321.96 120.24, 426.37 2.29 M128.52 344.92 C202.79 260.25, 275.83 175.56, 426.37 2.29 M139.15 344.89 C219.49 252.86, 300.92 160.29, 437 2.25 M139.15 344.89 C237.31 231.62, 336.57 117.86, 437 2.25 M149.78 344.85 C257.41 219.71, 365.51 96.01, 449.6 -0.05 M149.78 344.85 C230.48 253.15, 309.85 161.45, 449.6 -0.05 M160.41 344.82 C252.35 236.08, 345.94 129.98, 458.26 2.18 M160.41 344.82 C240.13 255.57, 319.72 164.18, 458.26 2.18 M171.04 344.79 C238.24 264.27, 306.16 185.19, 466.92 4.41 M171.04 344.79 C284.25 216, 395.81 87.02, 466.92 4.41 M181.67 344.75 C276.32 237.67, 370.3 128.94, 473.62 8.91 M181.67 344.75 C255.41 257.3, 330.12 170.94, 473.62 8.91 M192.3 344.72 C256.66 272.48, 321.53 197.72, 479 14.91 M192.3 344.72 C291.36 231.64, 389.82 118.76, 479 14.91 M202.93 344.68 C293.63 240.64, 386.1 135.3, 483.72 21.67 M202.93 344.68 C274.16 264.61, 343.66 184.36, 483.72 21.67 M213.56 344.65 C285.48 259.49, 359.57 176.29, 483.86 33.71 M213.56 344.65 C303.96 242.23, 393.91 139.01, 483.86 33.71 M224.19 344.61 C300.7 257.94, 376.54 171.6, 483.99 45.75 M224.19 344.61 C300.94 257.27, 376.59 170.2, 483.99 45.75 M234.82 344.58 C315.23 251.23, 395.93 160.11, 483.47 58.54 M234.82 344.58 C315.81 249.41, 399.13 154.3, 483.47 58.54 M245.45 344.54 C322.38 256.04, 399.85 166.94, 483.6 70.58 M245.45 344.54 C331.08 246.05, 417.1 147.2, 483.6 70.58 M256.08 344.51 C343.27 243.37, 430.84 142.38, 483.73 82.63 M256.08 344.51 C333 252.28, 412.53 162.11, 483.73 82.63 M266.71 344.48 C324.14 279.39, 380.65 216.04, 483.87 94.67 M266.71 344.48 C338.26 262.23, 411 177.8, 483.87 94.67 M277.34 344.44 C335.61 276.56, 391.84 211.06, 483.34 107.46 M277.34 344.44 C357.76 251.46, 439.48 159.03, 483.34 107.46 M287.97 344.41 C341.98 281.93, 393.5 221.29, 483.48 119.5 M287.97 344.41 C329.74 295.16, 373.62 246.11, 483.48 119.5 M297.95 345.13 C349.76 288.39, 400.7 229.04, 483.61 131.54 M297.95 345.13 C354.08 280.19, 410.6 215.84, 483.61 131.54 M308.58 345.09 C355.88 292.44, 401.49 237.93, 483.74 143.58 M308.58 345.09 C366.33 279.95, 425.03 212.44, 483.74 143.58 M319.21 345.06 C362.47 294.63, 404.87 246.21, 483.88 155.63 M319.21 345.06 C374.63 282.24, 429.65 218.7, 483.88 155.63 M329.84 345.02 C371.87 294.99, 413.79 247.61, 483.35 168.42 M329.84 345.02 C377.79 291.58, 424.6 238.29, 483.35 168.42 M340.47 344.99 C396.2 283.12, 450.7 221.7, 483.49 180.46 M340.47 344.99 C390.05 289.21, 439.32 232.22, 483.49 180.46 M351.1 344.95 C387.87 302.14, 424.97 261.8, 483.62 192.5 M351.1 344.95 C389.44 302.96, 425.61 258.57, 483.62 192.5 M361.73 344.92 C407.6 291.57, 455.5 235.55, 483.75 204.54 M361.73 344.92 C390.77 314.19, 418.22 282.78, 483.75 204.54 M372.36 344.89 C415.74 296.49, 458.26 247.11, 483.89 216.58 M372.36 344.89 C411.22 300.47, 447.67 257.12, 483.89 216.58 M382.99 344.85 C411.06 311.67, 441.75 275.44, 483.36 229.38 M382.99 344.85 C408.37 315.66, 434.47 285.88, 483.36 229.38 M393.62 344.82 C416 322.01, 436.22 296.26, 483.5 241.42 M393.62 344.82 C416.43 318.62, 438.66 293.76, 483.5 241.42 M404.25 344.78 C430.47 314.09, 455.3 283.88, 483.63 253.46 M404.25 344.78 C433.19 312.45, 462.72 277.78, 483.63 253.46 M414.88 344.75 C429.55 327.56, 445.45 311.74, 483.76 265.5 M414.88 344.75 C435.86 321.49, 455.07 297.32, 483.76 265.5 M425.51 344.71 C448.79 317.61, 469.11 293.59, 483.9 277.54 M425.51 344.71 C442.52 325.15, 457.9 307.78, 483.9 277.54 M436.14 344.68 C444.83 334.15, 459.06 321.25, 483.37 290.34 M436.14 344.68 C450.54 328.56, 463.9 311.38, 483.37 290.34 M446.77 344.64 C456.88 331.34, 470.32 319.45, 483.51 302.38 M446.77 344.64 C459.64 330.73, 469.69 317.9, 483.51 302.38 M454.77 347.63 C463.66 335.28, 474.29 324.34, 484.3 313.67 M454.77 347.63 C466.01 334.17, 478.09 320.96, 484.3 313.67" stroke="#eebefa" stroke-width="1" fill="none"></path><path d="M32 0 C171.03 0.19, 309.45 -0.16, 449.45 0 M32 0 C148.09 -0.72, 264.96 -0.81, 449.45 0 M449.45 0 C471.79 0.09, 480.75 11.27, 481.45 32 M449.45 0 C469.79 -2, 483.35 11.09, 481.45 32 M481.45 32 C482.46 136.87, 484.56 239.67, 481.45 311.66 M481.45 32 C482.41 95.83, 482.39 160.44, 481.45 311.66 M481.45 311.66 C481.49 334.21, 469.17 342.87, 449.45 343.66 M481.45 311.66 C482.03 333, 471.38 344.68, 449.45 343.66 M449.45 343.66 C343.98 341.68, 238.94 342.63, 32 343.66 M449.45 343.66 C309.97 343.39, 169.38 343.71, 32 343.66 M32 343.66 C12.08 344.05, -0.82 332.03, 0 311.66 M32 343.66 C10.03 343.64, 1.92 333.12, 0 311.66 M0 311.66 C-0.09 215.5, -0.21 118.21, 0 32 M0 311.66 C0.03 251.18, 0.09 190.95, 0 32 M0 32 C-1.09 11.76, 12.11 1.03, 32 0 M0 32 C2.11 8.89, 12.1 -0.61, 32 0" stroke="#9c36b5" stroke-width="2" fill="none"></path></g><g stroke-linecap="round" transform="translate(288.3470328435558 530.0076654544205) rotate(0 93.6484375 68.34375)"><path d="M32 0 C62.9 -1.67, 88.97 0.37, 155.3 0 C174.74 1.87, 188.41 14, 187.3 32 C191.68 59.62, 188.22 83.12, 187.3 104.69 C185.83 128.85, 175.71 135.52, 155.3 136.69 C122.96 140.05, 95.43 137.12, 32 136.69 C13.3 139.85, -0.97 128.47, 0 104.69 C-0.95 76.59, -1.22 53.14, 0 32 C2.46 7.27, 12.35 1.86, 32 0" stroke="none" stroke-width="0" fill="#ffffff"></path><path d="M32 0 C79.6 -1.13, 124.11 0.46, 155.3 0 M32 0 C70.2 0.85, 109.06 1.51, 155.3 0 M155.3 0 C175.62 -0.15, 188.38 11.89, 187.3 32 M155.3 0 C177.35 0.24, 187.18 11.63, 187.3 32 M187.3 32 C187.03 52.31, 187.12 75.53, 187.3 104.69 M187.3 32 C187.19 47.68, 186.31 62.6, 187.3 104.69 M187.3 104.69 C188.46 125.6, 176.74 136.88, 155.3 136.69 M187.3 104.69 C188.3 128.3, 176.98 137.29, 155.3 136.69 M155.3 136.69 C118.59 136.99, 86.55 135.51, 32 136.69 M155.3 136.69 C127 137.71, 99.79 137.39, 32 136.69 M32 136.69 C9.45 136.49, 0.79 127.61, 0 104.69 M32 136.69 C12.42 135.48, -0.42 125.77, 0 104.69 M0 104.69 C-1.07 84.44, 0.88 59.88, 0 32 M0 104.69 C-1.02 85.62, -0.19 68.43, 0 32 M0 32 C1.28 8.97, 11.75 -0.21, 32 0 M0 32 C0.9 8.8, 10.78 -1.14, 32 0" stroke="#9c36b5" stroke-width="2" fill="none"></path></g><g transform="translate(359.8331422741305 587.1311451464452) rotate(0 19.16999053955078 12.5)"><text x="0" y="17.52" font-family="Virgil, Segoe UI Emoji" font-size="20px" fill="#9c36b5" text-anchor="start" style="white-space: pre;" direction="ltr" dominant-baseline="alphabetic">JVM</text></g><g transform="translate(151.3013882599903 835.1407834896171) rotate(0 448.099609375 25)"><text x="0" y="17.52" font-family="Virgil, Segoe UI Emoji" font-size="20px" fill="#1e1e1e" text-anchor="start" style="white-space: pre;" direction="ltr" dominant-baseline="alphabetic">It's a specification that provide runtime environment in which java bytecode can executed.</text><text x="0" y="42.519999999999996" font-family="Virgil, Segoe UI Emoji" font-size="20px" fill="#1e1e1e" text-anchor="start" style="white-space: pre;" direction="ltr" dominant-baseline="alphabetic"></text></g><g transform="translate(152.1021695099903 800.3243772396171) rotate(0 137.4798583984375 12.5)"><text x="0" y="17.52" font-family="Virgil, Segoe UI Emoji" font-size="20px" fill="#1e1e1e" text-anchor="start" style="white-space: pre;" direction="ltr" dominant-baseline="alphabetic">It's doesn't physically exist</text></g><g transform="translate(150.4927945099903 867.6993772396171) rotate(0 430.87969970703125 12.5)"><text x="0" y="17.52" font-family="Virgil, Segoe UI Emoji" font-size="20px" fill="#1e1e1e" text-anchor="start" style="white-space: pre;" direction="ltr" dominant-baseline="alphabetic">JVM, JRE, JDK are platform dependent, because each Os have different configuration.</text></g><g transform="translate(152.5435757599903 901.4650022396171) rotate(0 277.36981201171875 12.5)"><text x="0" y="17.52" font-family="Virgil, Segoe UI Emoji" font-size="20px" fill="#1e1e1e" text-anchor="start" style="white-space: pre;" direction="ltr" dominant-baseline="alphabetic">JVM are available for software and hardware platform.</text></g><g transform="translate(151.1021695099903 931.7150022396171) rotate(0 143.0098876953125 12.5)"><text x="0" y="17.52" font-family="Virgil, Segoe UI Emoji" font-size="20px" fill="#1e1e1e" text-anchor="start" style="white-space: pre;" direction="ltr" dominant-baseline="alphabetic">Java is platform independent</text></g><g transform="translate(152.5435757599903 961.6368772396171) rotate(0 395.12969970703125 12.5)"><text x="0" y="17.52" font-family="Virgil, Segoe UI Emoji" font-size="20px" fill="#1e1e1e" text-anchor="start" style="white-space: pre;" direction="ltr" dominant-baseline="alphabetic">There are three notions of the JVM: specification, implementation, and instance.</text></g><g transform="translate(159.2310757599903 998.7696897396171) rotate(0 214.32981872558594 75)"><text x="0" y="17.52" font-family="Virgil, Segoe UI Emoji" font-size="20px" fill="#1e1e1e" text-anchor="start" style="white-space: pre;" direction="ltr" dominant-baseline="alphabetic">The JVM performs the following main tasks:</text><text x="0" y="42.519999999999996" font-family="Virgil, Segoe UI Emoji" font-size="20px" fill="#1e1e1e" text-anchor="start" style="white-space: pre;" direction="ltr" dominant-baseline="alphabetic"></text><text x="0" y="67.52" font-family="Virgil, Segoe UI Emoji" font-size="20px" fill="#1e1e1e" text-anchor="start" style="white-space: pre;" direction="ltr" dominant-baseline="alphabetic">Loads code</text><text x="0" y="92.52" font-family="Virgil, Segoe UI Emoji" font-size="20px" fill="#1e1e1e" text-anchor="start" style="white-space: pre;" direction="ltr" dominant-baseline="alphabetic">Verifies code</text><text x="0" y="117.52" font-family="Virgil, Segoe UI Emoji" font-size="20px" fill="#1e1e1e" text-anchor="start" style="white-space: pre;" direction="ltr" dominant-baseline="alphabetic">Executes code</text><text x="0" y="142.52" font-family="Virgil, Segoe UI Emoji" font-size="20px" fill="#1e1e1e" text-anchor="start" style="white-space: pre;" direction="ltr" dominant-baseline="alphabetic">Provides runtime environment</text></g><g stroke-linecap="round" transform="translate(1184.5552945099903 533.9732602709927) rotate(0 99.447265625 71.341796875)"><path d="M32 0 C79.9 -4.71, 127.89 0.73, 166.89 0 C185.66 0.38, 198.19 13.84, 198.89 32 C197.83 64.24, 199.74 94.03, 198.89 110.68 C200.72 132.07, 184.9 143.28, 166.89 142.68 C123.6 142.2, 86.01 142.58, 32 142.68 C13.33 144.86, 1.43 131.53, 0 110.68 C1.52 86.9, -4.22 67.2, 0 32 C-3.56 11.64, 10.6 -2.83, 32 0" stroke="none" stroke-width="0" fill="#ffffff"></path><path d="M32 0 C64.73 0.32, 100.09 2.74, 166.89 0 M32 0 C72.07 0.07, 113.05 0.69, 166.89 0 M166.89 0 C187.42 -1.62, 198.22 11.26, 198.89 32 M166.89 0 C187.03 -1.21, 201.16 9.75, 198.89 32 M198.89 32 C198.04 49.5, 199.76 64.7, 198.89 110.68 M198.89 32 C198.25 62.38, 197.39 93.56, 198.89 110.68 M198.89 110.68 C198.36 130.08, 186.84 143.38, 166.89 142.68 M198.89 110.68 C198.79 131.77, 187.17 140.6, 166.89 142.68 M166.89 142.68 C132.67 143.88, 98.44 145.3, 32 142.68 M166.89 142.68 C125.28 143.33, 84.91 143.89, 32 142.68 M32 142.68 C10.29 144.33, -0.23 132.95, 0 110.68 M32 142.68 C11.64 144.04, -1.4 132.02, 0 110.68 M0 110.68 C-1.53 81.46, 1.13 47.58, 0 32 M0 110.68 C0.45 82.75, -0.52 56.03, 0 32 M0 32 C1.8 9.46, 9.51 -1.46, 32 0 M0 32 C-0.22 12.78, 12.09 -1.57, 32 0" stroke="#9c36b5" stroke-width="2" fill="none"></path></g><g transform="translate(1262.0943623756707 585.8907834896171) rotate(0 19.16999053955078 12.5)"><text x="0" y="17.52" font-family="Virgil, Segoe UI Emoji" font-size="20px" fill="#2f9e44" text-anchor="start" style="white-space: pre;" direction="ltr" dominant-baseline="alphabetic">JVM</text></g><g stroke-linecap="round" transform="translate(1521.4291128183204 410.70812144108413) rotate(0 99.447265625 75)"><path d="M32 0 C64.34 -3.33, 90.32 -2.03, 166.89 0 C186.28 0.28, 199.55 13.08, 198.89 32 C197.77 54.98, 201.19 74.69, 198.89 118 C195.46 136.09, 190.76 146.76, 166.89 150 C136.36 149.21, 109.65 146.34, 32 150 C9.48 151.83, 0.48 140.75, 0 118 C-2.82 93.83, -2.45 64.49, 0 32 C3.1 13.38, 13.54 3.28, 32 0" stroke="none" stroke-width="0" fill="#ffffff"></path><path d="M32 0 C69.15 -1.9, 104.35 1.2, 166.89 0 M32 0 C58.12 -1.01, 86.95 0.42, 166.89 0 M166.89 0 C188.03 -0.83, 196.97 10.92, 198.89 32 M166.89 0 C186.98 -2.18, 199.25 10.92, 198.89 32 M198.89 32 C199.72 50.94, 200.76 68.13, 198.89 118 M198.89 32 C198.63 53.26, 199.52 75.71, 198.89 118 M198.89 118 C196.98 140.78, 190.09 148.79, 166.89 150 M198.89 118 C197.09 138.68, 190.52 148.52, 166.89 150 M166.89 150 C115.93 148.69, 62.89 150.57, 32 150 M166.89 150 C139.47 149.98, 112.33 150.41, 32 150 M32 150 C11.17 148.51, -1.18 140.09, 0 118 M32 150 C9.2 151.07, 0.3 137.72, 0 118 M0 118 C0.71 96.52, -0.2 71.64, 0 32 M0 118 C-0.14 92.52, -0.9 67.57, 0 32 M0 32 C0.16 12.07, 10.41 -0.96, 32 0 M0 32 C-2.12 12.37, 9.43 1.03, 32 0" stroke="#9c36b5" stroke-width="2" fill="none"></path></g><g transform="translate(1543.296452906211 460.70812144108413) rotate(0 77.57992553710938 25)"><text x="77.57992553710938" y="17.52" font-family="Virgil, Segoe UI Emoji" font-size="20px" fill="#2f9e44" text-anchor="middle" style="white-space: pre;" direction="ltr" dominant-baseline="alphabetic">Set Of libraries</text><text x="77.57992553710938" y="42.519999999999996" font-family="Virgil, Segoe UI Emoji" font-size="20px" fill="#2f9e44" text-anchor="middle" style="white-space: pre;" direction="ltr" dominant-baseline="alphabetic">e.g rt.jar etc.</text></g><g stroke-linecap="round" transform="translate(1521.259030675183 625.1080312616731) rotate(0 99.447265625 71.341796875)"><path d="M32 0 C74.61 2.99, 119.58 -1.26, 166.89 0 C189.94 2.51, 197.5 13.21, 198.89 32 C199.74 59.41, 199.04 79.39, 198.89 110.68 C198.95 132.55, 191.23 143.33, 166.89 142.68 C129.39 139.43, 90.54 142.93, 32 142.68 C8.7 141.43, 3.51 134.21, 0 110.68 C-2.07 90.59, -2.66 68.89, 0 32 C-2.23 12.27, 8.23 3.4, 32 0" stroke="none" stroke-width="0" fill="#ffffff"></path><path d="M32 0 C69.65 0.43, 106.1 -0.29, 166.89 0 M32 0 C63.07 -0.55, 92.13 0.13, 166.89 0 M166.89 0 C190.09 -0.84, 198.2 11.54, 198.89 32 M166.89 0 C188.12 1.23, 199.9 12.81, 198.89 32 M198.89 32 C197.2 50.13, 199.79 70.09, 198.89 110.68 M198.89 32 C197.93 58.47, 198.56 84.72, 198.89 110.68 M198.89 110.68 C197.56 131.29, 187.65 141.31, 166.89 142.68 M198.89 110.68 C199.42 129.76, 186.31 140.75, 166.89 142.68 M166.89 142.68 C112.11 142.63, 60.72 140.96, 32 142.68 M166.89 142.68 C129.49 142.34, 92.1 142.08, 32 142.68 M32 142.68 C9.4 141.37, -0.36 131.85, 0 110.68 M32 142.68 C9.41 140.76, -2.26 129.82, 0 110.68 M0 110.68 C0.97 88.63, 1.87 64.61, 0 32 M0 110.68 C0.98 93.81, 0.97 75.96, 0 32 M0 32 C-0.38 9.1, 12 -0.75, 32 0 M0 32 C-1.97 9.04, 9.08 -0.21, 32 0" stroke="#9c36b5" stroke-width="2" fill="none"></path></g><g transform="translate(1569.8443570099903 676.8556272396171) rotate(0 53.19994354248047 12.5)"><text x="0" y="17.52" font-family="Virgil, Segoe UI Emoji" font-size="20px" fill="#2f9e44" text-anchor="start" style="white-space: pre;" direction="ltr" dominant-baseline="alphabetic">Other files</text></g><g stroke-linecap="round"><g transform="translate(620.6173489786147 604.014466387331) rotate(0 281.4689727656878 0.8617741378649839)"><path d="M-0.14 -0.78 C93.57 -0.62, 468.15 1.62, 562.08 1.88 M-1.67 1.42 C92.42 1.73, 470.24 3.47, 564.34 3.49" stroke="#2f9e44" stroke-width="2" fill="none"></path></g><g transform="translate(620.6173489786147 604.014466387331) rotate(0 281.4689727656878 0.8617741378649839)"><path d="M540.83 11.98 C546.23 8.13, 554.57 7.99, 564.34 3.49 M540.83 11.98 C546.71 9.34, 550.81 7.83, 564.34 3.49" stroke="#2f9e44" stroke-width="2" fill="none"></path></g><g transform="translate(620.6173489786147 604.014466387331) rotate(0 281.4689727656878 0.8617741378649839)"><path d="M540.87 -5.12 C546.39 -4.04, 554.71 0.75, 564.34 3.49 M540.87 -5.12 C546.62 -3.99, 550.71 -1.74, 564.34 3.49" stroke="#2f9e44" stroke-width="2" fill="none"></path></g></g><mask></mask><g transform="translate(1132.5196927286147 305.3999379494241) rotate(0 219.77984619140625 12.5)"><text x="0" y="17.52" font-family="Virgil, Segoe UI Emoji" font-size="20px" fill="#2f9e44" text-anchor="start" style="white-space: pre;" direction="ltr" dominant-baseline="alphabetic">JRE (Java runtime environment) (Java RTE)</text></g><g transform="translate(1133.3287320099903 872.8946897396171) rotate(0 375.3297119140625 12.5)"><text x="0" y="17.52" font-family="Virgil, Segoe UI Emoji" font-size="20px" fill="#1e1e1e" text-anchor="start" style="white-space: pre;" direction="ltr" dominant-baseline="alphabetic">JRE is set of software tools which is use for java application development</text></g><g transform="translate(1135.4146695099903 917.2696897396171) rotate(0 191.38983154296875 12.5)"><text x="0" y="17.52" font-family="Virgil, Segoe UI Emoji" font-size="20px" fill="#1e1e1e" text-anchor="start" style="white-space: pre;" direction="ltr" dominant-baseline="alphabetic">It used to provide runtime environment</text></g><g transform="translate(1137.8912320099903 960.1720334896171) rotate(0 151.2898712158203 12.5)"><text x="0" y="17.52" font-family="Virgil, Segoe UI Emoji" font-size="20px" fill="#1e1e1e" text-anchor="start" style="white-space: pre;" direction="ltr" dominant-baseline="alphabetic">It's an implementation of JvM.</text></g><g transform="translate(1137.7193570099903 1001.6290647396171) rotate(0 94.70990753173828 12.5)"><text x="0" y="17.52" font-family="Virgil, Segoe UI Emoji" font-size="20px" fill="#1e1e1e" text-anchor="start" style="white-space: pre;" direction="ltr" dominant-baseline="alphabetic">It physically exists</text></g><g transform="translate(1137.3326382599903 1044.7814084896172) rotate(0 351.75970458984375 12.5)"><text x="0" y="17.52" font-family="Virgil, Segoe UI Emoji" font-size="20px" fill="#1e1e1e" text-anchor="start" style="white-space: pre;" direction="ltr" dominant-baseline="alphabetic">It's consist of set of library + other files that JVM used at runtime.</text></g><g transform="translate(1137.3209195099903 1088.3985959896172) rotate(0 276.27978515625 12.5)"><text x="0" y="17.52" font-family="Virgil, Segoe UI Emoji" font-size="20px" fill="#1e1e1e" text-anchor="start" style="white-space: pre;" direction="ltr" dominant-baseline="alphabetic">Implementation of JRE is actively release by compaines.</text></g><g stroke-linecap="round" transform="translate(2780.5015092081944 327.04262115790704) rotate(0 123.03345516837044 253.301121197424)"><path d="M32 0 C94.3 -2.31, 164.71 1.31, 214.07 0 C236.09 1.62, 242.59 7.79, 246.07 32 C248.39 127.53, 249.81 226.45, 246.07 474.6 C248.36 492.75, 237.43 507.19, 214.07 506.6 C164.53 505.63, 112.49 506.29, 32 506.6 C14.25 509.01, -0.02 498.91, 0 474.6 C-2.52 367, -2.62 262.63, 0 32 C-0.86 7.4, 8.38 -3.36, 32 0" stroke="none" stroke-width="0" fill="#ffffff"></path><path d="M32 0 C87.88 2.2, 142.63 1.78, 214.07 0 M32 0 C80.2 -0.33, 130.81 -0.61, 214.07 0 M214.07 0 C236.54 -0.95, 245.8 11.2, 246.07 32 M214.07 0 C236.79 1.02, 246.14 12.87, 246.07 32 M246.07 32 C243.83 172.96, 244.4 313.33, 246.07 474.6 M246.07 32 C247.93 124.7, 247.69 216.92, 246.07 474.6 M246.07 474.6 C245.34 494.2, 235.57 505.04, 214.07 506.6 M246.07 474.6 C247.8 497.79, 234.4 504.64, 214.07 506.6 M214.07 506.6 C164.25 508.11, 118.82 509.15, 32 506.6 M214.07 506.6 C165.16 507.39, 117.9 507.18, 32 506.6 M32 506.6 C10.25 505.82, -1.56 496.35, 0 474.6 M32 506.6 C8.63 504.84, 2.06 497.07, 0 474.6 M0 474.6 C1.52 358.93, 1.21 243.09, 0 32 M0 474.6 C-1.05 341.71, -0.93 208.16, 0 32 M0 32 C0.56 11.66, 9.5 1.28, 32 0 M0 32 C-0.72 8.55, 12.52 0.8, 32 0" stroke="#9c36b5" stroke-width="2" fill="none"></path></g><g transform="translate(2796.3350666104516 555.343742355331) rotate(0 107.19989776611328 25)"><text x="107.19989776611328" y="17.52" font-family="Virgil, Segoe UI Emoji" font-size="20px" fill="#2f9e44" text-anchor="middle" style="white-space: pre;" direction="ltr" dominant-baseline="alphabetic">Development tools eg.</text><text x="107.19989776611328" y="42.519999999999996" font-family="Virgil, Segoe UI Emoji" font-size="20px" fill="#2f9e44" text-anchor="middle" style="white-space: pre;" direction="ltr" dominant-baseline="alphabetic">javac, java etc.</text></g><g stroke-linecap="round"><g transform="translate(1793.116903447239 578.1180219829153) rotate(0 137.79696243853095 1.576446651079607)"><path d="M-0.92 0.53 C45.05 1.15, 229.8 2.33, 276.01 2.88 M0.79 -0.24 C46.63 0.63, 229.42 3.92, 275.27 4.27" stroke="#2f9e44" stroke-width="2" fill="none"></path></g><g transform="translate(1793.116903447239 578.1180219829153) rotate(0 137.79696243853095 1.576446651079607)"><path d="M251.67 12.5 C259.97 10.8, 265.99 8.73, 275.27 4.27 M251.67 12.5 C259.21 8.92, 269.35 6.52, 275.27 4.27" stroke="#2f9e44" stroke-width="2" fill="none"></path></g><g transform="translate(1793.116903447239 578.1180219829153) rotate(0 137.79696243853095 1.576446651079607)"><path d="M251.9 -4.6 C260.01 -0.97, 265.96 2.3, 275.27 4.27 M251.9 -4.6 C259.36 -2.09, 269.41 1.59, 275.27 4.27" stroke="#2f9e44" stroke-width="2" fill="none"></path></g></g><mask></mask><g stroke-linecap="round" transform="translate(2069.710828324301 331.93907781777943) rotate(0 331.5546875 254.689453125)"><path d="M32 0 C156.66 -3.27, 281.1 -2.97, 631.11 0 C653.63 1.73, 661.62 9.76, 663.11 32 C659.36 126.78, 657.62 220.27, 663.11 477.38 C663.44 497.58, 655.08 512.29, 631.11 509.38 C449.34 508.47, 267.89 508.23, 32 509.38 C8.76 511.79, 1.87 501.3, 0 477.38 C-0.35 384.64, 0.08 288.73, 0 32 C-2.53 13.26, 10.1 -1.64, 32 0" stroke="none" stroke-width="0" fill="#ffffff"></path><path d="M32 0 C166.79 1.34, 302.3 1.49, 631.11 0 M32 0 C232.71 0.29, 433.83 0.37, 631.11 0 M631.11 0 C651.94 -0.42, 661.88 8.92, 663.11 32 M631.11 0 C652 -0.51, 661.15 8.76, 663.11 32 M663.11 32 C663.11 192.48, 663.17 351.88, 663.11 477.38 M663.11 32 C661.75 204.77, 661.74 377.35, 663.11 477.38 M663.11 477.38 C662.02 499.47, 653.49 508.81, 631.11 509.38 M663.11 477.38 C661.24 498.62, 652.85 507.98, 631.11 509.38 M631.11 509.38 C459.02 508.49, 288.4 509.81, 32 509.38 M631.11 509.38 C435.99 508.79, 240.49 508.75, 32 509.38 M32 509.38 C8.77 510.87, 1.26 496.91, 0 477.38 M32 509.38 C11.19 508.19, -1.45 498.36, 0 477.38 M0 477.38 C-0.09 353.85, -1.34 229.76, 0 32 M0 477.38 C-0.32 378.06, -0.33 279.18, 0 32 M0 32 C0.77 11.91, 10.01 1.19, 32 0 M0 32 C-2.1 11.11, 8.67 -0.31, 32 0" stroke="#9c36b5" stroke-width="2" fill="none"></path></g><g stroke-linecap="round" transform="translate(2125.929578324301 525.6656403177797) rotate(0 99.447265625 71.341796875)"><path d="M32 0 C60.29 -0.02, 92.99 2.72, 166.89 0 M32 0 C71.36 0.13, 110.15 -0.45, 166.89 0 M166.89 0 C186.99 -1.75, 198.51 10.22, 198.89 32 M166.89 0 C186.27 -1.9, 200.28 10.82, 198.89 32 M198.89 32 C198.62 54.89, 200.54 80.29, 198.89 110.68 M198.89 32 C197.47 55.33, 197.73 78.81, 198.89 110.68 M198.89 110.68 C199.95 131.45, 186.6 142.6, 166.89 142.68 M198.89 110.68 C199.3 130.62, 187.91 142.84, 166.89 142.68 M166.89 142.68 C127.56 142.94, 88.29 142.77, 32 142.68 M166.89 142.68 C129 141.32, 89.21 142.7, 32 142.68 M32 142.68 C11.93 140.88, 0.45 130.98, 0 110.68 M32 142.68 C9.21 142.33, -0.5 132.87, 0 110.68 M0 110.68 C-1.66 94.95, -2.13 78.12, 0 32 M0 110.68 C-0.07 85.1, 0.54 61.82, 0 32 M0 32 C-0.66 11.86, 8.84 0.39, 32 0 M0 32 C-1.99 10.35, 8.57 1.6, 32 0" stroke="#9c36b5" stroke-width="2" fill="none"></path></g><g transform="translate(2203.046765824301 572.2515778177797) rotate(0 26.837997436523438 17.5)"><text x="0" y="24.528" font-family="Virgil, Segoe UI Emoji" font-size="28px" fill="#2f9e44" text-anchor="start" style="white-space: pre;" direction="ltr" dominant-baseline="alphabetic">JVM</text></g><g stroke-linecap="round" transform="translate(2462.568250199301 401.81993719277943) rotate(0 99.447265625 75)"><path d="M32 0 C66.54 -2.14, 101.8 -0.96, 166.89 0 M32 0 C76.84 -0.59, 122.72 0.06, 166.89 0 M166.89 0 C186.52 -1.66, 200.1 10.8, 198.89 32 M166.89 0 C188.52 -0.32, 199.19 10.48, 198.89 32 M198.89 32 C199.55 48.92, 200.16 67.38, 198.89 118 M198.89 32 C198.95 58.52, 197.62 85.56, 198.89 118 M198.89 118 C199.25 138.12, 187.95 150.14, 166.89 150 M198.89 118 C198.74 137.33, 186.14 150.26, 166.89 150 M166.89 150 C116.15 152.27, 64.94 151.83, 32 150 M166.89 150 C135.68 150.11, 103.44 150.49, 32 150 M32 150 C9.4 149.7, -0.43 140.07, 0 118 M32 150 C8.56 151.68, 1.03 138.09, 0 118 M0 118 C0.96 89.02, -1.07 60.38, 0 32 M0 118 C-0.66 99.99, -1.24 80.99, 0 32 M0 32 C-1.73 10.39, 8.84 1.39, 32 0 M0 32 C1.53 10.06, 10.03 -1.58, 32 0" stroke="#9c36b5" stroke-width="2" fill="none"></path></g><g transform="translate(2484.4355902871916 451.81993719277943) rotate(0 77.57992553710938 25)"><text x="77.57992553710938" y="17.52" font-family="Virgil, Segoe UI Emoji" font-size="20px" fill="#2f9e44" text-anchor="middle" style="white-space: pre;" direction="ltr" dominant-baseline="alphabetic">Set Of libraries</text><text x="77.57992553710938" y="42.519999999999996" font-family="Virgil, Segoe UI Emoji" font-size="20px" fill="#2f9e44" text-anchor="middle" style="white-space: pre;" direction="ltr" dominant-baseline="alphabetic">e.g rt.jar etc.</text></g><g stroke-linecap="round" transform="translate(2462.412000199301 616.2613434427797) rotate(0 99.447265625 71.341796875)"><path d="M32 0 C67.36 -0.72, 100.81 -1.44, 166.89 0 M32 0 C59.8 -0.53, 89.91 0.36, 166.89 0 M166.89 0 C188.48 -0.28, 199.15 10.5, 198.89 32 M166.89 0 C186.27 2.02, 197.87 10.55, 198.89 32 M198.89 32 C199.33 48.32, 199.85 67.87, 198.89 110.68 M198.89 32 C198.43 52.76, 198.12 74.8, 198.89 110.68 M198.89 110.68 C198.76 130.28, 186.41 142.91, 166.89 142.68 M198.89 110.68 C200.59 132.62, 189.73 142.33, 166.89 142.68 M166.89 142.68 C115.79 141.43, 68.74 144.58, 32 142.68 M166.89 142.68 C137.93 141.83, 110.01 142.35, 32 142.68 M32 142.68 C8.83 144.15, 0.9 130.93, 0 110.68 M32 142.68 C11.41 140.89, 0.23 132.35, 0 110.68 M0 110.68 C-0.99 89.39, 1.93 65.92, 0 32 M0 110.68 C-0.15 82.26, -0.19 54.81, 0 32 M0 32 C1.33 10.14, 10.11 -1.37, 32 0 M0 32 C-0.16 11.43, 11.77 -0.95, 32 0" stroke="#9c36b5" stroke-width="2" fill="none"></path></g><g transform="translate(2511.2186408243015 668.2164215677797) rotate(0 53.19994354248047 12.5)"><text x="0" y="17.52" font-family="Virgil, Segoe UI Emoji" font-size="20px" fill="#2f9e44" text-anchor="start" style="white-space: pre;" direction="ltr" dominant-baseline="alphabetic">Other files</text></g><g transform="translate(1965.1312516363123 164.27787239576844) rotate(0 138.47988891601562 12.5)"><text x="0" y="17.52" font-family="Virgil, Segoe UI Emoji" font-size="20px" fill="#2f9e44" text-anchor="start" style="white-space: pre;" direction="ltr" dominant-baseline="alphabetic">JDK (JAVA development Kit)</text></g><g transform="translate(1967.4066391823603 1027.3413595042389) rotate(0 618.3195190429688 25)"><text x="0" y="17.52" font-family="Virgil, Segoe UI Emoji" font-size="20px" fill="#1e1e1e" text-anchor="start" style="white-space: pre;" direction="ltr" dominant-baseline="alphabetic">JDK contains private JVM (JAVA Virtual Machine) and few other resource like  Interperator/Loader (java), Compiler (javac),</text><text x="0" y="42.519999999999996" font-family="Virgil, Segoe UI Emoji" font-size="20px" fill="#1e1e1e" text-anchor="start" style="white-space: pre;" direction="ltr" dominant-baseline="alphabetic"> an archiver (jar) and document generator (Javadoc) etc. to complete development of java application.</text></g><g transform="translate(153.70858068192837 395.67345600403814) rotate(0 189.72793579101565 17.5)"><text x="0" y="24.528" font-family="Virgil, Segoe UI Emoji" font-size="28px" fill="#2f9e44" text-anchor="start" style="white-space: pre;" direction="ltr" dominant-baseline="alphabetic">JVM (Java Virtual Machine)</text></g></svg>