<svg version="1.1" xmlns="http://www.w3.org/2000/svg" viewBox="0 0 1500.984375 1458.953125" width="1500.984375" height="1458.953125">
  <!-- svg-source:excalidraw -->
  
  <defs>
    <style class="style-fonts">
      @font-face {
        font-family: "Virgil";
        src: url("https://excalidraw.com/Virgil.woff2");
      }
      @font-face {
        font-family: "Cascadia";
        src: url("https://excalidraw.com/Cascadia.woff2");
      }
      @font-face {
        font-family: "Assistant";
        src: url("https://excalidraw.com/Assistant-Regular.woff2");
      }
    </style>
    
  </defs>
  <rect x="0" y="0" width="1500.984375" height="1458.953125" fill="#ffffff"></rect><g stroke-linecap="round" transform="translate(10 47.06640625) rotate(0 740.4921875 700.943359375)"><path d="M7.86 8.16 C7.86 8.16, 7.86 8.16, 7.86 8.16 M7.86 8.16 C7.86 8.16, 7.86 8.16, 7.86 8.16 M1.43 27.75 C8.75 21.93, 12.25 13.81, 24.4 1.33 M1.43 27.75 C9.34 19.42, 17.1 10.29, 24.4 1.33 M0.26 41.3 C9.76 28.51, 22.17 17.57, 36.34 -0.21 M0.26 41.3 C7.72 31.59, 16.09 22.96, 36.34 -0.21 M0.39 53.34 C16.43 34.36, 30.89 20.6, 46.97 -0.25 M0.39 53.34 C18 34.04, 33.86 12.74, 46.97 -0.25 M0.52 65.38 C16.76 46.58, 28.26 31.18, 57.6 -0.28 M0.52 65.38 C21.08 41.86, 42.08 17.9, 57.6 -0.28 M0 78.17 C20.95 52.63, 45.38 24.83, 67.57 0.44 M0 78.17 C19.65 56.58, 40.14 32.76, 67.57 0.44 M0.13 90.22 C26.39 61.06, 51.42 30.66, 78.2 0.41 M0.13 90.22 C16.52 70.83, 33.83 50.29, 78.2 0.41 M0.26 102.26 C20.99 80.28, 42.19 56.46, 88.83 0.37 M0.26 102.26 C35.87 62.68, 69.6 22.64, 88.83 0.37 M0.4 114.3 C35.85 72.81, 69.91 34.14, 99.46 0.34 M0.4 114.3 C30.49 81.17, 58.83 46.38, 99.46 0.34 M0.53 126.34 C31.44 89.98, 61.12 53.08, 110.09 0.3 M0.53 126.34 C32.73 91.08, 64.03 53.08, 110.09 0.3 M0.01 139.13 C34.76 99.15, 68.79 57.43, 120.72 0.27 M0.01 139.13 C30.85 101.77, 63.68 65.4, 120.72 0.27 M0.14 151.17 C33.62 111.74, 68.73 71.26, 131.35 0.23 M0.14 151.17 C31.81 113.96, 61.88 78.43, 131.35 0.23 M0.27 163.22 C38.24 119.31, 74.25 76.52, 141.98 0.2 M0.27 163.22 C30.52 129.35, 59.09 95.71, 141.98 0.2 M0.41 175.26 C43.36 120.98, 89.67 68.46, 152.61 0.16 M0.41 175.26 C30.16 138.75, 61.38 103.93, 152.61 0.16 M0.54 187.3 C47.02 132.06, 95.1 80.7, 163.24 0.13 M0.54 187.3 C53.41 126.45, 105.14 66, 163.24 0.13 M0.02 200.09 C40.61 155.16, 77.91 109.56, 173.87 0.09 M0.02 200.09 C61.02 130.27, 121.03 59.58, 173.87 0.09 M0.15 212.13 C60.45 140.27, 122.78 69.04, 184.5 0.06 M0.15 212.13 C38.14 166.93, 75.53 122.33, 184.5 0.06 M0.28 224.17 C46.85 171.84, 92.52 117.68, 195.13 0.03 M0.28 224.17 C77.43 135.48, 155.92 46.01, 195.13 0.03 M0.42 236.22 C59.12 163.53, 121.94 93.91, 205.76 -0.01 M0.42 236.22 C46.87 181.18, 93.29 127.92, 205.76 -0.01 M-0.11 249.01 C48.1 190.76, 98.71 135.47, 216.39 -0.04 M-0.11 249.01 C53.32 187.64, 106.55 126.05, 216.39 -0.04 M0.03 261.05 C45.32 206.19, 91.39 154.64, 227.02 -0.08 M0.03 261.05 C69.52 182.12, 138.17 103.57, 227.02 -0.08 M0.16 273.09 C59.46 205.36, 120.51 135.75, 237.65 -0.11 M0.16 273.09 C86.76 175.57, 170.45 78.67, 237.65 -0.11 M0.29 285.13 C49.77 227.1, 103.45 166.88, 248.28 -0.15 M0.29 285.13 C82.2 188.97, 164.81 93.27, 248.28 -0.15 M0.43 297.17 C72.71 213.09, 144.9 130.56, 258.91 -0.18 M0.43 297.17 C94.28 191.02, 187.7 84.56, 258.91 -0.18 M-0.1 309.97 C52.84 247.4, 106.4 185.56, 269.54 -0.22 M-0.1 309.97 C105.6 189.34, 210.77 68.8, 269.54 -0.22 M0.04 322.01 C60.28 255.47, 120.14 185.35, 280.17 -0.25 M0.04 322.01 C72.11 239.91, 143.02 158.3, 280.17 -0.25 M0.17 334.05 C58.25 268.36, 116.95 201.04, 290.8 -0.28 M0.17 334.05 C89.37 234.08, 175.65 133.38, 290.8 -0.28 M0.3 346.09 C87.84 245.75, 174.13 146.22, 300.78 0.44 M0.3 346.09 C64.73 271.52, 129.73 197.93, 300.78 0.44 M0.44 358.13 C115.24 227.06, 228.28 97.52, 311.41 0.4 M0.44 358.13 C86.25 260.27, 170.05 163.97, 311.41 0.4 M-0.09 370.93 C86.14 268.21, 174.16 166.96, 322.04 0.37 M-0.09 370.93 C118.81 232.11, 238.32 93.57, 322.04 0.37 M0.05 382.97 C122.53 241.48, 243.51 101.65, 332.67 0.33 M0.05 382.97 C92.53 278.39, 184.32 173.4, 332.67 0.33 M0.18 395.01 C91.75 290.99, 182.35 186.64, 343.3 0.3 M0.18 395.01 C80.8 301.29, 162.49 207.16, 343.3 0.3 M0.31 407.05 C81.62 317.02, 160.7 225.25, 353.93 0.26 M0.31 407.05 C90.24 305.26, 179.74 203.05, 353.93 0.26 M0.45 419.09 C107.24 296.73, 214.21 172.09, 364.56 0.23 M0.45 419.09 C105.22 298.91, 208.77 179.64, 364.56 0.23 M-0.08 431.89 C106.52 308.95, 213.59 186.05, 375.19 0.19 M-0.08 431.89 C117.69 296.39, 234.71 161.39, 375.19 0.19 M0.06 443.93 C122.62 299.97, 248.64 156.03, 385.82 0.16 M0.06 443.93 C139.22 287.18, 277.39 128.02, 385.82 0.16 M0.19 455.97 C89.09 355.19, 177.36 254.92, 396.45 0.12 M0.19 455.97 C133.18 305.66, 265.26 154.8, 396.45 0.12 M0.32 468.01 C98.74 354.98, 197.11 242.85, 407.08 0.09 M0.32 468.01 C110.1 343.56, 219.77 217.53, 407.08 0.09 M0.46 480.05 C102.71 361.49, 203.49 244.79, 417.71 0.06 M0.46 480.05 C150.57 307.72, 302.13 133.51, 417.71 0.06 M-0.07 492.85 C114.79 360.24, 230.79 226.04, 428.34 0.02 M-0.07 492.85 C86.63 392.63, 173.15 293.07, 428.34 0.02 M0.07 504.89 C129.79 359.32, 257.02 211.3, 438.97 -0.01 M0.07 504.89 C92.98 394.46, 187.86 285.77, 438.97 -0.01 M0.2 516.93 C165.39 327.93, 330.58 137.2, 449.6 -0.05 M0.2 516.93 C135.95 357.66, 272.21 200.64, 449.6 -0.05 M0.33 528.97 C106.1 406.7, 212.63 286, 460.23 -0.08 M0.33 528.97 C127.88 380.87, 256.31 233.53, 460.23 -0.08 M0.47 541.01 C105.64 422.01, 208.02 304.2, 470.86 -0.12 M0.47 541.01 C140.16 381.64, 280.07 221.08, 470.86 -0.12 M-0.06 553.81 C126.73 406.65, 253.33 259.57, 481.49 -0.15 M-0.06 553.81 C145.7 385.17, 292.38 216.94, 481.49 -0.15 M0.08 565.85 C115.74 431.6, 232.66 297.12, 492.12 -0.19 M0.08 565.85 C131.78 413.68, 263.05 262.42, 492.12 -0.19 M0.21 577.89 C163.69 388.62, 326.87 201.58, 502.75 -0.22 M0.21 577.89 C106.02 453.7, 213.2 330.06, 502.75 -0.22 M0.34 589.93 C192.03 369.69, 384.68 147.94, 513.38 -0.25 M0.34 589.93 C138 428.06, 276.98 268.4, 513.38 -0.25 M0.48 601.97 C145.06 435.42, 290.81 268.22, 523.35 0.47 M0.48 601.97 C158.87 423.89, 315.66 243.88, 523.35 0.47 M-0.05 614.76 C165.15 423.8, 332.59 232.91, 533.98 0.43 M-0.05 614.76 C180 407.55, 358.71 202.72, 533.98 0.43 M0.09 626.81 C173.31 428.2, 345.04 230.19, 544.61 0.4 M0.09 626.81 C121.35 489.64, 241.83 351.63, 544.61 0.4 M0.22 638.85 C140.83 478.2, 281.39 316.98, 555.24 0.36 M0.22 638.85 C138.92 479.42, 277.87 319.05, 555.24 0.36 M0.35 650.89 C210.38 411.28, 417.02 172.26, 565.87 0.33 M0.35 650.89 C118.24 518.99, 234.13 385.73, 565.87 0.33 M0.49 662.93 C198.23 431.51, 397.19 203.05, 576.5 0.29 M0.49 662.93 C222.87 409.89, 443.72 155.37, 576.5 0.29 M-0.04 675.72 C168.37 479.62, 337.13 285.47, 587.14 0.26 M-0.04 675.72 C147.92 508.81, 294.69 340.31, 587.14 0.26 M0.1 687.76 C154.16 509.24, 309.59 328.94, 597.77 0.22 M0.1 687.76 C158.79 507.31, 316.35 325.87, 597.77 0.22 M0.23 699.81 C161.83 510.98, 325.17 323.61, 608.4 0.19 M0.23 699.81 C194.4 476.98, 389.79 251.74, 608.4 0.19 M0.36 711.85 C125.32 568.91, 251.61 423.8, 619.03 0.16 M0.36 711.85 C243.96 432.34, 486.71 153.29, 619.03 0.16 M0.49 723.89 C144.34 558.71, 285.85 394.64, 629.66 0.12 M0.49 723.89 C223.39 467.13, 446.89 210.01, 629.66 0.12 M-0.03 736.68 C198.2 507.51, 395.37 278, 640.29 0.09 M-0.03 736.68 C154.47 560.32, 307.13 385.18, 640.29 0.09 M0.11 748.72 C137.65 590.4, 278.57 428.87, 650.92 0.05 M0.11 748.72 C161.99 559.97, 326.69 371.03, 650.92 0.05 M0.24 760.76 C159.85 574.87, 322.39 388.52, 661.55 0.02 M0.24 760.76 C160.39 578.53, 317.81 397.74, 661.55 0.02 M0.37 772.81 C143.39 607.41, 287.56 440.59, 672.18 -0.02 M0.37 772.81 C196.67 551.38, 390.52 328.67, 672.18 -0.02 M0.5 784.85 C140.16 618.27, 283.9 454.97, 682.81 -0.05 M0.5 784.85 C273.86 470.77, 546.79 157.28, 682.81 -0.05 M-0.02 797.64 C236.22 523.35, 473.01 249.48, 693.44 -0.09 M-0.02 797.64 C207.75 554.4, 416.2 314.29, 693.44 -0.09 M0.11 809.68 C233.95 543.74, 464.43 276.89, 704.07 -0.12 M0.11 809.68 C206.84 569.93, 415.94 329.14, 704.07 -0.12 M0.25 821.72 C169.83 623.99, 341.77 425.51, 714.7 -0.16 M0.25 821.72 C217.97 576.66, 433.41 328.39, 714.7 -0.16 M0.38 833.76 C196.35 610.36, 390.68 385.72, 725.33 -0.19 M0.38 833.76 C202.59 604.52, 402.94 373.89, 725.33 -0.19 M0.51 845.81 C209.78 604.49, 420.98 361.57, 735.96 -0.22 M0.51 845.81 C196.74 616.86, 393.73 389.81, 735.96 -0.22 M-0.01 858.6 C161.62 673.66, 324 487.27, 746.59 -0.26 M-0.01 858.6 C186.61 647.23, 371.99 433.48, 746.59 -0.26 M0.12 870.64 C291.14 532.77, 584.2 196.65, 756.56 0.46 M0.12 870.64 C261.32 568.86, 524.63 265.53, 756.56 0.46 M0.26 882.68 C230.39 615.69, 459.58 351.99, 767.19 0.43 M0.26 882.68 C229.07 622.51, 456.35 361.43, 767.19 0.43 M0.39 894.72 C297.49 549.48, 595.44 208.09, 777.82 0.39 M0.39 894.72 C203.24 663.33, 402.57 433.26, 777.82 0.39 M0.52 906.76 C291.57 569.88, 581.94 237.23, 788.45 0.36 M0.52 906.76 C214.03 659.93, 426.35 416.95, 788.45 0.36 M0 919.56 C192.78 699.58, 385.7 477.15, 799.08 0.32 M0 919.56 C224.12 665.47, 446.9 409.3, 799.08 0.32 M0.13 931.6 C169.58 736.31, 339.63 540.73, 809.71 0.29 M0.13 931.6 C312.81 574.52, 624.93 215.7, 809.71 0.29 M0.27 943.64 C220.84 690.95, 439.15 440.81, 820.34 0.25 M0.27 943.64 C220.75 688.26, 441.33 434.12, 820.34 0.25 M0.4 955.68 C284.71 628.91, 570.56 301.67, 830.97 0.22 M0.4 955.68 C193.95 730.36, 389.26 505.52, 830.97 0.22 M0.53 967.72 C238.7 689.24, 481.73 411, 841.6 0.19 M0.53 967.72 C205.94 727.65, 414.85 487.99, 841.6 0.19 M0.01 980.52 C181.25 773.41, 362.86 565.41, 852.23 0.15 M0.01 980.52 C318.68 615.94, 636.29 250.99, 852.23 0.15 M0.14 992.56 C235.4 725.51, 468.79 457.54, 862.86 0.12 M0.14 992.56 C179.91 785.88, 358.75 579.93, 862.86 0.12 M0.28 1004.6 C171.99 805.46, 348.31 603.35, 873.49 0.08 M0.28 1004.6 C282.86 676.17, 565.97 350.73, 873.49 0.08 M0.41 1016.64 C270.11 703.97, 544.58 389.36, 884.12 0.05 M0.41 1016.64 C270.05 704.53, 541 392.96, 884.12 0.05 M0.54 1028.68 C192.03 800.62, 386.45 576.28, 894.75 0.01 M0.54 1028.68 C347.3 634.23, 690.32 238.74, 894.75 0.01 M0.02 1041.48 C213.75 796.04, 424.27 555.49, 905.38 -0.02 M0.02 1041.48 C251.31 757.53, 499.45 471.89, 905.38 -0.02 M0.15 1053.52 C280.83 733.13, 560.2 412.51, 916.01 -0.06 M0.15 1053.52 C198.09 828.04, 395.19 601.52, 916.01 -0.06 M0.29 1065.56 C362.17 645.39, 727.8 225.67, 926.64 -0.09 M0.29 1065.56 C190.54 842.97, 382.43 622.49, 926.64 -0.09 M0.42 1077.6 C216.36 825.71, 435.82 573.41, 937.27 -0.12 M0.42 1077.6 C234.69 807.65, 466.81 540.43, 937.27 -0.12 M-0.1 1090.4 C273.81 777.39, 545.56 464.24, 947.9 -0.16 M-0.1 1090.4 C348.24 683.97, 700.06 278.85, 947.9 -0.16 M0.03 1102.44 C301.42 761.93, 598.07 420.18, 958.53 -0.19 M0.03 1102.44 C270.8 786.72, 543.01 473.98, 958.53 -0.19 M0.16 1114.48 C313.07 747.91, 628.76 383.68, 969.16 -0.23 M0.16 1114.48 C197.23 886.96, 392.75 662.22, 969.16 -0.23 M0.3 1126.52 C367.37 707.42, 731.11 288.92, 979.79 -0.26 M0.3 1126.52 C282.43 801.69, 567.51 473.65, 979.79 -0.26 M0.43 1138.56 C264.03 836.7, 527.04 532.6, 989.77 0.46 M0.43 1138.56 C298.18 794.21, 596.1 451.51, 989.77 0.46 M-0.09 1151.35 C382.15 713.98, 763.96 274.24, 1000.4 0.42 M-0.09 1151.35 C205.36 913.21, 413.7 674.32, 1000.4 0.42 M0.04 1163.4 C399.3 712.33, 795.21 257.3, 1011.03 0.39 M0.04 1163.4 C245.84 882.5, 491.72 599.61, 1011.03 0.39 M0.17 1175.44 C250.7 890.21, 495.91 606.91, 1021.66 0.35 M0.17 1175.44 C350.65 771.41, 698.29 370.84, 1021.66 0.35 M0.31 1187.48 C323.77 818.68, 644.9 448.8, 1032.29 0.32 M0.31 1187.48 C382.24 754.98, 761.53 319.07, 1032.29 0.32 M0.44 1199.52 C396.34 745.82, 789.89 293.17, 1042.92 0.28 M0.44 1199.52 C379.93 763.55, 760.26 326.56, 1042.92 0.28 M-0.08 1212.31 C393.01 758.72, 786.48 307.68, 1053.55 0.25 M-0.08 1212.31 C402.5 744.17, 807.15 278.3, 1053.55 0.25 M0.05 1224.35 C376.1 791.09, 751.72 359.29, 1064.18 0.22 M0.05 1224.35 C343.19 826.77, 688.84 429.94, 1064.18 0.22 M0.18 1236.4 C266.99 920.57, 538.15 608.88, 1074.81 0.18 M0.18 1236.4 C398.89 776.29, 797.16 317.8, 1074.81 0.18 M0.32 1248.44 C277.63 928.88, 557.95 607.87, 1085.44 0.15 M0.32 1248.44 C253.83 957.3, 505.79 667.25, 1085.44 0.15 M0.45 1260.48 C392.87 813.1, 786.21 361.88, 1096.07 0.11 M0.45 1260.48 C408.86 790.29, 820.96 316.1, 1096.07 0.11 M-0.07 1273.27 C352.9 872.72, 701.73 470.33, 1106.7 0.08 M-0.07 1273.27 C296.02 928.84, 594.67 585.23, 1106.7 0.08 M0.06 1285.31 C253.3 990.98, 506.95 698.59, 1117.33 0.04 M0.06 1285.31 C238.4 1008.02, 478.09 731.99, 1117.33 0.04 M0.19 1297.35 C313.76 927.82, 632.05 561.77, 1127.96 0.01 M0.19 1297.35 C432.68 798.95, 869.3 296.77, 1127.96 0.01 M0.33 1309.4 C372.59 873.41, 748.23 440.12, 1138.59 -0.03 M0.33 1309.4 C310.69 951.36, 620.44 595.04, 1138.59 -0.03 M0.46 1321.44 C277.48 998.86, 555.65 677.46, 1149.22 -0.06 M0.46 1321.44 C350.54 919.72, 699.51 518.45, 1149.22 -0.06 M-0.06 1334.23 C316.56 975.21, 629.52 615.28, 1159.85 -0.09 M-0.06 1334.23 C350.71 931.83, 699.97 529.64, 1159.85 -0.09 M0.07 1346.27 C246.59 1059.61, 494.46 774.04, 1170.48 -0.13 M0.07 1346.27 C359.48 933.38, 719.18 520.3, 1170.48 -0.13 M0.2 1358.31 C449.76 843.38, 893.11 331.52, 1181.11 -0.16 M0.2 1358.31 C267.74 1055.7, 532.14 751.45, 1181.11 -0.16 M0.33 1370.35 C405.12 906.2, 810.9 439.86, 1191.74 -0.2 M0.33 1370.35 C306.58 1026.92, 608.66 680, 1191.74 -0.2 M1.78 1380.89 C383.85 948.48, 762.44 513.6, 1202.37 -0.23 M1.78 1380.89 C399 920.81, 797.12 462, 1202.37 -0.23 M5.19 1389.15 C373.67 963.77, 743.94 537.63, 1213 -0.27 M5.19 1389.15 C445.57 878.34, 891.18 365.53, 1213 -0.27 M10.58 1395.16 C353 1006.81, 693.8 615.71, 1222.97 0.45 M10.58 1395.16 C352.48 997.68, 697.72 601.1, 1222.97 0.45 M17.27 1399.65 C412.43 951.61, 805.21 501.44, 1233.6 0.42 M17.27 1399.65 C321.64 1055.54, 622.57 709.91, 1233.6 0.42 M26.59 1401.13 C516.72 843.97, 1003.31 285.41, 1244.23 0.38 M26.59 1401.13 C406.3 966.86, 783.73 532.2, 1244.23 0.38 M36.56 1401.85 C432.4 947.58, 831.44 489.47, 1254.86 0.35 M36.56 1401.85 C340.54 1047.47, 646.27 696.65, 1254.86 0.35 M47.19 1401.81 C448.85 939.57, 849.68 480.34, 1265.49 0.32 M47.19 1401.81 C293.46 1108.36, 544.34 819.91, 1265.49 0.32 M57.17 1402.53 C541.81 850.03, 1024.68 294.6, 1276.12 0.28 M57.17 1402.53 C432.44 968.26, 811.49 531.97, 1276.12 0.28 M67.8 1402.5 C382.46 1047.06, 694.51 687.91, 1286.75 0.25 M67.8 1402.5 C478.93 931.7, 890.26 458.17, 1286.75 0.25 M78.43 1402.46 C483.51 937.4, 889.48 471.41, 1297.38 0.21 M78.43 1402.46 C482.97 943.24, 884.74 481.6, 1297.38 0.21 M89.06 1402.43 C459.67 973.7, 830.04 546.86, 1308.01 0.18 M89.06 1402.43 C386.2 1066.35, 679.59 729.32, 1308.01 0.18 M99.69 1402.39 C428.07 1021.47, 760.3 640.09, 1318.64 0.14 M99.69 1402.39 C555.8 882.81, 1011.43 358.89, 1318.64 0.14 M110.32 1402.36 C508.38 946.47, 900.6 493.79, 1329.27 0.11 M110.32 1402.36 C369.4 1097.43, 634.28 793.23, 1329.27 0.11 M120.95 1402.32 C464.22 1002.96, 808.92 606.45, 1339.9 0.07 M120.95 1402.32 C469.65 1004.56, 813.2 608.86, 1339.9 0.07 M131.58 1402.29 C484.76 994.35, 843.38 581.83, 1350.53 0.04 M131.58 1402.29 C548.13 926.97, 962.95 450.29, 1350.53 0.04 M142.21 1402.26 C587.14 891.56, 1029.79 383.23, 1361.16 0 M142.21 1402.26 C462.64 1036.46, 781.38 669.81, 1361.16 0 M152.84 1402.22 C552.93 932.57, 957.12 466.38, 1371.79 -0.03 M152.84 1402.22 C455.02 1050.96, 760.74 699.57, 1371.79 -0.03 M163.47 1402.19 C457.93 1065.25, 749.27 728.37, 1382.42 -0.06 M163.47 1402.19 C517.84 997.14, 867.15 594.98, 1382.42 -0.06 M174.1 1402.15 C514.08 1009.63, 858.01 614.52, 1393.05 -0.1 M174.1 1402.15 C605.81 900.18, 1042.22 398.57, 1393.05 -0.1 M184.73 1402.12 C648.17 874.49, 1106.78 346.85, 1403.68 -0.13 M184.73 1402.12 C550.95 977.31, 918.65 553.49, 1403.68 -0.13 M195.36 1402.08 C590.7 952.18, 980.92 502.21, 1414.31 -0.17 M195.36 1402.08 C486.53 1062.65, 780.56 725.22, 1414.31 -0.17 M205.99 1402.05 C643.12 897.27, 1085.26 389.41, 1424.94 -0.2 M205.99 1402.05 C476 1093.37, 744.24 784.83, 1424.94 -0.2 M216.62 1402.01 C653.53 903.96, 1086.2 405.74, 1435.57 -0.24 M216.62 1402.01 C512.64 1058.79, 812.24 714.3, 1435.57 -0.24 M227.25 1401.98 C618.8 953.15, 1012.33 501.79, 1446.2 -0.27 M227.25 1401.98 C615.24 948.48, 1009.2 496.49, 1446.2 -0.27 M237.88 1401.94 C513.18 1093.54, 785.16 779.78, 1455.52 1.2 M237.88 1401.94 C586.76 997.65, 939.64 591.96, 1455.52 1.2 M248.51 1401.91 C627.84 971.81, 1005.84 535.86, 1464.18 3.43 M248.51 1401.91 C560.23 1041.46, 876.19 677.83, 1464.18 3.43 M259.14 1401.88 C620.52 987.15, 980.95 572.61, 1471.53 7.17 M259.14 1401.88 C569.6 1041.86, 880.18 684.34, 1471.53 7.17 M269.77 1401.84 C645.57 969, 1022.71 535.32, 1476.26 13.93 M269.77 1401.84 C575.58 1054.41, 877.7 706.01, 1476.26 13.93 M280.4 1401.81 C611.77 1018.54, 942.73 638.67, 1479.67 22.2 M280.4 1401.81 C756.38 854.35, 1235.86 302.32, 1479.67 22.2 M290.37 1402.53 C584.43 1065.52, 875.72 728.05, 1481.12 32.73 M290.37 1402.53 C624.17 1019.13, 961.19 630.45, 1481.12 32.73 M301 1402.49 C767.46 871.4, 1232.28 337.24, 1481.25 44.77 M301 1402.49 C698.98 941.98, 1103.15 477.99, 1481.25 44.77 M311.63 1402.46 C729.54 920.66, 1146.53 440.8, 1481.38 56.81 M311.63 1402.46 C683.22 976.29, 1050.76 554.33, 1481.38 56.81 M322.26 1402.42 C570.13 1115.9, 816.58 833.22, 1481.52 68.85 M322.26 1402.42 C634.19 1041.5, 951.64 676.69, 1481.52 68.85 M332.89 1402.39 C588.91 1103.29, 850.26 805.02, 1481.65 80.89 M332.89 1402.39 C645.21 1049.01, 952.73 694.57, 1481.65 80.89 M343.52 1402.35 C608.44 1101.31, 867.62 802.16, 1481.13 93.69 M343.52 1402.35 C746.52 940.28, 1149.82 476.48, 1481.13 93.69 M354.15 1402.32 C760.85 925.37, 1172.86 451.83, 1481.26 105.73 M354.15 1402.32 C623.2 1094.73, 892.35 784.43, 1481.26 105.73 M364.78 1402.29 C660 1055.03, 959.09 709.96, 1481.39 117.77 M364.78 1402.29 C710.68 996.96, 1060.33 594.86, 1481.39 117.77 M375.41 1402.25 C614.99 1128.75, 851.41 856.11, 1481.53 129.81 M375.41 1402.25 C692.86 1031.96, 1014.59 662.55, 1481.53 129.81 M386.04 1402.22 C697.87 1036, 1013.42 672.24, 1481.66 141.85 M386.04 1402.22 C660.6 1088.99, 931.27 778.55, 1481.66 141.85 M396.67 1402.18 C777.29 966.89, 1153.19 534.25, 1481.14 154.65 M396.67 1402.18 C674.86 1087.19, 950.17 770.28, 1481.14 154.65 M407.3 1402.15 C818.08 932.1, 1225.33 464.12, 1481.27 166.69 M407.3 1402.15 C642.97 1127.54, 880.29 855.11, 1481.27 166.69 M417.93 1402.11 C701.28 1069.17, 986.89 741.16, 1481.4 178.73 M417.93 1402.11 C771.62 998.1, 1121.94 594.95, 1481.4 178.73 M428.56 1402.08 C810.26 965.55, 1186.84 530.09, 1481.54 190.77 M428.56 1402.08 C717.63 1076.08, 1002.46 748.22, 1481.54 190.77 M439.19 1402.04 C658.24 1142.71, 880.95 886.67, 1481.67 202.81 M439.19 1402.04 C741.32 1060.48, 1039.09 718.43, 1481.67 202.81 M449.82 1402.01 C838.6 954.29, 1228.72 503.9, 1481.15 215.61 M449.82 1402.01 C865.12 932.02, 1276.9 457.56, 1481.15 215.61 M460.45 1401.97 C817.16 990.45, 1173.06 581.66, 1481.28 227.65 M460.45 1401.97 C721.88 1100.09, 988.27 793.68, 1481.28 227.65 M471.08 1401.94 C797.3 1024.91, 1123.45 649.2, 1481.41 239.69 M471.08 1401.94 C854.31 962.39, 1237.17 522.17, 1481.41 239.69 M481.71 1401.91 C856.59 969.23, 1231.3 539.39, 1481.55 251.73 M481.71 1401.91 C841.74 989.79, 1202.61 573.58, 1481.55 251.73 M492.34 1401.87 C692.28 1169.25, 894.3 936.55, 1481.68 263.77 M492.34 1401.87 C840 1004.81, 1186.92 605.89, 1481.68 263.77 M502.97 1401.84 C808.93 1047.98, 1120.22 690.1, 1481.16 276.56 M502.97 1401.84 C760.92 1102.2, 1018.3 806.62, 1481.16 276.56 M513.6 1401.8 C869.05 992.57, 1225.31 582.29, 1481.29 288.61 M513.6 1401.8 C728.04 1149.92, 945.13 900.72, 1481.29 288.61 M523.58 1402.52 C847.71 1028.64, 1172.91 654.18, 1481.42 300.65 M523.58 1402.52 C727.54 1169.81, 926.9 939.71, 1481.42 300.65 M534.21 1402.49 C811.64 1085.47, 1088.03 768.66, 1481.56 312.69 M534.21 1402.49 C800.42 1097.93, 1062.8 795.37, 1481.56 312.69 M544.84 1402.45 C857.48 1041.83, 1168.59 684.07, 1481.69 324.73 M544.84 1402.45 C743.55 1172.6, 942.87 943.66, 1481.69 324.73 M555.47 1402.42 C908.37 995.78, 1258.43 592.52, 1481.17 337.52 M555.47 1402.42 C884.52 1024.98, 1216.39 643.84, 1481.17 337.52 M566.1 1402.38 C857.97 1066.38, 1149.92 730.96, 1481.3 349.56 M566.1 1402.38 C796.12 1135.38, 1029.48 866.83, 1481.3 349.56 M576.73 1402.35 C912.87 1014.1, 1249.49 625.79, 1481.43 361.61 M576.73 1402.35 C831.7 1106.37, 1086.57 813.14, 1481.43 361.61 M587.36 1402.32 C812.41 1141.66, 1040.09 879.09, 1481.57 373.65 M587.36 1402.32 C846.57 1107.59, 1103.66 812.29, 1481.57 373.65 M597.99 1402.28 C895.76 1057.25, 1197 711.9, 1481.7 385.69 M597.99 1402.28 C800.51 1162.11, 1006.61 925.51, 1481.7 385.69 M608.62 1402.25 C807.44 1178.04, 1003.34 953.16, 1481.18 398.48 M608.62 1402.25 C810.92 1172.76, 1009.37 944.39, 1481.18 398.48 M619.25 1402.21 C866.32 1118.46, 1111.86 837.69, 1481.31 410.52 M619.25 1402.21 C937.63 1041.97, 1252.21 678.74, 1481.31 410.52 M629.88 1402.18 C834.8 1160.44, 1043.88 920.94, 1481.44 422.56 M629.88 1402.18 C937.47 1045.92, 1247.56 689.11, 1481.44 422.56 M640.51 1402.14 C918.78 1079.15, 1202.43 755.42, 1481.58 434.61 M640.51 1402.14 C813.15 1204.45, 982.26 1009.24, 1481.58 434.61 M651.14 1402.11 C870.02 1147.05, 1089.11 896.13, 1481.71 446.65 M651.14 1402.11 C946.49 1061.74, 1240.56 723.69, 1481.71 446.65 M661.77 1402.07 C958.59 1060.93, 1254.26 721.68, 1481.19 459.44 M661.77 1402.07 C853.23 1181.21, 1043.33 962.33, 1481.19 459.44 M672.4 1402.04 C965.09 1068.26, 1258.23 732.64, 1481.32 471.48 M672.4 1402.04 C854.18 1198.58, 1033.19 993.18, 1481.32 471.48 M683.03 1402.01 C965.53 1074.36, 1247.69 750.33, 1481.45 483.52 M683.03 1402.01 C932.64 1109.62, 1185.5 819.37, 1481.45 483.52 M693.66 1401.97 C968.03 1084.37, 1242.23 768.17, 1481.59 495.56 M693.66 1401.97 C978.03 1077.49, 1262.19 750.47, 1481.59 495.56 M704.29 1401.94 C888.75 1187.94, 1073.92 973.39, 1481.72 507.61 M704.29 1401.94 C923.62 1149.36, 1143.51 896.29, 1481.72 507.61 M714.92 1401.9 C992.2 1081.48, 1272.97 758.14, 1481.2 520.4 M714.92 1401.9 C972.62 1106.39, 1229.9 811.02, 1481.2 520.4 M725.55 1401.87 C931.67 1160.61, 1140.01 919.47, 1481.33 532.44 M725.55 1401.87 C977.35 1112.81, 1225.93 826, 1481.33 532.44 M736.18 1401.83 C951.94 1154.19, 1165.47 906.54, 1481.46 544.48 M736.18 1401.83 C943.53 1167.67, 1149.12 930.97, 1481.46 544.48 M746.81 1401.8 C932.42 1190.86, 1118.7 975.98, 1481.59 556.52 M746.81 1401.8 C910.07 1212.41, 1072.57 1025.33, 1481.59 556.52 M756.78 1402.52 C987.72 1134.99, 1217.38 869.07, 1481.73 568.56 M756.78 1402.52 C963.05 1168, 1169.09 931.02, 1481.73 568.56 M767.41 1402.48 C972.68 1162.14, 1180.11 923.32, 1481.21 581.36 M767.41 1402.48 C978.44 1162.15, 1187.97 922.04, 1481.21 581.36 M778.04 1402.45 C1051.75 1085.75, 1328.11 767.17, 1481.34 593.4 M778.04 1402.45 C936.75 1220.51, 1096.76 1037.29, 1481.34 593.4 M788.67 1402.42 C951.3 1213.49, 1115.39 1023.08, 1481.47 605.44 M788.67 1402.42 C963.3 1205.82, 1135.57 1007.3, 1481.47 605.44 M799.3 1402.38 C1055.98 1106.38, 1314.97 809.75, 1481.6 617.48 M799.3 1402.38 C1033.75 1134.44, 1268.74 864.64, 1481.6 617.48 M809.93 1402.35 C1000.27 1186.72, 1188.66 970.84, 1481.74 629.52 M809.93 1402.35 C1054.29 1124.84, 1295.42 847.33, 1481.74 629.52 M820.56 1402.31 C1002.46 1195.78, 1183.91 986.81, 1481.21 642.32 M820.56 1402.31 C981.67 1221.7, 1141 1038.85, 1481.21 642.32 M831.19 1402.28 C1044.13 1154.33, 1258.16 907.22, 1481.35 654.36 M831.19 1402.28 C1002.11 1202.73, 1176.41 1002.33, 1481.35 654.36 M841.82 1402.24 C973.14 1248.48, 1107.38 1094.21, 1481.48 666.4 M841.82 1402.24 C1029.21 1185.57, 1216.53 969.65, 1481.48 666.4 M852.45 1402.21 C1001.7 1232.79, 1147.42 1063.78, 1481.61 678.44 M852.45 1402.21 C1094.34 1123.82, 1334.23 847.52, 1481.61 678.44 M863.08 1402.17 C1011.85 1232.17, 1160.78 1060.03, 1481.75 690.48 M863.08 1402.17 C1011.92 1226, 1163.95 1051.43, 1481.75 690.48 M873.71 1402.14 C1096.35 1148.42, 1316.66 894.71, 1481.22 703.28 M873.71 1402.14 C1042.91 1207.78, 1212.85 1011.71, 1481.22 703.28 M884.34 1402.1 C1101.8 1148.66, 1319.1 898.01, 1481.36 715.32 M884.34 1402.1 C1007.73 1260.34, 1133.04 1116.83, 1481.36 715.32 M894.97 1402.07 C1029.52 1244.25, 1163.41 1089.67, 1481.49 727.36 M894.97 1402.07 C1077.47 1193.32, 1260.71 982.69, 1481.49 727.36 M905.6 1402.04 C1079.06 1199.01, 1255.04 997.74, 1481.62 739.4 M905.6 1402.04 C1059.33 1224.36, 1212.8 1048.1, 1481.62 739.4 M916.23 1402 C1070.11 1223.1, 1223.32 1045.4, 1481.1 752.2 M916.23 1402 C1135.68 1148.53, 1356.15 895.33, 1481.1 752.2 M926.86 1401.97 C1096.99 1205.37, 1271.25 1006.39, 1481.23 764.24 M926.86 1401.97 C1074.1 1229.21, 1222.73 1058.33, 1481.23 764.24 M937.49 1401.93 C1080.09 1239.41, 1221.58 1077.14, 1481.37 776.28 M937.49 1401.93 C1047.63 1276.46, 1157.01 1150.91, 1481.37 776.28 M948.12 1401.9 C1147.36 1172.57, 1346.17 942.65, 1481.5 788.32 M948.12 1401.9 C1071.08 1258.68, 1195.79 1115.88, 1481.5 788.32 M958.75 1401.86 C1114.08 1225.24, 1266.59 1048.72, 1481.63 800.36 M958.75 1401.86 C1168.4 1164.16, 1376.1 925.47, 1481.63 800.36 M969.38 1401.83 C1073.59 1277.97, 1179.14 1157.13, 1481.11 813.16 M969.38 1401.83 C1149.35 1195.5, 1327.41 989.74, 1481.11 813.16 M980.01 1401.79 C1082.73 1284.14, 1185.83 1165.16, 1481.24 825.2 M980.01 1401.79 C1080.99 1283.55, 1182.65 1166.89, 1481.24 825.2 M989.99 1402.51 C1117.42 1255.79, 1245.25 1109.36, 1481.38 837.24 M989.99 1402.51 C1172.8 1193.55, 1355.29 982.32, 1481.38 837.24 M1000.62 1402.48 C1172.78 1203.69, 1346.5 1003.24, 1481.51 849.28 M1000.62 1402.48 C1099.35 1285.81, 1199.3 1171.76, 1481.51 849.28 M1011.25 1402.45 C1158.88 1233.84, 1304.86 1066.58, 1481.64 861.32 M1011.25 1402.45 C1117.51 1278.74, 1224.54 1155.59, 1481.64 861.32 M1021.88 1402.41 C1140.37 1267.81, 1257.39 1131.96, 1481.12 874.11 M1021.88 1402.41 C1190.39 1208.63, 1359.87 1013.02, 1481.12 874.11 M1032.51 1402.38 C1153.31 1262.88, 1274.71 1124.55, 1481.25 886.16 M1032.51 1402.38 C1125.85 1291.57, 1220.93 1182.6, 1481.25 886.16 M1043.14 1402.34 C1180.46 1245.31, 1316.62 1088.28, 1481.39 898.2 M1043.14 1402.34 C1138.58 1290.11, 1235.2 1179.49, 1481.39 898.2 M1053.77 1402.31 C1216.74 1213.42, 1380.38 1024.99, 1481.52 910.24 M1053.77 1402.31 C1216.52 1211.7, 1381.29 1023.41, 1481.52 910.24 M1064.4 1402.27 C1186.73 1262.31, 1308.46 1123.35, 1481.65 922.28 M1064.4 1402.27 C1172.18 1279.37, 1277.62 1157.93, 1481.65 922.28 M1075.03 1402.24 C1165.33 1301.33, 1252.84 1198.53, 1481.13 935.07 M1075.03 1402.24 C1226.63 1225.56, 1379.55 1049.42, 1481.13 935.07 M1085.66 1402.2 C1195.28 1274.58, 1306.49 1146.67, 1481.26 947.11 M1085.66 1402.2 C1219.55 1249.46, 1353.18 1095.66, 1481.26 947.11 M1096.29 1402.17 C1206.32 1275.85, 1314.62 1149.2, 1481.4 959.15 M1096.29 1402.17 C1245.52 1227.15, 1397.1 1053.77, 1481.4 959.15 M1106.92 1402.13 C1219.06 1274.37, 1329.96 1146.64, 1481.53 971.2 M1106.92 1402.13 C1221.81 1268.65, 1336.87 1136.58, 1481.53 971.2 M1117.55 1402.1 C1195.29 1311.78, 1273.92 1223.36, 1481.66 983.24 M1117.55 1402.1 C1263.67 1236.07, 1408.21 1069.25, 1481.66 983.24 M1128.18 1402.07 C1233.87 1280.69, 1339.1 1159.61, 1481.14 996.03 M1128.18 1402.07 C1255.74 1255.23, 1384.5 1107.13, 1481.14 996.03 M1138.81 1402.03 C1265.7 1252.83, 1393.48 1106.06, 1481.27 1008.07 M1138.81 1402.03 C1251.93 1272.81, 1365.79 1142.82, 1481.27 1008.07 M1149.44 1402 C1271.01 1263.49, 1391.69 1125.11, 1481.41 1020.11 M1149.44 1402 C1244.53 1293.97, 1337.9 1186.21, 1481.41 1020.11 M1160.07 1401.96 C1244.68 1303.78, 1329.49 1206.23, 1481.54 1032.15 M1160.07 1401.96 C1254.97 1292.54, 1351.23 1182.01, 1481.54 1032.15 M1170.7 1401.93 C1264.61 1293.34, 1360.5 1183.21, 1481.67 1044.2 M1170.7 1401.93 C1232.77 1331.53, 1295.08 1258.83, 1481.67 1044.2 M1181.33 1401.89 C1274.8 1291.73, 1368.48 1183.89, 1481.15 1056.99 M1181.33 1401.89 C1295.26 1273.34, 1408.36 1142.65, 1481.15 1056.99 M1191.96 1401.86 C1270.21 1311.26, 1347.77 1220.98, 1481.28 1069.03 M1191.96 1401.86 C1260.05 1324.32, 1326.64 1247.31, 1481.28 1069.03 M1202.59 1401.82 C1280.82 1308.69, 1360.69 1217.65, 1481.42 1081.07 M1202.59 1401.82 C1262.46 1332.95, 1320.88 1265.1, 1481.42 1081.07 M1213.22 1401.79 C1301.96 1297.29, 1391.61 1191.94, 1481.55 1093.11 M1213.22 1401.79 C1279.31 1324.34, 1347.53 1246.64, 1481.55 1093.11 M1223.19 1402.51 C1292.16 1322.33, 1360.09 1244.81, 1481.68 1105.15 M1223.19 1402.51 C1276.24 1339.17, 1330.14 1277.11, 1481.68 1105.15 M1233.82 1402.48 C1310.53 1313.97, 1388.08 1226.82, 1481.16 1117.95 M1233.82 1402.48 C1311.22 1315.98, 1386.51 1228.65, 1481.16 1117.95 M1244.45 1402.44 C1311.13 1325.5, 1377.36 1249.58, 1481.29 1129.99 M1244.45 1402.44 C1327.91 1303.79, 1413.15 1206.94, 1481.29 1129.99 M1255.08 1402.41 C1330.44 1317.02, 1402.66 1233.7, 1481.43 1142.03 M1255.08 1402.41 C1304.08 1345.55, 1352.77 1289.63, 1481.43 1142.03 M1265.71 1402.37 C1326.71 1334.39, 1387.58 1261.66, 1481.56 1154.07 M1265.71 1402.37 C1309.18 1353.03, 1352.83 1302.56, 1481.56 1154.07 M1276.35 1402.34 C1329.27 1341.96, 1381.99 1281.12, 1481.69 1166.11 M1276.35 1402.34 C1348.74 1318.02, 1423.58 1232.19, 1481.69 1166.11 M1286.98 1402.3 C1357.79 1320.66, 1429.21 1239.62, 1481.17 1178.91 M1286.98 1402.3 C1338.34 1341.96, 1390.95 1281, 1481.17 1178.91 M1297.61 1402.27 C1351.98 1335.4, 1409.49 1272.14, 1481.3 1190.95 M1297.61 1402.27 C1350.64 1339, 1405.89 1276.09, 1481.3 1190.95 M1308.24 1402.23 C1365.75 1336.44, 1424.65 1269.59, 1481.43 1202.99 M1308.24 1402.23 C1350.49 1354.24, 1391.93 1306.63, 1481.43 1202.99 M1318.87 1402.2 C1350.89 1362.11, 1385.08 1326.39, 1481.57 1215.03 M1318.87 1402.2 C1375.84 1336.7, 1432.19 1272.76, 1481.57 1215.03 M1329.5 1402.17 C1381.49 1341.58, 1436.97 1281.62, 1481.7 1227.07 M1329.5 1402.17 C1386.44 1337, 1444.21 1271.98, 1481.7 1227.07 M1340.13 1402.13 C1372.42 1366.99, 1402.99 1330.89, 1481.18 1239.87 M1340.13 1402.13 C1395.41 1337.78, 1450.93 1272.8, 1481.18 1239.87 M1350.76 1402.1 C1388.68 1363.46, 1424.27 1322.01, 1481.31 1251.91 M1350.76 1402.1 C1387.85 1359.41, 1426.26 1316.29, 1481.31 1251.91 M1361.39 1402.06 C1399.07 1356.4, 1439.83 1310.12, 1481.44 1263.95 M1361.39 1402.06 C1399.79 1359.62, 1436.41 1316.85, 1481.44 1263.95 M1372.02 1402.03 C1406.37 1361.26, 1444.67 1317.98, 1481.58 1275.99 M1372.02 1402.03 C1415.59 1352.29, 1457 1302.62, 1481.58 1275.99 M1382.65 1401.99 C1410.93 1369.4, 1439.56 1334.57, 1481.71 1288.03 M1382.65 1401.99 C1414.29 1365.6, 1445.87 1327.83, 1481.71 1288.03 M1393.28 1401.96 C1415.37 1374.55, 1439.89 1350.47, 1481.19 1300.83 M1393.28 1401.96 C1413.5 1377.34, 1435.54 1354.7, 1481.19 1300.83 M1403.91 1401.92 C1429.39 1371.89, 1455.76 1342.25, 1481.32 1312.87 M1403.91 1401.92 C1419.61 1383.07, 1436.74 1362.98, 1481.32 1312.87 M1414.54 1401.89 C1437.27 1375.09, 1458.2 1349.55, 1481.45 1324.91 M1414.54 1401.89 C1438.2 1373.16, 1462.36 1346.91, 1481.45 1324.91 M1425.17 1401.85 C1441.4 1385.53, 1455.85 1369.98, 1481.59 1336.95 M1425.17 1401.85 C1446.59 1377.85, 1468.5 1354.75, 1481.59 1336.95 M1435.8 1401.82 C1454.67 1384.92, 1467.67 1363.53, 1481.72 1348.99 M1435.8 1401.82 C1446.25 1388.92, 1459.04 1375.02, 1481.72 1348.99 M1446.43 1401.79 C1458.13 1387.49, 1475.2 1372.93, 1481.2 1361.79 M1446.43 1401.79 C1457.27 1389.76, 1468.87 1377.77, 1481.2 1361.79 M1458.37 1400.24 C1464.49 1394.49, 1470.12 1386.82, 1481.33 1373.83 M1458.37 1400.24 C1467.61 1389.16, 1476.14 1378.69, 1481.33 1373.83" stroke="#ffffff" stroke-width="1" fill="none"></path><path d="M32 0 C399.64 1.08, 767.17 0.11, 1448.98 0 M32 0 C397.35 -3.08, 762.96 -2.66, 1448.98 0 M1448.98 0 C1471.16 -1.39, 1480.05 11.86, 1480.98 32 M1448.98 0 C1468.16 0.1, 1479.51 12.58, 1480.98 32 M1480.98 32 C1484.33 350.1, 1484.78 669.12, 1480.98 1369.89 M1480.98 32 C1480.74 452.15, 1481.16 871.95, 1480.98 1369.89 M1480.98 1369.89 C1480.57 1390.91, 1471.99 1400.73, 1448.98 1401.89 M1480.98 1369.89 C1482.28 1393.51, 1471.12 1401.36, 1448.98 1401.89 M1448.98 1401.89 C1156.97 1399.87, 864.87 1400.55, 32 1401.89 M1448.98 1401.89 C1083.75 1403.27, 718.9 1403.88, 32 1401.89 M32 1401.89 C10.96 1402.41, -1.47 1390.11, 0 1369.89 M32 1401.89 C12.57 1403.34, 2.03 1389.92, 0 1369.89 M0 1369.89 C-1.68 991.72, -1.29 614.7, 0 32 M0 1369.89 C0.32 847.28, 0.84 324.68, 0 32 M0 32 C0.44 11.79, 9.75 -1.56, 32 0 M0 32 C1.08 11.12, 9.11 -0.28, 32 0" stroke="#2f9e44" stroke-width="2" fill="none"></path></g><g stroke-linecap="round" transform="translate(56.64453125 108.76171875) rotate(0 97.556640625 42.841796875)"><path d="M5.05 5.71 C5.05 5.71, 5.05 5.71, 5.05 5.71 M5.05 5.71 C5.05 5.71, 5.05 5.71, 5.05 5.71 M3.87 19.26 C6.77 12.93, 11.04 9.62, 16.33 4.92 M3.87 19.26 C7.35 13.87, 13.05 8.63, 16.33 4.92 M4 31.3 C10.24 20.99, 17.85 13.8, 26.96 4.89 M4 31.3 C8.13 25.05, 13.65 19.11, 26.96 4.89 M3.48 44.1 C16.84 30.1, 30.02 12.34, 37.59 4.85 M3.48 44.1 C11.55 35.62, 19.96 26.44, 37.59 4.85 M3.61 56.14 C21 36.74, 36.55 19.36, 48.22 4.82 M3.61 56.14 C20.91 36.31, 39.6 15.68, 48.22 4.82 M1.78 70.44 C15.17 53.87, 28 41.65, 58.85 4.78 M1.78 70.44 C22.23 45.09, 44.92 19.78, 58.85 4.78 M5.19 78.71 C19.07 60.99, 35.19 40.84, 69.48 4.75 M5.19 78.71 C18.08 62.32, 31.28 46.47, 69.48 4.75 M10.57 84.71 C33.44 57.93, 58.41 29.18, 80.11 4.72 M10.57 84.71 C31.54 61.06, 51.9 37.91, 80.11 4.72 M17.26 89.21 C43.03 58.34, 72.7 26.6, 90.74 4.68 M17.26 89.21 C42.79 58.11, 70.22 27.43, 90.74 4.68 M26.58 90.68 C45 68, 65.76 44.69, 101.37 4.65 M26.58 90.68 C41.39 72, 56.55 54.46, 101.37 4.65 M37.21 90.65 C53.75 71.27, 72.29 48.41, 112 4.61 M37.21 90.65 C58.34 66.43, 80.76 40.04, 112 4.61 M47.84 90.61 C64.13 69.28, 85.61 48.39, 122.63 4.58 M47.84 90.61 C68.89 68.03, 88.69 43.25, 122.63 4.58 M58.47 90.58 C87.8 58.91, 114.12 27.05, 133.26 4.54 M58.47 90.58 C87.87 58.49, 116.63 25.07, 133.26 4.54 M69.1 90.54 C92.76 63.63, 115.25 37.18, 143.89 4.51 M69.1 90.54 C98.21 56.73, 126.64 23.22, 143.89 4.51 M79.73 90.51 C97.02 72.92, 111.75 53.39, 154.52 4.47 M79.73 90.51 C105.38 61.67, 130.1 33.39, 154.52 4.47 M90.36 90.48 C110.58 65.13, 130.41 42.33, 164.5 5.19 M90.36 90.48 C115.8 60.86, 142.07 30.49, 164.5 5.19 M100.99 90.44 C115.78 71.48, 133.53 53.7, 177.1 2.9 M100.99 90.44 C129.89 56.43, 158.23 23.22, 177.1 2.9 M111.62 90.41 C132.8 64.94, 154.71 39.63, 186.41 4.37 M111.62 90.41 C137.18 62.51, 161.4 32.93, 186.41 4.37 M122.25 90.37 C149.08 59.4, 175.58 28.96, 193.11 8.86 M122.25 90.37 C142.5 67.53, 161.98 44.95, 193.11 8.86 M132.88 90.34 C151.76 67.68, 170.76 43.76, 195.86 17.89 M132.88 90.34 C146.49 75.55, 159.73 59.75, 195.86 17.89 M143.51 90.3 C155.44 74.8, 169.15 60.47, 196 29.93 M143.51 90.3 C162.54 68.73, 181.84 46.8, 196 29.93 M154.14 90.27 C164.85 79.97, 171.78 69.03, 196.13 41.97 M154.14 90.27 C169.55 71.12, 187.41 52.22, 196.13 41.97 M164.77 90.23 C170.65 82.03, 176.03 73.24, 196.26 54.01 M164.77 90.23 C171.15 82.97, 177.75 75.97, 196.26 54.01 M176.72 88.69 C182.75 82.13, 190 75.03, 197.05 65.29 M176.72 88.69 C180.51 84, 187.17 77.57, 197.05 65.29" stroke="#ffffff" stroke-width="1" fill="none"></path><path d="M21.42 0 C60.29 2.22, 101.51 0.11, 173.69 0 M21.42 0 C69.63 -1.1, 118.6 -0.73, 173.69 0 M173.69 0 C186.58 1.49, 196.41 7.51, 195.11 21.42 M173.69 0 C188.36 0.71, 196.9 8.62, 195.11 21.42 M195.11 21.42 C196.83 37.62, 196.44 51.78, 195.11 64.26 M195.11 21.42 C195.68 32.07, 195.21 44.78, 195.11 64.26 M195.11 64.26 C194.88 77.02, 186.32 84.9, 173.69 85.68 M195.11 64.26 C195.61 77.73, 188.18 87.21, 173.69 85.68 M173.69 85.68 C129.3 87.86, 85.11 88.09, 21.42 85.68 M173.69 85.68 C121.15 86.04, 68.26 86.77, 21.42 85.68 M21.42 85.68 C5.58 84.39, -0.3 78.6, 0 64.26 M21.42 85.68 C5.69 83.66, -1.43 77.02, 0 64.26 M0 64.26 C-0.56 49.76, 1.72 31.36, 0 21.42 M0 64.26 C0.25 49.98, 0.95 35.72, 0 21.42 M0 21.42 C-0.31 5.59, 8.94 0.68, 21.42 0 M0 21.42 C-0.8 7.7, 8.51 1.61, 21.42 0" stroke="#6741d9" stroke-width="2" fill="none"></path></g><g transform="translate(127.6011962890625 139.103515625) rotate(0 26.5999755859375 12.5)"><text x="26.5999755859375" y="17.52" font-family="Virgil, Segoe UI Emoji" font-size="20px" fill="#6741d9" text-anchor="middle" style="white-space: pre;" direction="ltr" dominant-baseline="alphabetic">Class</text></g><g stroke-linecap="round" transform="translate(53.099609375 233.263671875) rotate(0 97.556640625 42.841796875)"><path d="M21.42 0 C77.66 -1.24, 137.8 1.52, 173.69 0 M21.42 0 C56.74 -1.17, 92.67 -1.43, 173.69 0 M173.69 0 C186.43 0.12, 196.21 8.7, 195.11 21.42 M173.69 0 C186.22 -2, 194.14 8.23, 195.11 21.42 M195.11 21.42 C193.99 30.09, 193.8 40.24, 195.11 64.26 M195.11 21.42 C194.72 34.22, 194.31 48.19, 195.11 64.26 M195.11 64.26 C193.91 80.37, 187.04 87, 173.69 85.68 M195.11 64.26 C194.91 80.36, 187.59 84.74, 173.69 85.68 M173.69 85.68 C139.55 87.62, 105.76 87.28, 21.42 85.68 M173.69 85.68 C119.25 84.15, 63.76 84.76, 21.42 85.68 M21.42 85.68 C9.13 85.26, -0.78 77.25, 0 64.26 M21.42 85.68 C8.31 86.17, 0.9 76.62, 0 64.26 M0 64.26 C-2.22 53.67, -0.23 41.89, 0 21.42 M0 64.26 C-0.45 49.66, -0.92 34.08, 0 21.42 M0 21.42 C1.62 5.41, 5.38 0.41, 21.42 0 M0 21.42 C-2.17 5.93, 5.07 -0.21, 21.42 0" stroke="#6741d9" stroke-width="2" fill="none"></path></g><g transform="translate(118.89627838134766 263.60546875) rotate(0 31.759971618652344 12.5)"><text x="31.759971618652344" y="17.52" font-family="Virgil, Segoe UI Emoji" font-size="20px" fill="#6741d9" text-anchor="middle" style="white-space: pre;" direction="ltr" dominant-baseline="alphabetic">Object</text></g><g transform="translate(297.8671875 136.5) rotate(0 370.0997009277344 25)"><text x="0" y="17.52" font-family="Virgil, Segoe UI Emoji" font-size="20px" fill="#2f9e44" text-anchor="start" style="white-space: pre;" direction="ltr" dominant-baseline="alphabetic">Class can be defined as a blueprint from which you can create an object. </text><text x="0" y="42.519999999999996" font-family="Virgil, Segoe UI Emoji" font-size="20px" fill="#2f9e44" text-anchor="start" style="white-space: pre;" direction="ltr" dominant-baseline="alphabetic">Class does not consume any space.</text></g><g transform="translate(294.19140625 223.28125) rotate(0 295.43975830078125 12.5)"><text x="0" y="17.52" font-family="Virgil, Segoe UI Emoji" font-size="20px" fill="#2f9e44" text-anchor="start" style="white-space: pre;" direction="ltr" dominant-baseline="alphabetic">An Entity that has state and behaviour is know as object.</text></g><g transform="translate(291.07421875 258.76953125) rotate(0 245.79983520507812 12.5)"><text x="0" y="17.52" font-family="Virgil, Segoe UI Emoji" font-size="20px" fill="#2f9e44" text-anchor="start" style="white-space: pre;" direction="ltr" dominant-baseline="alphabetic">An Object can be defined as instance of a class.</text></g><g transform="translate(291.984375 293.0546875) rotate(0 299.8697814941406 12.5)"><text x="0" y="17.52" font-family="Virgil, Segoe UI Emoji" font-size="20px" fill="#2f9e44" text-anchor="start" style="white-space: pre;" direction="ltr" dominant-baseline="alphabetic">Object contains an address and take up some space memory</text></g><g stroke-linecap="round" transform="translate(51.048828125 350.361328125) rotate(0 97.556640625 42.841796875)"><path d="M21.42 0 C80.23 -1.47, 135.96 0.56, 173.69 0 M21.42 0 C75.09 -1.05, 127.92 -0.09, 173.69 0 M173.69 0 C188.27 1.34, 195.94 7.85, 195.11 21.42 M173.69 0 C186.88 2.05, 196.37 4.89, 195.11 21.42 M195.11 21.42 C194.26 35.53, 195.54 51.67, 195.11 64.26 M195.11 21.42 C195.15 34.85, 195.95 47.63, 195.11 64.26 M195.11 64.26 C196.29 80.14, 189.09 86.56, 173.69 85.68 M195.11 64.26 C193.58 80.04, 187.7 86.2, 173.69 85.68 M173.69 85.68 C119.66 86.11, 66.98 87.25, 21.42 85.68 M173.69 85.68 C129.65 86.63, 87.16 86.96, 21.42 85.68 M21.42 85.68 C8.91 85.44, 0.82 80.07, 0 64.26 M21.42 85.68 C6.01 86.73, -1.33 77.18, 0 64.26 M0 64.26 C0.82 51.24, 1.03 41.79, 0 21.42 M0 64.26 C0.62 54.42, 0.7 43.27, 0 21.42 M0 21.42 C-1.23 7.85, 6.66 1.55, 21.42 0 M0 21.42 C-1.39 8.59, 7.58 -0.81, 21.42 0" stroke="#6741d9" stroke-width="2" fill="none"></path></g><g transform="translate(94.10551452636719 380.703125) rotate(0 54.49995422363281 12.5)"><text x="54.49995422363281" y="17.52" font-family="Virgil, Segoe UI Emoji" font-size="20px" fill="#6741d9" text-anchor="middle" style="white-space: pre;" direction="ltr" dominant-baseline="alphabetic">Inheritance</text></g><g transform="translate(292.37890625 359.05859375) rotate(0 393.60968017578125 37.5)"><text x="0" y="17.52" font-family="Virgil, Segoe UI Emoji" font-size="20px" fill="#2f9e44" text-anchor="start" style="white-space: pre;" direction="ltr" dominant-baseline="alphabetic">When one object acquires all the properties and behaviours of a parent object,</text><text x="0" y="42.519999999999996" font-family="Virgil, Segoe UI Emoji" font-size="20px" fill="#2f9e44" text-anchor="start" style="white-space: pre;" direction="ltr" dominant-baseline="alphabetic"> it is known as inheritance.</text><text x="0" y="67.52" font-family="Virgil, Segoe UI Emoji" font-size="20px" fill="#2f9e44" text-anchor="start" style="white-space: pre;" direction="ltr" dominant-baseline="alphabetic">It provides code reusability and runtime polymorphism.</text></g><g stroke-linecap="round" transform="translate(47.021484375 464.357421875) rotate(0 97.556640625 42.841796875)"><path d="M21.42 0 C54.99 1.36, 91.93 1.92, 173.69 0 M21.42 0 C72.54 -1.21, 121.42 -0.76, 173.69 0 M173.69 0 C187.73 -0.68, 194.99 5.67, 195.11 21.42 M173.69 0 C190.12 1.95, 197.38 5.06, 195.11 21.42 M195.11 21.42 C193.25 36.43, 196.39 51.81, 195.11 64.26 M195.11 21.42 C194.75 34.11, 194.41 46.36, 195.11 64.26 M195.11 64.26 C195.87 79.73, 187.13 83.92, 173.69 85.68 M195.11 64.26 C193.67 80.04, 187.47 85.51, 173.69 85.68 M173.69 85.68 C124.75 85.01, 78.14 85.85, 21.42 85.68 M173.69 85.68 C114.58 86.4, 56.29 87.3, 21.42 85.68 M21.42 85.68 C6.05 84.13, 0.46 79.31, 0 64.26 M21.42 85.68 C7.23 85.93, -1.85 80.33, 0 64.26 M0 64.26 C-0.23 51.24, 0.8 35.14, 0 21.42 M0 64.26 C-0.01 54.56, -1.23 45.68, 0 21.42 M0 21.42 C-0.68 8.73, 6.85 -1.35, 21.42 0 M0 21.42 C1.07 7.96, 8.18 -1.03, 21.42 0" stroke="#6741d9" stroke-width="2" fill="none"></path></g><g transform="translate(85.11819458007812 494.69921875) rotate(0 59.459930419921875 12.5)"><text x="59.459930419921875" y="17.52" font-family="Virgil, Segoe UI Emoji" font-size="20px" fill="#6741d9" text-anchor="middle" style="white-space: pre;" direction="ltr" dominant-baseline="alphabetic">Polymorphism</text></g><g transform="translate(291.99609375 468.05859375) rotate(0 352.5096740722656 12.5)"><text x="0" y="17.52" font-family="Virgil, Segoe UI Emoji" font-size="20px" fill="#2f9e44" text-anchor="start" style="white-space: pre;" direction="ltr" dominant-baseline="alphabetic">If one task is performed in different ways, it is known as polymorphism.</text></g><g transform="translate(288.73046875 508.62890625) rotate(0 409.23968505859375 12.5)"><text x="0" y="17.52" font-family="Virgil, Segoe UI Emoji" font-size="20px" fill="#2f9e44" text-anchor="start" style="white-space: pre;" direction="ltr" dominant-baseline="alphabetic">In Java, we use method overloading and method overriding to achieve polymorphism.</text></g><g stroke-linecap="round" transform="translate(44.580078125 580.435546875) rotate(0 97.556640625 42.841796875)"><path d="M21.42 0 C63.79 -0.34, 105.43 -1.95, 173.69 0 M21.42 0 C55.92 0.93, 90.03 0.44, 173.69 0 M173.69 0 C188.38 0.31, 194.69 7.32, 195.11 21.42 M173.69 0 C189.05 2.24, 195.22 6.64, 195.11 21.42 M195.11 21.42 C195.04 35.09, 195.27 51.08, 195.11 64.26 M195.11 21.42 C194.69 35.34, 194.58 51.81, 195.11 64.26 M195.11 64.26 C196.37 79.79, 189.93 87.37, 173.69 85.68 M195.11 64.26 C193.2 76.5, 189.19 85.52, 173.69 85.68 M173.69 85.68 C136.72 84.07, 101.33 84.86, 21.42 85.68 M173.69 85.68 C115.61 84.41, 57.19 83.75, 21.42 85.68 M21.42 85.68 C7.73 85.67, 0.75 79, 0 64.26 M21.42 85.68 C7.24 86.35, -0.46 79.88, 0 64.26 M0 64.26 C-1.36 51.69, -2.18 37.97, 0 21.42 M0 64.26 C0.41 53.95, -0.72 41.15, 0 21.42 M0 21.42 C-0.91 7.94, 8.77 0.9, 21.42 0 M0 21.42 C0.73 9.22, 5.59 1.01, 21.42 0" stroke="#6741d9" stroke-width="2" fill="none"></path></g><g transform="translate(85.37677001953125 610.77734375) rotate(0 56.75994873046875 12.5)"><text x="56.75994873046875" y="17.52" font-family="Virgil, Segoe UI Emoji" font-size="20px" fill="#6741d9" text-anchor="middle" style="white-space: pre;" direction="ltr" dominant-baseline="alphabetic">Abstraction</text></g><g transform="translate(288.86328125 609.4609375) rotate(0 356.4197082519531 12.5)"><text x="0" y="17.52" font-family="Virgil, Segoe UI Emoji" font-size="20px" fill="#2f9e44" text-anchor="start" style="white-space: pre;" direction="ltr" dominant-baseline="alphabetic">Hiding internal details and showing functionality is known as abstraction.</text></g><g stroke-linecap="round" transform="translate(46.298828125 684.205078125) rotate(0 97.556640625 42.841796875)"><path d="M21.42 0 C53.51 2.69, 83.74 2.38, 173.69 0 M21.42 0 C68.3 -0.45, 116.05 -0.05, 173.69 0 M173.69 0 C188.32 0, 196.26 8.43, 195.11 21.42 M173.69 0 C188.01 0.81, 196.53 6.91, 195.11 21.42 M195.11 21.42 C194.2 36.1, 194.09 48.32, 195.11 64.26 M195.11 21.42 C195.08 33.06, 195.81 43.52, 195.11 64.26 M195.11 64.26 C196.7 80.27, 187.38 84.82, 173.69 85.68 M195.11 64.26 C195.5 78.62, 185.88 84.13, 173.69 85.68 M173.69 85.68 C126.9 86.77, 78.68 86.39, 21.42 85.68 M173.69 85.68 C117.31 86.05, 60.74 86.3, 21.42 85.68 M21.42 85.68 C6.35 85.71, 0.48 77.3, 0 64.26 M21.42 85.68 C6.47 86.01, -1.57 78.55, 0 64.26 M0 64.26 C-1.81 51.47, -1.59 40.33, 0 21.42 M0 64.26 C1.24 48.2, 0.35 31.13, 0 21.42 M0 21.42 C0.05 8.92, 5.86 0.66, 21.42 0 M0 21.42 C-1.29 6.79, 6.24 0.39, 21.42 0" stroke="#6741d9" stroke-width="2" fill="none"></path></g><g transform="translate(77.36552429199219 714.546875) rotate(0 66.48994445800781 12.5)"><text x="66.48994445800781" y="17.52" font-family="Virgil, Segoe UI Emoji" font-size="20px" fill="#6741d9" text-anchor="middle" style="white-space: pre;" direction="ltr" dominant-baseline="alphabetic">Encapsulation</text></g><g transform="translate(291.0703125 707.03515625) rotate(0 458.9595642089844 12.5)"><text x="0" y="17.52" font-family="Virgil, Segoe UI Emoji" font-size="20px" fill="#2f9e44" text-anchor="start" style="white-space: pre;" direction="ltr" dominant-baseline="alphabetic">Binding (or wrapping) code and data together into a single unit are known as encapsulation. </text></g><g stroke-linecap="round" transform="translate(42.591796875 792.072265625) rotate(0 97.556640625 42.841796875)"><path d="M21.42 0 C71.55 -0.24, 116.59 -0.44, 173.69 0 M21.42 0 C75.06 0.23, 129.44 -0.54, 173.69 0 M173.69 0 C187.03 0.54, 195.1 7.54, 195.11 21.42 M173.69 0 C186.7 1.02, 197.23 8.05, 195.11 21.42 M195.11 21.42 C195.16 37.1, 193.54 51.24, 195.11 64.26 M195.11 21.42 C195.13 35.45, 195.55 50.13, 195.11 64.26 M195.11 64.26 C194.23 76.74, 187.45 83.69, 173.69 85.68 M195.11 64.26 C194.8 80.44, 185.95 85.12, 173.69 85.68 M173.69 85.68 C117.99 83.26, 59.97 83.23, 21.42 85.68 M173.69 85.68 C129.03 86.65, 82.26 86.7, 21.42 85.68 M21.42 85.68 C6.01 84.47, -0.29 77.59, 0 64.26 M21.42 85.68 C8.8 87.84, -0.56 79.1, 0 64.26 M0 64.26 C0.83 50.75, 0.3 37.72, 0 21.42 M0 64.26 C-0.48 49.06, 0.54 32.5, 0 21.42 M0 21.42 C0.14 8.99, 9 0.56, 21.42 0 M0 21.42 C0.97 6.98, 5.23 -1.13, 21.42 0" stroke="#6741d9" stroke-width="2" fill="none"></path></g><g transform="translate(103.05847930908203 822.4140625) rotate(0 37.08995819091797 12.5)"><text x="37.08995819091797" y="17.52" font-family="Virgil, Segoe UI Emoji" font-size="20px" fill="#6741d9" text-anchor="middle" style="white-space: pre;" direction="ltr" dominant-baseline="alphabetic">Coupling</text></g><g transform="translate(287.625 784.80859375) rotate(0 401.7096862792969 12.5)"><text x="0" y="17.52" font-family="Virgil, Segoe UI Emoji" font-size="20px" fill="#2f9e44" text-anchor="start" style="white-space: pre;" direction="ltr" dominant-baseline="alphabetic">If a class has the details information of another class, there is strong coupling</text></g><g transform="translate(284.8515625 816.7734375) rotate(0 572.5994873046875 12.5)"><text x="0" y="17.52" font-family="Virgil, Segoe UI Emoji" font-size="20px" fill="#2f9e44" text-anchor="start" style="white-space: pre;" direction="ltr" dominant-baseline="alphabetic">In Java, we use private, protected, and public modifiers to display the visibility level of a class, method, and field.</text></g><g transform="translate(286.5 847.93359375) rotate(0 458.09954833984375 12.5)"><text x="0" y="17.52" font-family="Virgil, Segoe UI Emoji" font-size="20px" fill="#2f9e44" text-anchor="start" style="white-space: pre;" direction="ltr" dominant-baseline="alphabetic">You can use interfaces for the weaker coupling because there is no concrete implementation.</text></g><g stroke-linecap="round" transform="translate(46.412109375 917.361328125) rotate(0 97.556640625 42.841796875)"><path d="M21.42 0 C54.75 0.7, 93.18 2.18, 173.69 0 M21.42 0 C70.37 1.75, 118.79 0.01, 173.69 0 M173.69 0 C187.87 0.57, 194.95 5.39, 195.11 21.42 M173.69 0 C186.87 1.78, 195.79 6.9, 195.11 21.42 M195.11 21.42 C193.93 35, 193.9 45.77, 195.11 64.26 M195.11 21.42 C194.72 38.43, 195.14 54.46, 195.11 64.26 M195.11 64.26 C193.53 80.29, 188.88 87.42, 173.69 85.68 M195.11 64.26 C195.46 79.71, 189.7 87.06, 173.69 85.68 M173.69 85.68 C129.18 88.48, 86.37 85.05, 21.42 85.68 M173.69 85.68 C132.31 84.78, 93.24 85.12, 21.42 85.68 M21.42 85.68 C8.46 86.26, 1.33 79.72, 0 64.26 M21.42 85.68 C7.32 87.78, -0.24 79.92, 0 64.26 M0 64.26 C1.65 53.6, -0.74 45.33, 0 21.42 M0 64.26 C-0.63 55.59, 0.91 46.37, 0 21.42 M0 21.42 C0.62 7.77, 6.03 -0.51, 21.42 0 M0 21.42 C2.2 5.44, 7.14 -2.07, 21.42 0" stroke="#6741d9" stroke-width="2" fill="none"></path></g><g transform="translate(103.74879455566406 947.703125) rotate(0 40.21995544433594 12.5)"><text x="40.21995544433594" y="17.52" font-family="Virgil, Segoe UI Emoji" font-size="20px" fill="#6741d9" text-anchor="middle" style="white-space: pre;" direction="ltr" dominant-baseline="alphabetic">Cohesion</text></g><g transform="translate(288.52734375 903) rotate(0 310.02972412109375 12.5)"><text x="0" y="17.52" font-family="Virgil, Segoe UI Emoji" font-size="20px" fill="#2f9e44" text-anchor="start" style="white-space: pre;" direction="ltr" dominant-baseline="alphabetic">A single well-defined task is done by a highly cohesive method. </text></g><g transform="translate(283.98828125 935.46875) rotate(0 334.44970703125 12.5)"><text x="0" y="17.52" font-family="Virgil, Segoe UI Emoji" font-size="20px" fill="#2f9e44" text-anchor="start" style="white-space: pre;" direction="ltr" dominant-baseline="alphabetic">The weakly cohesive method will split the task into separate parts</text></g><g transform="translate(285.5859375 968.11328125) rotate(0 548.76953125 25)"><text x="0" y="17.52" font-family="Virgil, Segoe UI Emoji" font-size="20px" fill="#2f9e44" text-anchor="start" style="white-space: pre;" direction="ltr" dominant-baseline="alphabetic">The java.io package is a highly cohesive package because it has I/O related classes and interface. </text><text x="0" y="42.519999999999996" font-family="Virgil, Segoe UI Emoji" font-size="20px" fill="#2f9e44" text-anchor="start" style="white-space: pre;" direction="ltr" dominant-baseline="alphabetic">However, the java.util package is a weakly cohesive package because it has unrelated classes and interfaces.</text></g><g stroke-linecap="round" transform="translate(48.830078125 1040.623046875) rotate(0 97.556640625 42.841796875)"><path d="M21.42 0 C69.73 -0.06, 118.81 0.61, 173.69 0 M21.42 0 C67.42 0.97, 112.46 1.28, 173.69 0 M173.69 0 C189.58 1.17, 195.4 6.12, 195.11 21.42 M173.69 0 C185.69 -1.16, 196.03 6.27, 195.11 21.42 M195.11 21.42 C194.55 37.54, 197.19 56.47, 195.11 64.26 M195.11 21.42 C194.23 35.16, 195.07 47.88, 195.11 64.26 M195.11 64.26 C194.56 80.38, 188.45 87.45, 173.69 85.68 M195.11 64.26 C196.86 76.4, 188.71 84.58, 173.69 85.68 M173.69 85.68 C121.92 86.5, 68.47 84.71, 21.42 85.68 M173.69 85.68 C118.27 86.49, 64.87 84.8, 21.42 85.68 M21.42 85.68 C7.81 83.88, -0.85 79.61, 0 64.26 M21.42 85.68 C6.68 86.78, -0.66 79.43, 0 64.26 M0 64.26 C1.04 55.43, 0.42 45.57, 0 21.42 M0 64.26 C-1.04 53.3, -1.11 41.39, 0 21.42 M0 21.42 C-0.33 7.44, 7.81 -1.95, 21.42 0 M0 21.42 C-1.84 7.14, 8.08 0.71, 21.42 0" stroke="#6741d9" stroke-width="2" fill="none"></path></g><g transform="translate(91.49677276611328 1070.96484375) rotate(0 54.88994598388672 12.5)"><text x="54.88994598388672" y="17.52" font-family="Virgil, Segoe UI Emoji" font-size="20px" fill="#6741d9" text-anchor="middle" style="white-space: pre;" direction="ltr" dominant-baseline="alphabetic">Association</text></g><g transform="translate(284.52734375 1058) rotate(0 298.8497314453125 12.5)"><text x="0" y="17.52" font-family="Virgil, Segoe UI Emoji" font-size="20px" fill="#2f9e44" text-anchor="start" style="white-space: pre;" direction="ltr" dominant-baseline="alphabetic">Association represents the relationship between the objects.</text></g><g transform="translate(286.484375 1100.04296875) rotate(0 86.87995147705078 50)"><text x="0" y="17.52" font-family="Virgil, Segoe UI Emoji" font-size="20px" fill="#2f9e44" text-anchor="start" style="white-space: pre;" direction="ltr" dominant-baseline="alphabetic">One to One</text><text x="0" y="42.519999999999996" font-family="Virgil, Segoe UI Emoji" font-size="20px" fill="#2f9e44" text-anchor="start" style="white-space: pre;" direction="ltr" dominant-baseline="alphabetic">One to Many</text><text x="0" y="67.52" font-family="Virgil, Segoe UI Emoji" font-size="20px" fill="#2f9e44" text-anchor="start" style="white-space: pre;" direction="ltr" dominant-baseline="alphabetic">Many to One, and</text><text x="0" y="92.52" font-family="Virgil, Segoe UI Emoji" font-size="20px" fill="#2f9e44" text-anchor="start" style="white-space: pre;" direction="ltr" dominant-baseline="alphabetic">Many to Many</text></g><g stroke-linecap="round" transform="translate(52.923828125 1220.353515625) rotate(0 97.556640625 42.841796875)"><path d="M21.42 0 C58.23 -1.56, 99.98 -1.41, 173.69 0 M21.42 0 C79.18 1.94, 137.14 1.23, 173.69 0 M173.69 0 C189.59 0.58, 196.52 6.35, 195.11 21.42 M173.69 0 C186.13 0.08, 197.32 6.95, 195.11 21.42 M195.11 21.42 C197.19 30.61, 195.57 42.84, 195.11 64.26 M195.11 21.42 C194.57 35.8, 195.09 47.9, 195.11 64.26 M195.11 64.26 C196.72 78.52, 186.22 85.93, 173.69 85.68 M195.11 64.26 C195.2 78.83, 190.27 84.52, 173.69 85.68 M173.69 85.68 C137.47 86.12, 101.06 84.85, 21.42 85.68 M173.69 85.68 C118.84 86.6, 62.87 86.05, 21.42 85.68 M21.42 85.68 C9.01 86.28, 0.1 77.97, 0 64.26 M21.42 85.68 C7.56 87.17, -0.13 77.08, 0 64.26 M0 64.26 C-1.22 54.51, -0.79 46.93, 0 21.42 M0 64.26 C-0.66 49.22, -0.64 33.57, 0 21.42 M0 21.42 C1.13 5.58, 7.44 -0.97, 21.42 0 M0 21.42 C-0.61 6.51, 5.86 1.23, 21.42 0" stroke="#6741d9" stroke-width="2" fill="none"></path></g><g transform="translate(94.40052032470703 1250.6953125) rotate(0 56.07994842529297 12.5)"><text x="56.07994842529297" y="17.52" font-family="Virgil, Segoe UI Emoji" font-size="20px" fill="#6741d9" text-anchor="middle" style="white-space: pre;" direction="ltr" dominant-baseline="alphabetic">Aggregation</text></g><g transform="translate(277.73046875 1223.22265625) rotate(0 177.2298583984375 12.5)"><text x="0" y="17.52" font-family="Virgil, Segoe UI Emoji" font-size="20px" fill="#2f9e44" text-anchor="start" style="white-space: pre;" direction="ltr" dominant-baseline="alphabetic">It's a way to achieve association. </text></g><g transform="translate(276.58984375 1253.5625) rotate(0 262.0997619628906 12.5)"><text x="0" y="17.52" font-family="Virgil, Segoe UI Emoji" font-size="20px" fill="#2f9e44" text-anchor="start" style="white-space: pre;" direction="ltr" dominant-baseline="alphabetic">It represents the weak relationship between objects.</text></g><g transform="translate(277.5859375 1286.55859375) rotate(0 87.42991638183594 12.5)"><text x="0" y="17.52" font-family="Virgil, Segoe UI Emoji" font-size="20px" fill="#2f9e44" text-anchor="start" style="white-space: pre;" direction="ltr" dominant-baseline="alphabetic">has-a relationship</text></g><g stroke-linecap="round" transform="translate(53.830078125 1329.228515625) rotate(0 97.556640625 42.841796875)"><path d="M21.42 0 C62.7 -1.53, 106.3 -2.29, 173.69 0 M21.42 0 C55.69 0.39, 90.84 0.55, 173.69 0 M173.69 0 C186.28 0.05, 197.1 5.47, 195.11 21.42 M173.69 0 C187.41 1.29, 193.94 8.04, 195.11 21.42 M195.11 21.42 C195.31 36.65, 196.4 51.65, 195.11 64.26 M195.11 21.42 C195.6 32.21, 195.56 44.67, 195.11 64.26 M195.11 64.26 C196.65 77.18, 187.26 85.87, 173.69 85.68 M195.11 64.26 C194.58 79.62, 188.19 87.41, 173.69 85.68 M173.69 85.68 C117.77 85.08, 60.87 85.48, 21.42 85.68 M173.69 85.68 C141.8 86.7, 110.09 87.4, 21.42 85.68 M21.42 85.68 C8.13 86.21, 0.79 77.2, 0 64.26 M21.42 85.68 C7.15 87.69, 1.86 77.93, 0 64.26 M0 64.26 C0.43 51.79, -1.89 36.73, 0 21.42 M0 64.26 C0.4 48.95, 0.5 34.75, 0 21.42 M0 21.42 C-0.32 5.44, 6.41 1.67, 21.42 0 M0 21.42 C-0.91 6.11, 5.78 -2.18, 21.42 0" stroke="#6741d9" stroke-width="2" fill="none"></path></g><g transform="translate(96.93678283691406 1359.5703125) rotate(0 54.44993591308594 12.5)"><text x="54.44993591308594" y="17.52" font-family="Virgil, Segoe UI Emoji" font-size="20px" fill="#6741d9" text-anchor="middle" style="white-space: pre;" direction="ltr" dominant-baseline="alphabetic">Composition</text></g><g transform="translate(273.12890625 1333.00390625) rotate(0 272.2997741699219 12.5)"><text x="0" y="17.52" font-family="Virgil, Segoe UI Emoji" font-size="20px" fill="#2f9e44" text-anchor="start" style="white-space: pre;" direction="ltr" dominant-baseline="alphabetic">The composition is also a way to achieve Association. </text></g><g transform="translate(272.38671875 1370.61328125) rotate(0 431.57965087890625 12.5)"><text x="0" y="17.52" font-family="Virgil, Segoe UI Emoji" font-size="20px" fill="#2f9e44" text-anchor="start" style="white-space: pre;" direction="ltr" dominant-baseline="alphabetic">There is a strong relationship between the containing object and the dependent object.</text></g><g transform="translate(56.52734375 10) rotate(0 75.35993194580078 12.5)"><text x="0" y="17.52" font-family="Virgil, Segoe UI Emoji" font-size="20px" fill="#2f9e44" text-anchor="start" style="white-space: pre;" direction="ltr" dominant-baseline="alphabetic">OOPS Concepts</text></g></svg>