<svg version="1.1" xmlns="http://www.w3.org/2000/svg" viewBox="0 0 909.6000366210938 206.7602901302808" width="2728.8001098632812" height="620.2808703908424">
  <!-- svg-source:excalidraw -->
  
  <defs>
    <style class="style-fonts">
      @font-face {
        font-family: "Virgil";
        src: url("https://excalidraw.com/Virgil.woff2");
      }
      @font-face {
        font-family: "Cascadia";
        src: url("https://excalidraw.com/Cascadia.woff2");
      }
      @font-face {
        font-family: "Assistant";
        src: url("https://excalidraw.com/Assistant-Regular.woff2");
      }
    </style>
    
  </defs>
  <rect x="0" y="0" width="909.6000366210938" height="206.7602901302808" fill="#ffffff"></rect><g stroke-linecap="round" transform="translate(10 74.33791627015535) rotate(0 444.8000183105469 27.99999237060547)"><path d="M14 0 C190.8 2.14, 367.27 3.05, 875.6 0 M14 0 C226.34 0.81, 437.67 0.76, 875.6 0 M875.6 0 C886.53 0.61, 888.88 6.31, 889.6 14 M875.6 0 C883.35 0.46, 891.85 3.26, 889.6 14 M889.6 14 C889.61 19.81, 888.56 26.92, 889.6 42 M889.6 14 C888.59 25.38, 888.97 36.55, 889.6 42 M889.6 42 C889.62 53.26, 882.95 57.42, 875.6 56 M889.6 42 C889.36 51.34, 887.04 57.87, 875.6 56 M875.6 56 C692.6 56.4, 508.71 57.48, 14 56 M875.6 56 C689.81 58, 503.66 57.81, 14 56 M14 56 C2.7 57.24, -0.06 49.67, 0 42 M14 56 C4.62 55.72, 1.86 51.99, 0 42 M0 42 C0.34 31.43, -0.5 24.78, 0 14 M0 42 C-0.1 35.21, 0.7 28.78, 0 14 M0 14 C-0.2 2.72, 4.45 0.03, 14 0 M0 14 C-2.23 4.39, 2.46 0.68, 14 0" stroke="#1e1e1e" stroke-width="2" fill="none"></path></g><g stroke-linecap="round"><g transform="translate(102 75.1379040631241) rotate(0 -1.1999969482421875 28.400001525878906)"><path d="M-0.62 -0.25 C-0.75 9.08, -1.26 46.7, -1.65 56.15 M1.26 -1.43 C1.12 8.04, -1.32 47.51, -2.21 57.35" stroke="#1e1e1e" stroke-width="2" fill="none"></path></g></g><mask></mask><g stroke-linecap="round"><g transform="translate(183.5999755859375 74.33791627015535) rotate(0 0 28.400001525878906)"><path d="M0.75 -0.65 C0.75 8.8, -0.64 46.97, -0.59 56.45 M-0.32 1.63 C0.14 11.27, 1.63 48.54, 1.81 57.81" stroke="#1e1e1e" stroke-width="2" fill="none"></path></g></g><mask></mask><g stroke-linecap="round"><g transform="translate(265.20001220703125 73.53791321839753) rotate(0 -0.800018310546875 29.199996948242188)"><path d="M-0.59 -0.35 C-0.81 9.4, -0.24 48.17, -0.57 57.85 M1.3 -1.57 C0.95 8.39, -0.73 49.06, -0.98 59.09" stroke="#1e1e1e" stroke-width="2" fill="none"></path></g></g><mask></mask><g stroke-linecap="round"><g transform="translate(351.5999755859375 74.33791627015535) rotate(0 0.4000244140625 27.20000457763672)"><path d="M1.03 -0.55 C1.1 8.45, -0.29 44.47, -0.17 53.69 M0.11 1.77 C0.6 10.95, 1.81 46.37, 2.04 54.85" stroke="#1e1e1e" stroke-width="2" fill="none"></path></g></g><mask></mask><g stroke-linecap="round"><g transform="translate(445.20001220703125 72.73794068421785) rotate(0 -1.20001220703125 28.399986267089844)"><path d="M-0.97 -0.71 C-1.38 8.91, -1.13 47.42, -1.44 57.17 M0.73 1.53 C0.15 10.82, -1.13 46.16, -1.89 55.24" stroke="#1e1e1e" stroke-width="2" fill="none"></path></g></g><mask></mask><g stroke-linecap="round"><g transform="translate(542 71.93790711488191) rotate(0 0.399993896484375 28.800003051757812)"><path d="M0.96 0.37 C1.18 10.25, 0.53 49.01, 0.37 58.59 M0 -0.49 C0.11 9.14, -1.21 47.02, -0.81 56.98" stroke="#1e1e1e" stroke-width="2" fill="none"></path></g></g><mask></mask><g stroke-linecap="round"><g transform="translate(632.4000244140625 74.33791627015535) rotate(0 0 26.400001525878906)"><path d="M-0.43 0.99 C-0.73 9.77, -1.09 44.53, -0.82 53.04 M1.54 0.46 C1.54 8.82, 1.54 42.28, 1.45 51.04" stroke="#1e1e1e" stroke-width="2" fill="none"></path></g></g><mask></mask><g stroke-linecap="round"><g transform="translate(717.2000122070312 72.73794068421785) rotate(0 -1.5999755859375 28.79998016357422)"><path d="M-0.82 0.24 C-1.09 9.55, -1.49 47.28, -2.03 56.86 M0.94 -0.68 C0.66 8.68, -1.94 48.04, -2.36 58.02" stroke="#1e1e1e" stroke-width="2" fill="none"></path></g></g><mask></mask><g stroke-linecap="round"><g transform="translate(799 72.73794068421785) rotate(0 -0.399993896484375 29.199989318847656)"><path d="M1.17 -0.74 C1.04 8.98, -1.39 48.7, -1.64 58.55 M0.33 1.49 C0.65 11.41, 0.83 50.47, 0.63 60.17" stroke="#1e1e1e" stroke-width="2" fill="none"></path></g></g><mask></mask><g transform="translate(51.79998779296875 96.93790711488191) rotate(0 5.503997802734375 10)"><text x="0" y="14.016" font-family="Virgil, Segoe UI Emoji" font-size="16px" fill="#1e1e1e" text-anchor="start" style="white-space: pre;" direction="ltr" dominant-baseline="alphabetic">0</text></g><g transform="translate(136.79998779296875 104.93790711488191) rotate(0 5.503997802734375 10)"><text x="0" y="14.016" font-family="Virgil, Segoe UI Emoji" font-size="16px" fill="#1e1e1e" text-anchor="start" style="white-space: pre;" direction="ltr" dominant-baseline="alphabetic">0</text></g><g transform="translate(224.79998779296875 100.93790711488191) rotate(0 5.503997802734375 10)"><text x="0" y="14.016" font-family="Virgil, Segoe UI Emoji" font-size="16px" fill="#1e1e1e" text-anchor="start" style="white-space: pre;" direction="ltr" dominant-baseline="alphabetic">0</text></g><g transform="translate(296.79998779296875 98.93790711488191) rotate(0 5.503997802734375 10)"><text x="0" y="14.016" font-family="Virgil, Segoe UI Emoji" font-size="16px" fill="#1e1e1e" text-anchor="start" style="white-space: pre;" direction="ltr" dominant-baseline="alphabetic">0</text></g><g transform="translate(375.79998779296875 96.93790711488191) rotate(0 5.503997802734375 10)"><text x="0" y="14.016" font-family="Virgil, Segoe UI Emoji" font-size="16px" fill="#1e1e1e" text-anchor="start" style="white-space: pre;" direction="ltr" dominant-baseline="alphabetic">0</text></g><g transform="translate(488.79998779296875 99.93790711488191) rotate(0 5.503997802734375 10)"><text x="0" y="14.016" font-family="Virgil, Segoe UI Emoji" font-size="16px" fill="#1e1e1e" text-anchor="start" style="white-space: pre;" direction="ltr" dominant-baseline="alphabetic">0</text></g><g transform="translate(584.7999877929688 97.93790711488191) rotate(0 5.503997802734375 10)"><text x="0" y="14.016" font-family="Virgil, Segoe UI Emoji" font-size="16px" fill="#1e1e1e" text-anchor="start" style="white-space: pre;" direction="ltr" dominant-baseline="alphabetic">0</text></g><g transform="translate(664.7999877929688 99.93790711488191) rotate(0 5.503997802734375 10)"><text x="0" y="14.016" font-family="Virgil, Segoe UI Emoji" font-size="16px" fill="#1e1e1e" text-anchor="start" style="white-space: pre;" direction="ltr" dominant-baseline="alphabetic">0</text></g><g transform="translate(744.7999877929688 102.93790711488191) rotate(0 5.503997802734375 10)"><text x="0" y="14.016" font-family="Virgil, Segoe UI Emoji" font-size="16px" fill="#1e1e1e" text-anchor="start" style="white-space: pre;" direction="ltr" dominant-baseline="alphabetic">0</text></g><g transform="translate(838.7999877929688 100.93790711488191) rotate(0 5.503997802734375 10)"><text x="0" y="14.016" font-family="Virgil, Segoe UI Emoji" font-size="16px" fill="#1e1e1e" text-anchor="start" style="white-space: pre;" direction="ltr" dominant-baseline="alphabetic">0</text></g><g transform="translate(16.69240425122905 10) rotate(0 47.735984802246094 22.5)"><text x="0" y="31.536" font-family="Virgil, Segoe UI Emoji" font-size="36px" fill="#1e1e1e" text-anchor="start" style="white-space: pre;" direction="ltr" dominant-baseline="alphabetic">Array</text></g><g transform="translate(57.67129675799447 151.7602901302808) rotate(0 12.383995056152344 22.5)"><text x="0" y="31.536" font-family="Virgil, Segoe UI Emoji" font-size="36px" fill="#1e1e1e" text-anchor="start" style="white-space: pre;" direction="ltr" dominant-baseline="alphabetic">0</text></g><g transform="translate(125.96943399045949 151.7602901302808) rotate(0 4.877998352050781 22.5)"><text x="0" y="31.536" font-family="Virgil, Segoe UI Emoji" font-size="36px" fill="#1e1e1e" text-anchor="start" style="white-space: pre;" direction="ltr" dominant-baseline="alphabetic">1</text></g><g transform="translate(204.26242057401703 151.7602901302808) rotate(0 12.815994262695312 22.5)"><text x="0" y="31.536" font-family="Virgil, Segoe UI Emoji" font-size="36px" fill="#1e1e1e" text-anchor="start" style="white-space: pre;" direction="ltr" dominant-baseline="alphabetic">2</text></g><g transform="translate(299.21348940939515 151.7602901302808) rotate(0 12.25799560546875 22.5)"><text x="0" y="31.536" font-family="Virgil, Segoe UI Emoji" font-size="36px" fill="#1e1e1e" text-anchor="start" style="white-space: pre;" direction="ltr" dominant-baseline="alphabetic">3</text></g><g transform="translate(384.83597118003456 151.7602901302808) rotate(0 11.519996643066406 22.5)"><text x="0" y="31.536" font-family="Virgil, Segoe UI Emoji" font-size="36px" fill="#1e1e1e" text-anchor="start" style="white-space: pre;" direction="ltr" dominant-baseline="alphabetic">4</text></g><g transform="translate(480.12022199502223 151.7602901302808) rotate(0 11.123992919921875 22.5)"><text x="0" y="31.536" font-family="Virgil, Segoe UI Emoji" font-size="36px" fill="#1e1e1e" text-anchor="start" style="white-space: pre;" direction="ltr" dominant-baseline="alphabetic">5</text></g><g transform="translate(580.7350794651654 151.7602901302808) rotate(0 11.519996643066406 22.5)"><text x="0" y="31.536" font-family="Virgil, Segoe UI Emoji" font-size="36px" fill="#1e1e1e" text-anchor="start" style="white-space: pre;" direction="ltr" dominant-baseline="alphabetic">6</text></g><g transform="translate(664.6918546834881 151.7602901302808) rotate(0 9.683998107910156 22.5)"><text x="0" y="31.536" font-family="Virgil, Segoe UI Emoji" font-size="36px" fill="#1e1e1e" text-anchor="start" style="white-space: pre;" direction="ltr" dominant-baseline="alphabetic">7</text></g><g transform="translate(743.318023246655 151.7602901302808) rotate(0 13.769996643066406 22.5)"><text x="0" y="31.536" font-family="Virgil, Segoe UI Emoji" font-size="36px" fill="#1e1e1e" text-anchor="start" style="white-space: pre;" direction="ltr" dominant-baseline="alphabetic">8</text></g><g transform="translate(822.2772721165661 151.7602901302808) rotate(0 10.961997985839844 22.5)"><text x="0" y="31.536" font-family="Virgil, Segoe UI Emoji" font-size="36px" fill="#1e1e1e" text-anchor="start" style="white-space: pre;" direction="ltr" dominant-baseline="alphabetic">9</text></g></svg>