<svg version="1.1" xmlns="http://www.w3.org/2000/svg" viewBox="0 0 1028.960247609557 406.6971730716714" width="3086.880742828671" height="1220.0915192150142">
  <!-- svg-source:excalidraw -->
  
  <defs>
    <style class="style-fonts">
      @font-face {
        font-family: "Virgil";
        src: url("https://excalidraw.com/Virgil.woff2");
      }
      @font-face {
        font-family: "Cascadia";
        src: url("https://excalidraw.com/Cascadia.woff2");
      }
      @font-face {
        font-family: "Assistant";
        src: url("https://excalidraw.com/Assistant-Regular.woff2");
      }
    </style>
    
  </defs>
  <rect x="0" y="0" width="1028.960247609557" height="406.6971730716714" fill="#ffffff"></rect><g stroke-linecap="round" transform="translate(10 10) rotate(0 504.4801238047785 193.3485865358357)"><path d="M32 0 C333.45 5.41, 636.37 4.76, 976.96 0 C997.54 1.88, 1009.19 7.57, 1008.96 32 C1007.49 125.02, 1010.18 214.85, 1008.96 354.7 C1005.74 378.73, 994.8 386.61, 976.96 386.7 C640.21 391.11, 300.4 392.49, 32 386.7 C9.33 387.56, -0.02 378.69, 0 354.7 C-2.61 255.96, -0.66 156.79, 0 32 C-0.18 8.08, 11.16 1.09, 32 0" stroke="none" stroke-width="0" fill="#ffffff"></path><path d="M32 0 C362.1 2.68, 693.75 4.08, 976.96 0 M32 0 C294.99 2.01, 557.42 1.73, 976.96 0 M976.96 0 C996.3 1.55, 1008.05 10.11, 1008.96 32 M976.96 0 C997.58 -0.95, 1009.42 12.28, 1008.96 32 M1008.96 32 C1010.43 152.26, 1011.11 271.83, 1008.96 354.7 M1008.96 32 C1010.1 97.53, 1009.28 163.43, 1008.96 354.7 M1008.96 354.7 C1009.69 377.39, 997.54 385.12, 976.96 386.7 M1008.96 354.7 C1007.22 375.06, 999.81 388.46, 976.96 386.7 M976.96 386.7 C620.13 389.31, 264.87 389.39, 32 386.7 M976.96 386.7 C784.11 389.62, 591.73 389.66, 32 386.7 M32 386.7 C10.3 387.03, 1.87 376.3, 0 354.7 M32 386.7 C11.11 388.87, -1.79 374.23, 0 354.7 M0 354.7 C2.44 236.08, -0.16 114.07, 0 32 M0 354.7 C-0.51 242.81, -1.01 130.31, 0 32 M0 32 C0.85 11.96, 12.52 -1.55, 32 0 M0 32 C0.47 9.29, 12.1 -1.38, 32 0" stroke="#2f9e44" stroke-width="2" fill="none"></path></g><g transform="translate(15 168.3485865358357) rotate(0 210.27989196777344 35)"><text x="0" y="24.528" font-family="Virgil, Segoe UI Emoji" font-size="28px" fill="#e03131" text-anchor="start" style="white-space: pre;" direction="ltr" dominant-baseline="alphabetic">Order of insertion not matter.</text><text x="0" y="59.528" font-family="Virgil, Segoe UI Emoji" font-size="28px" fill="#e03131" text-anchor="start" style="white-space: pre;" direction="ltr" dominant-baseline="alphabetic">Duplicate items allowed.</text></g><g stroke-linecap="round" transform="translate(22.81938496944167 17.343730694326382) rotate(0 156.80001831054688 27.199989318847656)"><path d="M13.6 0 C80.31 1.21, 146.43 1.38, 300 0 M13.6 0 C117.39 0.09, 220.05 -0.46, 300 0 M300 0 C309.58 -1.24, 313.15 3.18, 313.6 13.6 M300 0 C311.04 1.26, 311.38 3.16, 313.6 13.6 M313.6 13.6 C312.54 20.95, 312.42 29.59, 313.6 40.8 M313.6 13.6 C314.11 23.83, 314.6 34.85, 313.6 40.8 M313.6 40.8 C313.05 51.73, 311.02 52.95, 300 54.4 M313.6 40.8 C312.89 52.04, 308.56 56.09, 300 54.4 M300 54.4 C191.44 53.43, 80.93 53.74, 13.6 54.4 M300 54.4 C230.11 54.5, 161.77 55.31, 13.6 54.4 M13.6 54.4 C5.46 52.76, 1.21 48.26, 0 40.8 M13.6 54.4 C2.27 52.72, 1.25 51.26, 0 40.8 M0 40.8 C-0.12 30.58, 0.95 23.03, 0 13.6 M0 40.8 C-0.8 32.9, -0.48 25.43, 0 13.6 M0 13.6 C-1.16 6.13, 4.42 1.21, 13.6 0 M0 13.6 C-1.57 5.8, 6.46 -1.8, 13.6 0" stroke="#2f9e44" stroke-width="2" fill="none"></path></g><g transform="translate(160.6694139611409 32.04372001317404) rotate(0 18.949989318847656 12.5)"><text x="18.949989318847656" y="17.52" font-family="Virgil, Segoe UI Emoji" font-size="20px" fill="#2f9e44" text-anchor="middle" style="white-space: pre;" direction="ltr" dominant-baseline="alphabetic">Bag</text></g><g stroke-linecap="round" transform="translate(675.77367525517 174.3942868291524) rotate(0 126.34659971751034 107.15906487450695)"><path d="M32 0 C103.54 0.35, 181.27 3.8, 220.69 0 C244.18 -0.43, 253.59 9.73, 252.69 32 C256.82 85.97, 255.1 141.54, 252.69 182.32 C251.1 202.62, 241.44 217.31, 220.69 214.32 C142.51 212.02, 68.42 215.94, 32 214.32 C8.11 210.91, 2 202.01, 0 182.32 C-3.32 135.6, -2.07 93.12, 0 32 C0.73 8.14, 9.45 -0.92, 32 0" stroke="none" stroke-width="0" fill="#eebefa"></path><path d="M32 0 C75.22 2.99, 121.16 2.13, 220.69 0 M32 0 C70.22 -2.08, 109.89 -2.07, 220.69 0 M220.69 0 C240.38 -0.97, 251.06 11.68, 252.69 32 M220.69 0 C242.28 1.26, 251.16 12.5, 252.69 32 M252.69 32 C252 64.59, 252.28 100.53, 252.69 182.32 M252.69 32 C253.04 65.45, 254.03 96.7, 252.69 182.32 M252.69 182.32 C254.26 205.56, 243.57 212.98, 220.69 214.32 M252.69 182.32 C253.03 203.14, 242.8 216.02, 220.69 214.32 M220.69 214.32 C155.39 213.06, 95.02 211.89, 32 214.32 M220.69 214.32 C175.68 214.82, 128.9 214.34, 32 214.32 M32 214.32 C9.02 215.75, 1.39 203.37, 0 182.32 M32 214.32 C11.14 212.19, 1.65 201.44, 0 182.32 M0 182.32 C-1.06 130.59, 0.64 81.4, 0 32 M0 182.32 C-1.23 122.44, -0.99 64.71, 0 32 M0 32 C-0.55 9.11, 8.81 -1.05, 32 0 M0 32 C-2.27 11.6, 12.15 2.14, 32 0" stroke="#1971c2" stroke-width="2" fill="none"></path></g><g transform="translate(777.0072864369286 252.5107971266077) rotate(0 26.529991149902344 17.5)"><text x="0" y="24.528" font-family="Virgil, Segoe UI Emoji" font-size="28px" fill="#1971c2" text-anchor="start" style="white-space: pre;" direction="ltr" dominant-baseline="alphabetic">Bag</text></g><g stroke-linecap="round"><g transform="translate(612.3961047961384 86.62989316570406) rotate(0 73.8066756924809 43.382196831724116)"><path d="M-0.99 0.71 C14.7 3.63, 69.29 2.16, 94 16.61 C118.71 31.06, 138.42 75.63, 147.26 87.44 M0.7 0.04 C16.33 3.2, 69.34 3.69, 93.6 17.93 C117.87 32.16, 137.42 74.22, 146.31 85.45" stroke="#1971c2" stroke-width="2" fill="none"></path></g><g transform="translate(612.3961047961384 86.62989316570406) rotate(0 73.8066756924809 43.382196831724116)"><path d="M126.48 70.22 C133.33 76.57, 137.2 78.66, 146.31 85.45 M126.48 70.22 C134.47 75.44, 140.95 81.34, 146.31 85.45" stroke="#1971c2" stroke-width="2" fill="none"></path></g><g transform="translate(612.3961047961384 86.62989316570406) rotate(0 73.8066756924809 43.382196831724116)"><path d="M140.91 61.04 C143.5 69.94, 143.17 74.69, 146.31 85.45 M140.91 61.04 C143.71 69.62, 145.05 78.79, 146.31 85.45" stroke="#1971c2" stroke-width="2" fill="none"></path></g></g><mask></mask><g transform="translate(733.1946256325791 14.257205385137695) rotate(0 24.28998565673828 17.5)"><text x="0" y="24.528" font-family="Virgil, Segoe UI Emoji" font-size="28px" fill="#1971c2" text-anchor="start" style="white-space: pre;" direction="ltr" dominant-baseline="alphabetic">Milk</text></g><g stroke-linecap="round"><g transform="translate(912.4167352920686 100.26289171303347) rotate(0 -44.6654254189948 36.56569755805941)"><path d="M0.35 -0.25 C-9.13 2.14, -42.66 1.53, -57.48 13.64 C-72.3 25.75, -83.09 62.7, -88.58 72.44 M-0.92 -1.42 C-9.97 0.64, -40.53 -0.79, -55.2 11.68 C-69.87 24.15, -83.02 63.24, -88.95 73.39" stroke="#1971c2" stroke-width="2" fill="none"></path></g><g transform="translate(912.4167352920686 100.26289171303347) rotate(0 -44.6654254189948 36.56569755805941)"><path d="M-86.87 48.48 C-87.94 53.35, -87.53 62.22, -88.95 73.39 M-86.87 48.48 C-87.58 53.53, -87.94 61.18, -88.95 73.39" stroke="#1971c2" stroke-width="2" fill="none"></path></g><g transform="translate(912.4167352920686 100.26289171303347) rotate(0 -44.6654254189948 36.56569755805941)"><path d="M-71.34 55.65 C-76.27 58.77, -79.75 65.85, -88.95 73.39 M-71.34 55.65 C-75.75 58.82, -79.87 64.73, -88.95 73.39" stroke="#1971c2" stroke-width="2" fill="none"></path></g></g><mask></mask><g transform="translate(913.4167352920686 82.01789810959508) rotate(0 41.15998077392578 17.5)"><text x="0" y="24.528" font-family="Virgil, Segoe UI Emoji" font-size="28px" fill="#1971c2" text-anchor="start" style="white-space: pre;" direction="ltr" dominant-baseline="alphabetic">Bread</text></g><g stroke-linecap="round"><g transform="translate(773.4607631558574 44.05772428105695) rotate(0 12.943619418971139 64.56778530227274)"><path d="M-0.6 0.79 C3.77 22.25, 21.31 106.59, 25.8 128.12 M1.29 0.16 C5.52 21.79, 20.71 107.8, 24.81 129.12" stroke="#1971c2" stroke-width="2" fill="none"></path></g><g transform="translate(773.4607631558574 44.05772428105695) rotate(0 12.943619418971139 64.56778530227274)"><path d="M12.16 107.56 C16.73 113.23, 17.09 119.94, 24.81 129.12 M12.16 107.56 C16.92 115, 21.19 124.41, 24.81 129.12" stroke="#1971c2" stroke-width="2" fill="none"></path></g><g transform="translate(773.4607631558574 44.05772428105695) rotate(0 12.943619418971139 64.56778530227274)"><path d="M28.98 104.47 C29.05 110.88, 24.93 118.41, 24.81 129.12 M28.98 104.47 C27.48 113.13, 25.53 123.68, 24.81 129.12" stroke="#1971c2" stroke-width="2" fill="none"></path></g></g><mask></mask><g transform="translate(563.9818831125467 67.7108156817743) rotate(0 24.28998565673828 17.5)"><text x="0" y="24.528" font-family="Virgil, Segoe UI Emoji" font-size="28px" fill="#1971c2" text-anchor="start" style="white-space: pre;" direction="ltr" dominant-baseline="alphabetic">Milk</text></g></svg>