<svg version="1.1" xmlns="http://www.w3.org/2000/svg" viewBox="0 0 1432.0000915527344 333.6000671386719" width="4296.000274658203" height="1000.8002014160156">
  <!-- svg-source:excalidraw -->
  
  <defs>
    <style class="style-fonts">
      @font-face {
        font-family: "Virgil";
        src: url("https://excalidraw.com/Virgil.woff2");
      }
      @font-face {
        font-family: "Cascadia";
        src: url("https://excalidraw.com/Cascadia.woff2");
      }
      @font-face {
        font-family: "Assistant";
        src: url("https://excalidraw.com/Assistant-Regular.woff2");
      }
    </style>
    
  </defs>
  <rect x="0" y="0" width="1432.0000915527344" height="333.6000671386719" fill="#ffffff"></rect><g stroke-linecap="round" transform="translate(88.99995422363281 108.80001068115234) rotate(0 156.80001831054688 27.199989318847656)"><path d="M13.6 0 C103.96 -2.94, 198.48 -0.74, 300 0 M13.6 0 C76.8 -1.93, 138.87 -0.78, 300 0 M300 0 C309.71 -1.15, 313.94 4.47, 313.6 13.6 M300 0 C308.37 -0.48, 313.38 2.66, 313.6 13.6 M313.6 13.6 C312.69 19.21, 311.75 27.34, 313.6 40.8 M313.6 13.6 C313.37 21.15, 313.5 30.12, 313.6 40.8 M313.6 40.8 C314.35 49.91, 310.98 54.19, 300 54.4 M313.6 40.8 C311.63 51.17, 309.37 55.71, 300 54.4 M300 54.4 C193.96 53.24, 87.05 54.7, 13.6 54.4 M300 54.4 C222.95 54.84, 145.12 55.13, 13.6 54.4 M13.6 54.4 C2.7 52.93, 1.25 49.75, 0 40.8 M13.6 54.4 C3.71 52.45, -1.18 48, 0 40.8 M0 40.8 C-1.07 33.52, -1.56 22.6, 0 13.6 M0 40.8 C0.31 33.38, -0.85 27, 0 13.6 M0 13.6 C0.87 3.02, 4.07 -0.68, 13.6 0 M0 13.6 C-2.19 5.41, 6.24 -0.01, 13.6 0" stroke="#1e1e1e" stroke-width="2" fill="none"></path></g><g transform="translate(187.51002502441406 123.5) rotate(0 58.289947509765625 12.5)"><text x="58.289947509765625" y="17.52" font-family="Virgil, Segoe UI Emoji" font-size="20px" fill="#1e1e1e" text-anchor="middle" style="white-space: pre;" direction="ltr" dominant-baseline="alphabetic">Bloom Filter</text></g><g stroke-linecap="round" transform="translate(495.8000183105469 108.40000915527344) rotate(0 444.8000183105469 27.99999237060547)"><path d="M14 0 C230.37 -3.13, 445.81 -2.69, 875.6 0 M14 0 C344.06 -1.1, 673.49 -0.87, 875.6 0 M875.6 0 C885.11 0.82, 890.64 5.58, 889.6 14 M875.6 0 C882.83 -1.32, 887.44 2.41, 889.6 14 M889.6 14 C891.49 24.7, 889.95 33.71, 889.6 42 M889.6 14 C888.81 22.52, 889.44 33.72, 889.6 42 M889.6 42 C889.84 52.41, 883.18 55.32, 875.6 56 M889.6 42 C888.43 50.94, 882.99 56, 875.6 56 M875.6 56 C612.02 56.03, 349.38 56.13, 14 56 M875.6 56 C660.31 57.92, 445.01 57.64, 14 56 M14 56 C4.28 54.69, 1.35 49.88, 0 42 M14 56 C5.19 58.09, 0.06 49.05, 0 42 M0 42 C1.59 35.92, 0.54 27.7, 0 14 M0 42 C-0.74 31.92, -0.14 22.8, 0 14 M0 14 C0.76 3.62, 4.11 0.31, 14 0 M0 14 C1.9 6.02, 6.6 2.01, 14 0" stroke="#1e1e1e" stroke-width="2" fill="none"></path></g><g stroke-linecap="round"><g transform="translate(587.8000183105469 109.19999694824219) rotate(0 -1.1999969482421875 28.400001525878906)"><path d="M-0.1 -0.35 C-0.73 9.4, -2.56 47.91, -3.09 57.62 M-1.62 -1.58 C-1.91 7.92, -0.87 46.31, -0.73 55.92" stroke="#1e1e1e" stroke-width="2" fill="none"></path></g></g><mask></mask><g stroke-linecap="round"><g transform="translate(669.3999938964844 108.40000915527344) rotate(0 0 28.400001525878906)"><path d="M1.12 -0.59 C1.06 8.63, 0.75 46.49, 0.58 55.93 M0.26 1.71 C0 11.01, 0.09 47.81, -0.06 57.01" stroke="#1e1e1e" stroke-width="2" fill="none"></path></g></g><mask></mask><g stroke-linecap="round"><g transform="translate(751.0000305175781 107.60000610351562) rotate(0 -0.800018310546875 29.199996948242188)"><path d="M-0.2 0.91 C-0.32 10.59, -0.5 49.15, -0.58 58.8 M-1.77 0.35 C-1.96 9.6, -1.12 47.5, -0.99 56.88" stroke="#1e1e1e" stroke-width="2" fill="none"></path></g></g><mask></mask><g stroke-linecap="round"><g transform="translate(837.3999938964844 108.40000915527344) rotate(0 0.4000244140625 27.20000457763672)"><path d="M1.19 1.03 C1.29 10.14, 1.58 45.05, 1.34 53.93 M0.35 0.53 C0.28 9.87, 0.39 46.04, 0.68 55.22" stroke="#1e1e1e" stroke-width="2" fill="none"></path></g></g><mask></mask><g stroke-linecap="round"><g transform="translate(931.0000305175781 106.80003356933594) rotate(0 -1.20001220703125 28.399986267089844)"><path d="M-1.07 -0.73 C-1.73 8.6, -3.27 46.25, -3.6 55.9 M0.56 1.5 C0.23 10.96, -0.73 48.05, -1.51 56.97" stroke="#1e1e1e" stroke-width="2" fill="none"></path></g></g><mask></mask><g stroke-linecap="round"><g transform="translate(1027.8000183105469 106) rotate(0 0.399993896484375 28.800003051757812)"><path d="M-0.66 -0.79 C-0.65 8.97, 0.15 48.31, 0.23 57.97 M1.2 1.42 C0.98 10.85, -1.19 46.57, -1.02 56.04" stroke="#1e1e1e" stroke-width="2" fill="none"></path></g></g><mask></mask><g stroke-linecap="round"><g transform="translate(1118.2000427246094 108.40000915527344) rotate(0 0 26.400001525878906)"><path d="M0.39 -0.19 C0.29 8.37, 0.13 43.02, 0.17 51.8 M-0.86 -1.33 C-1.18 7.31, -0.86 43.65, -0.68 52.81" stroke="#1e1e1e" stroke-width="2" fill="none"></path></g></g><mask></mask><g stroke-linecap="round"><g transform="translate(1203.0000305175781 106.80003356933594) rotate(0 -1.5999755859375 28.79998016357422)"><path d="M-0.21 -0.33 C-0.79 9.24, -1.98 48.31, -2.34 58.15 M-1.79 -1.55 C-2.54 7.61, -2.68 46.56, -2.84 56.31" stroke="#1e1e1e" stroke-width="2" fill="none"></path></g></g><mask></mask><g stroke-linecap="round"><g transform="translate(1284.8000183105469 106.80003356933594) rotate(0 -0.399993896484375 29.199989318847656)"><path d="M-0.62 -0.88 C-0.89 8.83, -1.37 48.72, -1.51 58.65 M1.25 1.27 C1.36 10.57, 1.47 46.83, 0.83 56.65" stroke="#1e1e1e" stroke-width="2" fill="none"></path></g></g><mask></mask><g transform="translate(537.6000061035156 131) rotate(0 5.503997802734375 10)"><text x="0" y="14.016" font-family="Virgil, Segoe UI Emoji" font-size="16px" fill="#1e1e1e" text-anchor="start" style="white-space: pre;" direction="ltr" dominant-baseline="alphabetic">0</text></g><g transform="translate(622.6000061035156 139) rotate(0 5.503997802734375 10)"><text x="0" y="14.016" font-family="Virgil, Segoe UI Emoji" font-size="16px" fill="#1e1e1e" text-anchor="start" style="white-space: pre;" direction="ltr" dominant-baseline="alphabetic">0</text></g><g transform="translate(710.6000061035156 135) rotate(0 5.503997802734375 10)"><text x="0" y="14.016" font-family="Virgil, Segoe UI Emoji" font-size="16px" fill="#1e1e1e" text-anchor="start" style="white-space: pre;" direction="ltr" dominant-baseline="alphabetic">0</text></g><g transform="translate(782.6000061035156 133) rotate(0 5.503997802734375 10)"><text x="0" y="14.016" font-family="Virgil, Segoe UI Emoji" font-size="16px" fill="#1e1e1e" text-anchor="start" style="white-space: pre;" direction="ltr" dominant-baseline="alphabetic">0</text></g><g transform="translate(861.6000061035156 131) rotate(0 5.503997802734375 10)"><text x="0" y="14.016" font-family="Virgil, Segoe UI Emoji" font-size="16px" fill="#1e1e1e" text-anchor="start" style="white-space: pre;" direction="ltr" dominant-baseline="alphabetic">0</text></g><g transform="translate(974.6000061035156 134) rotate(0 5.503997802734375 10)"><text x="0" y="14.016" font-family="Virgil, Segoe UI Emoji" font-size="16px" fill="#1e1e1e" text-anchor="start" style="white-space: pre;" direction="ltr" dominant-baseline="alphabetic">0</text></g><g transform="translate(1070.6000061035156 132) rotate(0 5.503997802734375 10)"><text x="0" y="14.016" font-family="Virgil, Segoe UI Emoji" font-size="16px" fill="#1e1e1e" text-anchor="start" style="white-space: pre;" direction="ltr" dominant-baseline="alphabetic">0</text></g><g transform="translate(1150.6000061035156 134) rotate(0 5.503997802734375 10)"><text x="0" y="14.016" font-family="Virgil, Segoe UI Emoji" font-size="16px" fill="#1e1e1e" text-anchor="start" style="white-space: pre;" direction="ltr" dominant-baseline="alphabetic">0</text></g><g transform="translate(1230.6000061035156 137) rotate(0 5.503997802734375 10)"><text x="0" y="14.016" font-family="Virgil, Segoe UI Emoji" font-size="16px" fill="#1e1e1e" text-anchor="start" style="white-space: pre;" direction="ltr" dominant-baseline="alphabetic">0</text></g><g transform="translate(1324.6000061035156 135) rotate(0 5.503997802734375 10)"><text x="0" y="14.016" font-family="Virgil, Segoe UI Emoji" font-size="16px" fill="#1e1e1e" text-anchor="start" style="white-space: pre;" direction="ltr" dominant-baseline="alphabetic">0</text></g><g transform="translate(560.1999816894531 196.80001831054688) rotate(0 248.91976928710938 20)"><text x="0" y="14.016" font-family="Virgil, Segoe UI Emoji" font-size="16px" fill="#1e1e1e" text-anchor="start" style="white-space: pre;" direction="ltr" dominant-baseline="alphabetic">BloomFilterConstructor(numberOfHashFunctions, bitArrayLength);</text><text x="0" y="34.016" font-family="Virgil, Segoe UI Emoji" font-size="16px" fill="#1e1e1e" text-anchor="start" style="white-space: pre;" direction="ltr" dominant-baseline="alphabetic">setArrayBit();</text></g><g transform="translate(694.9999694824219 249.5999755859375) rotate(0 91.61592864990234 30)"><text x="0" y="14.016" font-family="Virgil, Segoe UI Emoji" font-size="16px" fill="#1e1e1e" text-anchor="start" style="white-space: pre;" direction="ltr" dominant-baseline="alphabetic">HashConstructor(index);</text><text x="0" y="34.016" font-family="Virgil, Segoe UI Emoji" font-size="16px" fill="#1e1e1e" text-anchor="start" style="white-space: pre;" direction="ltr" dominant-baseline="alphabetic">computeIndex();</text><text x="0" y="54.016" font-family="Virgil, Segoe UI Emoji" font-size="16px" fill="#1e1e1e" text-anchor="start" style="white-space: pre;" direction="ltr" dominant-baseline="alphabetic">hashFunction();</text></g><g stroke-linecap="round"><g transform="translate(555.4330414485203 214.399932861328) rotate(0 63.98347622398205 35.401005551676946)"><path d="M0.57 -0.65 C1.37 7.98, -16 39.47, 5.11 51.24 C26.23 63, 106.81 66.61, 127.29 69.92 M-0.58 1.62 C0.05 10.45, -16.78 40.95, 4.35 52.48 C25.48 64, 105.51 67.47, 126.17 70.78" stroke="#1e1e1e" stroke-width="2" fill="none"></path></g><g transform="translate(555.4330414485203 214.399932861328) rotate(0 63.98347622398205 35.401005551676946)"><path d="M101.93 76.88 C108.85 75.33, 116.98 71.62, 126.17 70.78 M101.93 76.88 C106.86 75.21, 112.81 73.81, 126.17 70.78" stroke="#1e1e1e" stroke-width="2" fill="none"></path></g><g transform="translate(555.4330414485203 214.399932861328) rotate(0 63.98347622398205 35.401005551676946)"><path d="M103.68 59.87 C109.95 63.93, 117.5 65.82, 126.17 70.78 M103.68 59.87 C108.22 62.06, 113.78 64.51, 126.17 70.78" stroke="#1e1e1e" stroke-width="2" fill="none"></path></g></g><mask></mask><g stroke-linecap="round" transform="translate(10 10) rotate(0 706.0000457763672 156.80003356933594)"><path d="M32 0 C431.16 1.88, 829.51 2.34, 1380 0 M32 0 C460.61 5.17, 888.29 4.81, 1380 0 M1380 0 C1401.61 -0.86, 1410.71 9.08, 1412 32 M1380 0 C1400.52 -0.16, 1413.36 9.93, 1412 32 M1412 32 C1412.56 121.46, 1410.98 207.97, 1412 281.6 M1412 32 C1410 113.42, 1410.18 192.88, 1412 281.6 M1412 281.6 C1411.05 301.8, 1399.4 315.3, 1380 313.6 M1412 281.6 C1410.14 302.02, 1401.83 313.16, 1380 313.6 M1380 313.6 C881.46 310.34, 383.02 311.1, 32 313.6 M1380 313.6 C968.77 312.23, 556.97 312.75, 32 313.6 M32 313.6 C10.55 315.02, -1.77 302.1, 0 281.6 M32 313.6 C11.11 313.52, 1.25 303.27, 0 281.6 M0 281.6 C-2.98 192.46, -2.97 105.13, 0 32 M0 281.6 C0.43 217.26, 0.74 153.13, 0 32 M0 32 C0.15 9.1, 12.45 -0.37, 32 0 M0 32 C-1.45 12.26, 9.72 -1.66, 32 0" stroke="#1971c2" stroke-width="2" fill="none"></path></g></svg>