<svg version="1.1" xmlns="http://www.w3.org/2000/svg" viewBox="0 0 607.7760445525814 711.781896853644" width="1823.3281336577443" height="2135.345690560932">
  <!-- svg-source:excalidraw -->
  
  <defs>
    <style class="style-fonts">
      @font-face {
        font-family: "Virgil";
        src: url("https://excalidraw.com/Virgil.woff2");
      }
      @font-face {
        font-family: "Cascadia";
        src: url("https://excalidraw.com/Cascadia.woff2");
      }
      @font-face {
        font-family: "Assistant";
        src: url("https://excalidraw.com/Assistant-Regular.woff2");
      }
    </style>
    
  </defs>
  <rect x="0" y="0" width="607.7760445525814" height="711.781896853644" fill="#ffffff"></rect><g stroke-linecap="round" transform="translate(10 10) rotate(0 293.8880222762907 345.890948426822)"><path d="M7.86 8.16 C7.86 8.16, 7.86 8.16, 7.86 8.16 M7.86 8.16 C7.86 8.16, 7.86 8.16, 7.86 8.16 M1.43 27.75 C7.47 20.37, 13.05 10.71, 24.4 1.33 M1.43 27.75 C7.4 20.02, 15.6 13.18, 24.4 1.33 M0.26 41.3 C11.01 27.95, 22.15 18.08, 36.34 -0.21 M0.26 41.3 C12.82 28.04, 24.37 14.06, 36.34 -0.21 M0.39 53.34 C18.75 32.5, 34.77 12.62, 46.97 -0.25 M0.39 53.34 C16.5 35.8, 31.7 17.73, 46.97 -0.25 M0.52 65.38 C20.28 41.64, 41.97 16.89, 57.6 -0.28 M0.52 65.38 C14.22 49.37, 27.96 33.16, 57.6 -0.28 M0 78.17 C22.83 49.64, 49.04 22.99, 67.57 0.44 M0 78.17 C23.42 51.72, 45.93 25.72, 67.57 0.44 M0.13 90.22 C24.82 60.8, 48.08 33.27, 78.2 0.41 M0.13 90.22 C23.53 62.47, 49.5 32.1, 78.2 0.41 M0.26 102.26 C19.77 81.76, 39.4 56.52, 88.83 0.37 M0.26 102.26 C28.87 70.66, 58.45 38.9, 88.83 0.37 M0.4 114.3 C36.78 73.62, 71.28 33.91, 99.46 0.34 M0.4 114.3 C21.25 90.26, 42.52 66.87, 99.46 0.34 M0.53 126.34 C40.88 83.4, 79.15 35.86, 110.09 0.3 M0.53 126.34 C44.9 77.63, 86.82 29.48, 110.09 0.3 M0.01 139.13 C26.84 111.34, 48.53 83.97, 120.72 0.27 M0.01 139.13 C37.95 94.21, 79.4 47.33, 120.72 0.27 M0.14 151.17 C43.73 104.17, 83.31 55.5, 131.35 0.23 M0.14 151.17 C46.11 97.98, 92.68 44.85, 131.35 0.23 M0.27 163.22 C51.56 100.82, 105.12 39.71, 141.98 0.2 M0.27 163.22 C49.36 109.37, 96.21 54.08, 141.98 0.2 M0.41 175.26 C55.4 109.12, 114.26 42.95, 152.61 0.16 M0.41 175.26 C49.63 119.2, 98.96 61.61, 152.61 0.16 M0.54 187.3 C40.6 143.05, 79.8 97.04, 163.24 0.13 M0.54 187.3 C42.81 137.86, 84.98 90.19, 163.24 0.13 M0.02 200.09 C60.19 130.51, 119.1 63.95, 173.87 0.09 M0.02 200.09 C55.34 135.66, 111.96 70.73, 173.87 0.09 M0.15 212.13 C44.35 159.75, 88.82 109.39, 184.5 0.06 M0.15 212.13 C61.96 138.88, 124.81 66.62, 184.5 0.06 M0.28 224.17 C42.82 175.36, 83.75 129.25, 195.13 0.03 M0.28 224.17 C52.73 161.52, 108.12 98.24, 195.13 0.03 M0.42 236.22 C45.52 179.55, 93.89 125.43, 205.76 -0.01 M0.42 236.22 C49.05 179.31, 98.78 120.92, 205.76 -0.01 M-0.11 249.01 C61.12 175.62, 125.4 104.47, 216.39 -0.04 M-0.11 249.01 C46.28 198.22, 91.69 145.81, 216.39 -0.04 M0.03 261.05 C78.15 173.41, 155.65 82.69, 227.02 -0.08 M0.03 261.05 C45.29 207.17, 92.4 152.9, 227.02 -0.08 M0.16 273.09 C60.67 204.72, 119.89 136.9, 237.65 -0.11 M0.16 273.09 C57.09 206.59, 114.63 139.39, 237.65 -0.11 M0.29 285.13 C82.74 189.76, 166.74 92.95, 248.28 -0.15 M0.29 285.13 C71.35 201.07, 143.4 118.75, 248.28 -0.15 M0.43 297.17 C78.41 205.26, 157.45 116.19, 258.91 -0.18 M0.43 297.17 C55.16 234.37, 109.9 170.72, 258.91 -0.18 M-0.1 309.97 C58.95 244.32, 117.43 176.28, 269.54 -0.22 M-0.1 309.97 C93.96 200.16, 188.46 91.34, 269.54 -0.22 M0.04 322.01 C60.42 253.09, 117.55 186.48, 280.17 -0.25 M0.04 322.01 C71.78 241.55, 141.76 160.61, 280.17 -0.25 M0.17 334.05 C73.63 248.54, 148.04 164.52, 290.8 -0.28 M0.17 334.05 C72.07 253.22, 143.85 170.98, 290.8 -0.28 M0.3 346.09 C84.95 250.74, 169.82 153, 300.78 0.44 M0.3 346.09 C118.46 208.71, 236.76 72.46, 300.78 0.44 M0.44 358.13 C107.73 234.42, 216.93 110.68, 311.41 0.4 M0.44 358.13 C77.71 269.96, 152.98 183.2, 311.41 0.4 M-0.09 370.93 C119.15 235.5, 236.35 100.82, 322.04 0.37 M-0.09 370.93 C124.19 227.64, 248.28 85.21, 322.04 0.37 M0.05 382.97 C82.09 286.26, 166.03 190.03, 332.67 0.33 M0.05 382.97 C68.9 304.32, 138.82 224.57, 332.67 0.33 M0.18 395.01 C92.59 289.46, 184.65 185.73, 343.3 0.3 M0.18 395.01 C89.91 290.9, 180.07 187.24, 343.3 0.3 M0.31 407.05 C127.34 259.36, 257.76 111.56, 353.93 0.26 M0.31 407.05 C74.17 322.38, 149 237.15, 353.93 0.26 M0.45 419.09 C121.97 278.04, 244.3 137.96, 364.56 0.23 M0.45 419.09 C137.67 260.63, 275.78 102.07, 364.56 0.23 M-0.08 431.89 C124.63 287.46, 251.66 141.7, 375.19 0.19 M-0.08 431.89 C122.5 292.17, 244.11 152.93, 375.19 0.19 M0.06 443.93 C102.53 329.61, 202.11 213.39, 385.82 0.16 M0.06 443.93 C147.72 274.73, 293.51 106.26, 385.82 0.16 M0.19 455.97 C102.11 339.09, 204.53 222.43, 396.45 0.12 M0.19 455.97 C89.19 355.33, 177.28 253.32, 396.45 0.12 M0.32 468.01 C118.34 333.68, 236.85 199.65, 407.08 0.09 M0.32 468.01 C89.92 364.12, 179 261.41, 407.08 0.09 M0.46 480.05 C112.2 352.83, 224.87 224.49, 417.71 0.06 M0.46 480.05 C161.49 293.61, 323.13 107.9, 417.71 0.06 M-0.07 492.85 C86.77 392.34, 175.92 289.98, 428.34 0.02 M-0.07 492.85 C149.05 317.42, 300.8 143.77, 428.34 0.02 M0.07 504.89 C156.8 327.26, 312.88 147.91, 438.97 -0.01 M0.07 504.89 C134.17 354.44, 266.05 202.16, 438.97 -0.01 M0.2 516.93 C159.1 335.78, 316.54 154.85, 449.6 -0.05 M0.2 516.93 C153.77 340.7, 306.64 165.14, 449.6 -0.05 M0.33 528.97 C163.33 341.06, 326.2 153.36, 460.23 -0.08 M0.33 528.97 C115.81 395.77, 230.16 263.73, 460.23 -0.08 M0.47 541.01 C97 430.37, 192.98 320.68, 470.86 -0.12 M0.47 541.01 C113.6 408.19, 227.82 276.59, 470.86 -0.12 M-0.06 553.81 C166.65 362.81, 333.04 170.81, 481.49 -0.15 M-0.06 553.81 C153.27 375.21, 307.05 197.18, 481.49 -0.15 M0.08 565.85 C193.32 343.66, 386.88 122.29, 492.12 -0.19 M0.08 565.85 C113.31 437.42, 224.82 309.41, 492.12 -0.19 M0.21 577.89 C127.69 430.6, 255.89 282.23, 502.75 -0.22 M0.21 577.89 C103.48 459.65, 206.89 340.83, 502.75 -0.22 M0.34 589.93 C151.14 415.65, 302.36 241.73, 513.38 -0.25 M0.34 589.93 C182.17 377.32, 366.92 165.04, 513.38 -0.25 M0.48 601.97 C137.44 447.72, 273.42 291.61, 523.35 0.47 M0.48 601.97 C105.09 478.7, 209.77 358.27, 523.35 0.47 M-0.05 614.76 C126.77 472.27, 251.23 327.66, 533.98 0.43 M-0.05 614.76 C111.66 482, 225.99 351.06, 533.98 0.43 M0.09 626.81 C208.62 389.16, 415.33 150.85, 544.61 0.4 M0.09 626.81 C110.49 500.78, 221.36 372.79, 544.61 0.4 M0.22 638.85 C155.22 461.51, 311.25 282.1, 555.24 0.36 M0.22 638.85 C143.32 472.36, 288.69 304.76, 555.24 0.36 M0.35 650.89 C161.87 466.76, 322.37 283.51, 564.56 1.84 M0.35 650.89 C176.21 445.63, 354.56 240.11, 564.56 1.84 M0.49 662.93 C142.38 498.15, 284.73 333.43, 573.22 4.07 M0.49 662.93 C166.34 474.17, 328.84 286.54, 573.22 4.07 M1.93 673.46 C167.28 481.98, 332.01 291.52, 579.92 8.56 M1.93 673.46 C141.01 511.59, 279.95 351.96, 579.92 8.56 M6.66 680.22 C182.55 476.75, 357.15 274.54, 584.64 15.32 M6.66 680.22 C214.69 440.66, 423.01 199.91, 584.64 15.32 M12.04 686.22 C214.57 452.76, 416.37 221.52, 586.75 25.1 M12.04 686.22 C177.3 496.94, 342.37 307.1, 586.75 25.1 M19.39 689.96 C220.26 456.79, 423.04 222.62, 588.19 35.63 M19.39 689.96 C177.31 507.03, 334.79 326.07, 588.19 35.63 M28.71 691.43 C190.68 506.9, 348.18 325.2, 588.32 47.67 M28.71 691.43 C234.29 455.34, 438.07 220.71, 588.32 47.67 M38.68 692.15 C182.34 524, 325.78 356.88, 588.46 59.71 M38.68 692.15 C210.66 491.18, 384.42 291.02, 588.46 59.71 M49.31 692.12 C233.9 479.41, 418.58 267.26, 588.59 71.75 M49.31 692.12 C255.34 453.61, 463.88 214.2, 588.59 71.75 M59.94 692.09 C181.01 552.41, 300.77 413.27, 588.07 84.54 M59.94 692.09 C204.64 527.73, 348.25 362.05, 588.07 84.54 M70.57 692.05 C190 556.67, 310.21 417.95, 588.2 96.59 M70.57 692.05 C213.08 531.42, 353.64 369.54, 588.2 96.59 M81.2 692.02 C185.45 573.03, 288.17 452.56, 588.33 108.63 M81.2 692.02 C203.78 555.41, 323.74 416.96, 588.33 108.63 M91.83 691.98 C237.18 521.6, 386.02 352.18, 588.47 120.67 M91.83 691.98 C257.37 498.71, 425.04 305.25, 588.47 120.67 M102.46 691.95 C240.58 531.47, 380.63 370.17, 588.6 132.71 M102.46 691.95 C203.87 574.1, 304.67 458.14, 588.6 132.71 M113.09 691.91 C274.13 507.48, 433.51 322.55, 588.08 145.5 M113.09 691.91 C260.49 523.3, 407.38 354.6, 588.08 145.5 M123.72 691.88 C276.43 517.07, 427.53 343.02, 588.21 157.54 M123.72 691.88 C255.6 538.79, 387.61 387.09, 588.21 157.54 M134.35 691.84 C315.04 483.26, 494.66 276.36, 588.34 169.59 M134.35 691.84 C275.88 529.33, 417.34 366.61, 588.34 169.59 M144.98 691.81 C280.33 534.4, 416.8 378.09, 588.48 181.63 M144.98 691.81 C262.33 557.05, 380.93 420.59, 588.48 181.63 M155.61 691.78 C312 512.65, 468.39 332.82, 588.61 193.67 M155.61 691.78 C275.2 554.61, 394.44 417.85, 588.61 193.67 M166.24 691.74 C322.8 511.96, 479.09 331.1, 588.09 206.46 M166.24 691.74 C276.39 562.77, 388.03 433.98, 588.09 206.46 M176.87 691.71 C332.87 514.02, 485.85 337.5, 588.22 218.5 M176.87 691.71 C313.45 535.77, 449.18 379.4, 588.22 218.5 M187.5 691.67 C270.74 599.28, 351.26 505.9, 588.35 230.54 M187.5 691.67 C303.68 560.28, 418.39 428.49, 588.35 230.54 M198.13 691.64 C280.72 596.94, 363.9 500.62, 588.49 242.59 M198.13 691.64 C282.15 595.92, 366.62 498.9, 588.49 242.59 M208.76 691.6 C300.03 587.09, 389.51 484.24, 588.62 254.63 M208.76 691.6 C301.3 584.48, 393.34 479.32, 588.62 254.63 M218.73 692.32 C334.04 558.33, 448.74 424.07, 588.1 267.42 M218.73 692.32 C317.77 578.66, 416.79 464.48, 588.1 267.42 M229.36 692.29 C318.1 589.39, 407.06 486.35, 588.23 279.46 M229.36 692.29 C355.25 550.12, 479.9 406.49, 588.23 279.46 M239.99 692.25 C362.36 549.88, 484.97 410.02, 588.36 291.5 M239.99 692.25 C319.16 600.02, 399.53 507.97, 588.36 291.5 M250.63 692.22 C374.18 548.22, 500.3 405.13, 588.5 303.54 M250.63 692.22 C358.25 566.01, 467.01 440.79, 588.5 303.54 M261.26 692.19 C344.31 598, 426.78 504.29, 587.97 316.34 M261.26 692.19 C342.1 600.05, 422.3 508.28, 587.97 316.34 M271.89 692.15 C358.18 594.02, 443.06 495.42, 588.11 328.38 M271.89 692.15 C396.05 550.57, 518.3 409.51, 588.11 328.38 M282.52 692.12 C400.03 557, 517.5 422.56, 588.24 340.42 M282.52 692.12 C364.65 599.65, 444.75 506.81, 588.24 340.42 M293.15 692.08 C401.19 567.73, 509.8 441.84, 588.37 352.46 M293.15 692.08 C373.22 599.98, 451.76 509.35, 588.37 352.46 M303.78 692.05 C409.39 571.81, 514.78 450.07, 588.51 364.5 M303.78 692.05 C370.06 615.64, 436.19 539.06, 588.51 364.5 M314.41 692.01 C377.61 618.23, 440.68 543.72, 587.98 377.3 M314.41 692.01 C421.89 570.27, 528.66 447.14, 587.98 377.3 M325.04 691.98 C397.08 609.53, 468.31 526.66, 588.12 389.34 M325.04 691.98 C407.05 595.98, 489.79 500.49, 588.12 389.34 M335.67 691.94 C429.37 584.14, 524.89 472.41, 588.25 401.38 M335.67 691.94 C409.19 607.65, 481.7 523.63, 588.25 401.38 M346.3 691.91 C395.48 636.53, 442.66 581.62, 588.38 413.42 M346.3 691.91 C406.88 620.01, 469.84 547.24, 588.38 413.42 M356.93 691.87 C417.15 621.09, 479.59 551.09, 588.51 425.46 M356.93 691.87 C448.31 587.89, 539.3 483.55, 588.51 425.46 M367.56 691.84 C439.89 607.88, 511.83 528.96, 587.99 438.26 M367.56 691.84 C419.04 632.18, 469.09 574.12, 587.99 438.26 M378.19 691.81 C442.17 619.66, 502.65 547.66, 588.13 450.3 M378.19 691.81 C429.33 634.56, 479.6 576.74, 588.13 450.3 M388.82 691.77 C434.04 637.23, 481.21 583.08, 588.26 462.34 M388.82 691.77 C466.56 602.82, 544.98 513.93, 588.26 462.34 M399.45 691.74 C444.07 642.91, 487.88 592.27, 588.39 474.38 M399.45 691.74 C452.63 629.91, 504.94 569.84, 588.39 474.38 M410.08 691.7 C481.68 610.57, 551.37 532.45, 588.52 486.42 M410.08 691.7 C464.8 628.21, 519.01 564.61, 588.52 486.42 M420.71 691.67 C481.61 620.3, 542.04 549.11, 588 499.22 M420.71 691.67 C461.2 645.42, 500.32 599.32, 588 499.22 M431.34 691.63 C477.55 637.58, 525.15 583.72, 588.13 511.26 M431.34 691.63 C486.11 630.12, 540.21 566.19, 588.13 511.26 M441.97 691.6 C495.02 629.87, 545.97 571.05, 588.27 523.3 M441.97 691.6 C495.89 628.62, 551.63 564.94, 588.27 523.3 M451.94 692.32 C491.06 645.25, 530.28 598.36, 588.4 535.34 M451.94 692.32 C490.6 645.44, 532.14 600.35, 588.4 535.34 M462.57 692.28 C510.26 633.46, 560.1 580.8, 588.53 547.38 M462.57 692.28 C492.54 656.72, 522.27 621.6, 588.53 547.38 M473.2 692.25 C514.58 641.3, 561.85 593.51, 588.01 560.18 M473.2 692.25 C507.15 650.8, 542.99 610.28, 588.01 560.18 M483.83 692.22 C504.81 666.66, 529.8 641.84, 588.14 572.22 M483.83 692.22 C512.12 658.99, 542.02 624.02, 588.14 572.22 M494.46 692.18 C532.18 649.18, 565.91 605.87, 588.28 584.26 M494.46 692.18 C530.3 650.25, 566.07 609.22, 588.28 584.26 M505.09 692.15 C532.06 662.39, 555.38 631.4, 588.41 596.3 M505.09 692.15 C525.49 669, 546.9 643.56, 588.41 596.3 M515.72 692.11 C531.34 676.05, 545.29 659.13, 588.54 608.34 M515.72 692.11 C537.1 666.96, 557.74 642.5, 588.54 608.34 M526.35 692.08 C544.75 668.25, 567.21 645.07, 588.02 621.13 M526.35 692.08 C539.68 675.38, 554.64 659.27, 588.02 621.13 M536.98 692.04 C557.43 668.19, 573.77 648.75, 588.15 633.18 M536.98 692.04 C549.01 678.33, 560.82 665.44, 588.15 633.18 M547.61 692.01 C556.11 680.1, 564.07 671.85, 588.29 645.22 M547.61 692.01 C561.43 675.57, 575.52 660.18, 588.29 645.22 M558.24 691.97 C565.31 681.25, 573.05 673.13, 588.42 657.26 M558.24 691.97 C568.58 678.71, 581.07 666.78, 588.42 657.26 M570.18 690.43 C574.49 681.98, 580.33 675.47, 586.59 671.56 M570.18 690.43 C575.19 684.59, 579.7 680.49, 586.59 671.56" stroke="#99e9f2" stroke-width="1" fill="none"></path><path d="M32 0 C217.13 -0.01, 402.67 1.46, 555.78 0 M32 0 C197.25 0.44, 362.21 0.65, 555.78 0 M555.78 0 C576.52 -0.27, 587.23 12.17, 587.78 32 M555.78 0 C576.16 1.06, 585.77 10.73, 587.78 32 M587.78 32 C589.16 231.12, 590.33 430.15, 587.78 659.78 M587.78 32 C589.71 198, 589.25 364.58, 587.78 659.78 M587.78 659.78 C586.42 682.32, 577.25 692.07, 555.78 691.78 M587.78 659.78 C589.16 682.39, 575.6 692.67, 555.78 691.78 M555.78 691.78 C397.27 691.2, 239.52 690.45, 32 691.78 M555.78 691.78 C402.25 689.48, 249.22 689.51, 32 691.78 M32 691.78 C9.56 690.37, -1.98 680.14, 0 659.78 M32 691.78 C12.78 691.97, 1.41 680.22, 0 659.78 M0 659.78 C-1.45 461.45, -1.48 263.92, 0 32 M0 659.78 C-1.43 479.68, -1.74 299.8, 0 32 M0 32 C1.84 9.01, 11.03 1.32, 32 0 M0 32 C-0.52 9.69, 12.02 -1.92, 32 0" stroke="#1971c2" stroke-width="2" fill="none"></path></g><g transform="translate(223.41973994922319 36.1942943869326) rotate(0 50.92198944091797 22.5)"><text x="0" y="31.536" font-family="Virgil, Segoe UI Emoji" font-size="36px" fill="#343a40" text-anchor="start" style="white-space: pre;" direction="ltr" dominant-baseline="alphabetic">Stack</text></g><g stroke-linecap="round" transform="translate(165.77024116286725 191.53313282520048) rotate(0 127.38327097846343 229.48074307162142)"><path d="M7.86 8.16 C7.86 8.16, 7.86 8.16, 7.86 8.16 M7.86 8.16 C7.86 8.16, 7.86 8.16, 7.86 8.16 M1.43 27.75 C9.63 19.52, 12.84 12.42, 24.4 1.33 M1.43 27.75 C9.2 18.4, 16.82 10.04, 24.4 1.33 M0.26 41.3 C15.01 25.61, 24.88 12.67, 36.34 -0.21 M0.26 41.3 C9.36 30.8, 19.46 18.55, 36.34 -0.21 M0.39 53.34 C13.75 38.26, 26.54 22.21, 46.97 -0.25 M0.39 53.34 C11.1 41.33, 21.99 29.16, 46.97 -0.25 M0.52 65.38 C17.96 45.15, 36.88 22.91, 57.6 -0.28 M0.52 65.38 C21.31 40.42, 43.13 15.9, 57.6 -0.28 M0 78.17 C18.44 55.87, 34.67 38.99, 67.57 0.44 M0 78.17 C16.29 58.94, 33.32 39.21, 67.57 0.44 M0.13 90.22 C24.6 59.03, 50.23 30.9, 78.2 0.41 M0.13 90.22 C30.22 54.05, 60.41 20.71, 78.2 0.41 M0.26 102.26 C30.81 66.38, 59.17 32.12, 88.83 0.37 M0.26 102.26 C19.36 79.18, 39.45 57.35, 88.83 0.37 M0.4 114.3 C22.84 89.03, 40.84 64.48, 99.46 0.34 M0.4 114.3 C28.02 84.09, 53.5 53.03, 99.46 0.34 M0.53 126.34 C39.78 84.84, 76.55 42.52, 110.09 0.3 M0.53 126.34 C28.43 94.17, 57.88 61.26, 110.09 0.3 M0.01 139.13 C44.77 88.83, 86.59 40.63, 120.72 0.27 M0.01 139.13 C42.23 90.19, 82.45 43.47, 120.72 0.27 M0.14 151.17 C32.73 115.75, 65 76.65, 131.35 0.23 M0.14 151.17 C48.31 93.89, 98.67 36.86, 131.35 0.23 M0.27 163.22 C39.24 115.8, 80.76 71.79, 141.98 0.2 M0.27 163.22 C49.36 105.41, 97.09 48.01, 141.98 0.2 M0.41 175.26 C59.09 110.14, 117.13 42.88, 152.61 0.16 M0.41 175.26 C43.01 124.45, 87.85 72.58, 152.61 0.16 M0.54 187.3 C45.67 136.73, 89.08 82.62, 163.24 0.13 M0.54 187.3 C41.2 142.46, 80.42 97.36, 163.24 0.13 M0.02 200.09 C36.04 158.55, 75.41 113.76, 173.87 0.09 M0.02 200.09 C36.94 154.51, 75.05 111.5, 173.87 0.09 M0.15 212.13 C60.17 142.35, 122.68 71.87, 184.5 0.06 M0.15 212.13 C67.26 133.93, 134.9 57.46, 184.5 0.06 M0.28 224.17 C74.87 140.34, 146.44 57.83, 195.13 0.03 M0.28 224.17 C58.85 159.16, 115.91 93.34, 195.13 0.03 M0.42 236.22 C51.6 174.9, 105.76 114.5, 205.76 -0.01 M0.42 236.22 C54.69 172.64, 109.03 110.42, 205.76 -0.01 M-0.11 249.01 C46.71 195.24, 93.23 140.28, 216.39 -0.04 M-0.11 249.01 C75.2 164.71, 148.38 80.45, 216.39 -0.04 M0.03 261.05 C74.23 177.85, 146.38 92.92, 226.37 0.68 M0.03 261.05 C69.28 179.95, 139.29 100.09, 226.37 0.68 M0.16 273.09 C62.25 202.65, 122.04 132.16, 235.69 2.15 M0.16 273.09 C66.51 195.25, 133.83 117.65, 235.69 2.15 M0.29 285.13 C58.36 215.23, 116.11 149.8, 243.04 5.89 M0.29 285.13 C57.95 216.88, 116.36 150.37, 243.04 5.89 M0.43 297.17 C91.56 190.8, 184.25 86.01, 249.07 11.14 M0.43 297.17 C90.33 191.81, 181.82 87.42, 249.07 11.14 M-0.1 309.97 C93.72 201.7, 187.23 93.77, 253.14 18.65 M-0.1 309.97 C58.75 242.22, 116.91 174.99, 253.14 18.65 M0.04 322.01 C86.44 222.83, 175.09 121.35, 254.59 29.18 M0.04 322.01 C81.67 225.67, 163.68 130.85, 254.59 29.18 M0.17 334.05 C81.75 241.99, 160.08 150.25, 254.72 41.22 M0.17 334.05 C59.04 264.93, 119.23 196.91, 254.72 41.22 M0.3 346.09 C87.03 244.8, 176.28 144, 254.85 53.27 M0.3 346.09 C99.29 232.62, 198.92 117.71, 254.85 53.27 M0.44 358.13 C81.96 263.02, 165.32 169.42, 254.99 65.31 M0.44 358.13 C56.27 293.33, 114.07 226.36, 254.99 65.31 M-0.09 370.93 C67.97 292.64, 137.21 213.54, 254.46 78.1 M-0.09 370.93 C81.92 277.15, 163.2 183.98, 254.46 78.1 M0.05 382.97 C78.64 295.11, 154.7 205.93, 254.6 90.14 M0.05 382.97 C94.47 274.91, 188.24 166.35, 254.6 90.14 M0.18 395.01 C92.52 285.85, 187.93 177.6, 254.73 102.18 M0.18 395.01 C86.49 293.18, 175.69 192.06, 254.73 102.18 M0.31 407.05 C102.42 291.23, 203.86 175.88, 254.86 114.22 M0.31 407.05 C60.6 336.18, 122.16 265.24, 254.86 114.22 M0.45 419.09 C61.61 349.76, 121.65 282.07, 255 126.26 M0.45 419.09 C61.02 352.18, 118.45 285.6, 255 126.26 M0.58 431.13 C100.58 315.7, 202.06 197.57, 254.47 139.06 M0.58 431.13 C54.3 368.21, 110.31 303.85, 254.47 139.06 M2.68 440.91 C55.57 380.68, 108.83 319.89, 254.61 151.1 M2.68 440.91 C56.11 377.12, 111.22 314.87, 254.61 151.1 M6.75 448.42 C91.32 349.4, 179.34 250.19, 254.74 163.14 M6.75 448.42 C76.12 370.11, 145.18 290.5, 254.74 163.14 M12.13 454.43 C105.12 347.91, 197.6 239.56, 254.87 175.18 M12.13 454.43 C76.88 381.71, 141.83 306.97, 254.87 175.18 M20.14 457.41 C96.1 369.02, 173.52 278.52, 255.01 187.22 M20.14 457.41 C67.4 403.09, 115.37 348.71, 255.01 187.22 M29.46 458.88 C119.67 355.76, 206.29 254.95, 254.48 200.02 M29.46 458.88 C81.97 396.9, 134.37 336.42, 254.48 200.02 M40.09 458.85 C102.8 386.86, 162.81 316.19, 254.62 212.06 M40.09 458.85 C120.99 363.58, 201.81 271.02, 254.62 212.06 M50.72 458.82 C94.32 407.09, 136.48 359, 254.75 224.1 M50.72 458.82 C108.07 391.89, 166.99 324.13, 254.75 224.1 M61.35 458.78 C137.71 372.97, 209.61 288.61, 254.88 236.14 M61.35 458.78 C138.89 370.15, 216.24 281.68, 254.88 236.14 M71.98 458.75 C142 379.26, 212.7 297.68, 255.02 248.18 M71.98 458.75 C123.8 398.64, 176.01 337.38, 255.02 248.18 M82.61 458.71 C129.05 404.58, 175.57 353.54, 254.49 260.98 M82.61 458.71 C126.12 409.04, 167.81 360.18, 254.49 260.98 M93.24 458.68 C152.15 389.63, 211.58 319.5, 254.63 273.02 M93.24 458.68 C127.54 421.37, 160.87 382.87, 254.63 273.02 M103.87 458.64 C164.69 389.11, 225.1 322.32, 254.76 285.06 M103.87 458.64 C152.84 403.42, 202.47 348.28, 254.76 285.06 M114.5 458.61 C144.29 425.16, 172.45 392.42, 254.89 297.1 M114.5 458.61 C158.18 406.9, 202.03 358.16, 254.89 297.1 M124.47 459.33 C163.06 414.64, 202.38 367.69, 255.03 309.14 M124.47 459.33 C154.95 425.51, 182.43 391.96, 255.03 309.14 M135.1 459.29 C164.67 424.96, 191.82 389.52, 254.5 321.94 M135.1 459.29 C182.29 407.03, 227.11 354.6, 254.5 321.94 M145.73 459.26 C183.64 417.07, 223.89 371.18, 254.64 333.98 M145.73 459.26 C183.9 417.33, 221.24 372.03, 254.64 333.98 M156.36 459.23 C176.44 434.14, 201.73 408.52, 254.77 346.02 M156.36 459.23 C182.53 427.89, 212.16 395.91, 254.77 346.02 M166.99 459.19 C196.21 422.17, 228.13 389.5, 254.9 358.06 M166.99 459.19 C194.62 429.08, 221.12 397.28, 254.9 358.06 M177.62 459.16 C209.65 422.83, 241.22 386.29, 255.04 370.1 M177.62 459.16 C195.81 440.23, 212.32 419.46, 255.04 370.1 M188.25 459.12 C211.59 431.97, 235.55 401.55, 254.51 382.9 M188.25 459.12 C208.23 436.15, 228.04 412.86, 254.51 382.9 M198.88 459.09 C218.54 435.81, 240.26 412.57, 254.65 394.94 M198.88 459.09 C214.3 444.18, 228.12 426.78, 254.65 394.94 M209.51 459.05 C225.08 442.44, 237.84 423.17, 254.78 406.98 M209.51 459.05 C225.49 440.5, 240.87 423.11, 254.78 406.98 M220.14 459.02 C229.27 445.45, 243.63 433.84, 254.91 419.02 M220.14 459.02 C232.71 444.73, 245.57 428.84, 254.91 419.02 M232.08 457.47 C242.4 450.09, 247.56 438.36, 255.05 431.06 M232.08 457.47 C238.45 449.87, 244.18 444.7, 255.05 431.06" stroke="#ffffff" stroke-width="1" fill="none"></path><path d="M32 0 C73.41 -0.73, 113.55 -3.47, 222.77 0 M32 0 C93.09 0.96, 154.38 -0.01, 222.77 0 M222.77 0 C245.13 1.66, 255.27 10.64, 254.77 32 M222.77 0 C245.57 0.17, 255.85 10.88, 254.77 32 M254.77 32 C256.15 136.43, 254.67 243.22, 254.77 426.96 M254.77 32 C256.39 164.74, 255.84 296.37, 254.77 426.96 M254.77 426.96 C254.33 449.22, 243.69 459.51, 222.77 458.96 M254.77 426.96 C256.83 450.33, 246.02 459.97, 222.77 458.96 M222.77 458.96 C169.63 458.62, 114 460.03, 32 458.96 M222.77 458.96 C152.24 457.89, 81.82 458.6, 32 458.96 M32 458.96 C9.44 459.91, -0.46 449.11, 0 426.96 M32 458.96 C11.61 459.68, 1.05 448.36, 0 426.96 M0 426.96 C0.12 276.84, 1.02 125.37, 0 32 M0 426.96 C1.5 284.94, 1.19 143.11, 0 32 M0 32 C-1.98 8.85, 10.7 -0.4, 32 0 M0 32 C-0.01 8.67, 10.53 -1.87, 32 0" stroke="#343a40" stroke-width="2" fill="none"></path></g><g stroke-linecap="round"><g transform="translate(166.72440851734973 573.2058984825007) rotate(0 126.42910362398061 -0.477120076393021)"><path d="M0.39 0.09 C42.15 -0.16, 209.47 -0.96, 251.66 -1.06 M-0.87 -0.91 C41.15 -1, 211.41 0.7, 253.74 0.42" stroke="#343a40" stroke-width="2" fill="none"></path></g></g><mask></mask><g stroke-linecap="round"><g transform="translate(168.14632709324997 256.72021705543375) rotate(0 126.42910362398061 -0.477120076393021)"><path d="M0.66 0.81 C42.99 0.82, 211.36 -0.09, 253.31 -0.2 M-0.46 0.19 C41.82 -0.12, 210.63 -1.62, 252.59 -1.92" stroke="#343a40" stroke-width="2" fill="none"></path></g></g><mask></mask><g stroke-linecap="round"><g transform="translate(166.23791958598213 333.0547337877406) rotate(0 126.42910362398061 -0.477120076393021)"><path d="M-0.24 0.32 C42.11 0.1, 211.33 -0.24, 253.71 -0.42 M-1.82 -0.55 C40.47 -1.21, 210.6 -2.47, 253.21 -2.26" stroke="#343a40" stroke-width="2" fill="none"></path></g></g><mask></mask><g stroke-linecap="round"><g transform="translate(165.28375223149897 400.8016715314034) rotate(0 126.42910362398061 -0.477120076393021)"><path d="M1.12 -0.4 C43.08 -0.58, 209.92 -1.78, 252.03 -1.93 M0.24 -1.65 C42.57 -1.64, 212.09 -1.15, 254.31 -0.9" stroke="#343a40" stroke-width="2" fill="none"></path></g></g><mask></mask><g stroke-linecap="round"><g transform="translate(166.23791958598144 463.77762690604504) rotate(0 126.42910362398061 -0.477120076393021)"><path d="M0.81 -0.81 C43.24 -1.01, 211.83 -1.84, 253.89 -2.04 M-0.22 1.39 C42.19 1.36, 211.36 -0.63, 253.48 -1.07" stroke="#343a40" stroke-width="2" fill="none"></path></g></g><mask></mask><g stroke-linecap="round"><g transform="translate(164.3295848770158 518.1660032920418) rotate(0 126.42910362398061 -0.477120076393021)"><path d="M0.91 0.86 C42.98 0.87, 210.47 0.03, 252.46 -0.39 M-0.07 0.26 C41.81 -0.03, 209.28 -2.05, 251.3 -2.22" stroke="#343a40" stroke-width="2" fill="none"></path></g></g><mask></mask><g stroke-linecap="round"><g transform="translate(97.06909966557123 134.28218157745414) rotate(0 83.49091748753449 18.606545505835584)"><path d="M0.8 0.61 C21.35 -2.08, 96.09 -24.23, 123.92 -15.33 C151.75 -6.42, 160.69 42.41, 167.77 54.04 M-0.24 -0.11 C20.62 -3.21, 98.12 -25.67, 126.06 -16.98 C154 -8.29, 160.71 40.44, 167.42 52.01" stroke="#343a40" stroke-width="2" fill="none"></path></g><g transform="translate(97.06909966557123 134.28218157745414) rotate(0 83.49091748753449 18.606545505835584)"><path d="M151.42 32.81 C158.19 37.65, 164.28 47.51, 167.42 52.01 M151.42 32.81 C156.02 39.32, 162.53 46.01, 167.42 52.01" stroke="#343a40" stroke-width="2" fill="none"></path></g><g transform="translate(97.06909966557123 134.28218157745414) rotate(0 83.49091748753449 18.606545505835584)"><path d="M167.51 27.01 C168.67 33.99, 169.11 45.9, 167.42 52.01 M167.51 27.01 C166.45 35.7, 167.32 44.41, 167.42 52.01" stroke="#343a40" stroke-width="2" fill="none"></path></g></g><mask></mask><g transform="translate(55.3236409218041 157.42108571559766) rotate(0 40.787986755371094 22.5)"><text x="0" y="31.536" font-family="Virgil, Segoe UI Emoji" font-size="36px" fill="#343a40" text-anchor="start" style="white-space: pre;" direction="ltr" dominant-baseline="alphabetic">Push</text></g><g stroke-linecap="round"><g transform="translate(305.08078606812114 189.62472531793173) rotate(0 106.86834526472285 -41.02981502832927)"><path d="M0.97 -0.48 C11.87 -14.32, 30.32 -77.63, 65.93 -82.03 C101.54 -86.43, 190.15 -36.27, 214.61 -26.86 M0.02 -1.78 C10.72 -14.89, 29.32 -76.42, 65.03 -80.48 C100.74 -84.53, 189.75 -35.47, 214.3 -26.12" stroke="#343a40" stroke-width="2" fill="none"></path></g><g transform="translate(305.08078606812114 189.62472531793173) rotate(0 106.86834526472285 -41.02981502832927)"><path d="M189.38 -28.13 C197.23 -27.48, 206.73 -25.49, 214.3 -26.12 M189.38 -28.13 C193.91 -27.7, 199.13 -27.18, 214.3 -26.12" stroke="#343a40" stroke-width="2" fill="none"></path></g><g transform="translate(305.08078606812114 189.62472531793173) rotate(0 106.86834526472285 -41.02981502832927)"><path d="M196.5 -43.68 C202.01 -37.58, 209.04 -30.19, 214.3 -26.12 M196.5 -43.68 C199.4 -40, 203.14 -36.24, 214.3 -26.12" stroke="#343a40" stroke-width="2" fill="none"></path></g></g><mask></mask><g transform="translate(497.8255036057367 175.31199660578386) rotate(0 30.743988037109375 22.5)"><text x="0" y="31.536" font-family="Virgil, Segoe UI Emoji" font-size="36px" fill="#343a40" text-anchor="start" style="white-space: pre;" direction="ltr" dominant-baseline="alphabetic">Pop</text></g></svg>